# Apple ModelIO OBJ File: vialrack
mtllib vialrack.mtl
g vialrack_Cube.028_None
v -0.074383 0 -0.222524
v -0.074383 0.037742 -0.222524
v -0.074383 0.037742 -0.445049
v -0.074383 0 -0.445049
v 0.074383 0.037742 -0.445049
v 0.074383 0 -0.445049
v 0.074383 0 0.222524
v 0.074383 0.037742 0.222524
v 0.074383 0.037742 0.445049
v 0.074383 0 0.445049
v -0.074383 0.037742 0.445049
v -0.074383 0 0.445049
v -0.074383 0 0.222524
v -0.030098 0.037742 0.308479
v -0.030098 0.037742 0.359094
v -0.030098 0.411685 0.359094
v -0.030098 0.411685 0.308479
v 0.074383 0.037742 -0.222524
v -0.074383 0.037742 0
v 0.074383 0.037742 0
v 0.074383 0 -0.222524
v 0.074383 0 0
v -0.074383 0 0
v -0.074383 0.037742 0.222524
v 0.030098 0.037742 -0.308479
v 0.030098 0.037742 -0.359094
v 0.030098 0.411685 -0.359094
v 0.030098 0.411685 -0.308479
v -0.030098 0.037742 -0.308479
v -0.030098 0.037742 -0.359094
v 0.030098 0.037742 0.308479
v 0.030098 0.037742 0.359094
v -0.030098 0.411685 -0.359094
v -0.030098 0.431129 -0.359094
v 0.030098 0.431129 -0.359094
v 0.030098 0.411685 0.359094
v 0.030098 0.431129 0.359094
v -0.030098 0.431129 0.359094
v 0.030098 0.411685 0.308479
v -0.030098 0.411685 -0.308479
v 0.030098 0.431129 0.308479
v -0.030098 0.431129 0.308479
v -0.030098 0.431129 -0.308479
v 0.030098 0.431129 -0.308479
v -0.025555 0.121633 0.11
v -0.025555 0.466749 0.11
v -0.019657 0.466749 0.090343
v -0.019657 0.121633 0.090343
v 0 0.121633 0.08248
v 0 0.466749 0.08248
v 0.019657 0.466749 0.090343
v 0.019657 0.121633 0.090343
v 0.025555 0.121633 0.11
v 0.025555 0.466749 0.11
v 0.019657 0.466749 0.129657
v 0.019657 0.121633 0.129657
v 0 0.121633 0.13752
v 0 0.466749 0.13752
v -0.019657 0.466749 0.129657
v -0.019657 0.121633 0.129657
v 0 0.104163 0.11
v 0 0.466749 0.11
v -0.025555 0.121633 0
v -0.025555 0.466749 0
v -0.019657 0.466749 -0.019657
v -0.019657 0.121633 -0.019657
v 0 0.121633 -0.02752
v 0 0.466749 -0.02752
v 0.019657 0.466749 -0.019657
v 0.019657 0.121633 -0.019657
v 0.025555 0.121633 0
v 0.025555 0.466749 0
v 0.019657 0.466749 0.019657
v 0.019657 0.121633 0.019657
v 0 0.121633 0.02752
v 0 0.466749 0.02752
v -0.019657 0.466749 0.019657
v -0.019657 0.121633 0.019657
v 0 0.104163 0
v 0 0.466749 0
v -0.025555 0.121633 -0.11
v -0.025555 0.466749 -0.11
v -0.019657 0.466749 -0.129657
v -0.019657 0.121633 -0.129657
v 0 0.121633 -0.13752
v 0 0.466749 -0.13752
v 0.019657 0.466749 -0.129657
v 0.019657 0.121633 -0.129657
v 0.025555 0.121633 -0.11
v 0.025555 0.466749 -0.11
v 0.019657 0.466749 -0.090343
v 0.019657 0.121633 -0.090343
v 0 0.121633 -0.08248
v 0 0.466749 -0.08248
v -0.019657 0.466749 -0.090343
v -0.019657 0.121633 -0.090343
v 0 0.104163 -0.11
v 0 0.466749 -0.11
v -0.025555 0.121633 -0.22
v -0.025555 0.466749 -0.22
v -0.019657 0.466749 -0.239657
v -0.019657 0.121633 -0.239657
v 0 0.121633 -0.24752
v 0 0.466749 -0.24752
v 0.019657 0.466749 -0.239657
v 0.019657 0.121633 -0.239657
v 0.025555 0.121633 -0.22
v 0.025555 0.466749 -0.22
v 0.019657 0.466749 -0.200343
v 0.019657 0.121633 -0.200343
v 0 0.121633 -0.19248
v 0 0.466749 -0.19248
v -0.019657 0.466749 -0.200343
v -0.019657 0.121633 -0.200343
v 0 0.104163 -0.22
v 0 0.466749 -0.22
v -0.025555 0.121633 0.22
v -0.025555 0.466749 0.22
v -0.019657 0.466749 0.200343
v -0.019657 0.121633 0.200343
v 0 0.121633 0.19248
v 0 0.466749 0.19248
v 0.019657 0.466749 0.200343
v 0.019657 0.121633 0.200343
v 0.025555 0.121633 0.22
v 0.025555 0.466749 0.22
v 0.019657 0.466749 0.239657
v 0.019657 0.121633 0.239657
v 0 0.121633 0.24752
v 0 0.466749 0.24752
v -0.019657 0.466749 0.239657
v -0.019657 0.121633 0.239657
v 0 0.104163 0.22
v 0 0.466749 0.22
vn -1 0 0
vn 0 0 -1
vn 1 0 0
vn 0 0 1
vn 0 -1 0
vn 0 1 0
vn -0.9578 0 -0.2873
vn 0.3714 0 -0.9285
vn 0.9578 0 0.2873
vn -0.3714 0 0.9285
vn 0.2096 -0.8255 0.524
vn 0.2096 -0.8255 -0.524
vn 0.9578 0 -0.2873
vn -0.9578 0 0.2873
vn -0.5564 -0.814 -0.1669
vn -0.5564 -0.814 0.1669
vn 0.3714 0 0.9285
vn -0.3714 0 -0.9285
vn 0.5564 -0.814 -0.1669
vn -0.2096 -0.8255 0.524
vn 0.5564 -0.814 0.1669
vn -0.2096 -0.8255 -0.524
vt 0.203925 0.468659
vt 0.229003 0.468659
vt 0.229003 0.61652
vt 0.203925 0.61652
vt 0.203925 0.641598
vt 0.105075 0.641598
vt 0.105075 0.61652
vt 0.105075 0.172939
vt 0.079997 0.172939
vt 0.079997 0.025078
vt 0.105075 0.025078
vt 0.105075 0
vt 0.203925 0
vt 0.203925 0.025078
vt 0.203925 0.172939
vt 0.589246 0.443581
vt 0.589246 0.477213
vt 0.340773 0.477213
vt 0.340773 0.443581
vt 0.327853 0.443581
vt 0.229003 0.443581
vt 0.229003 0.295721
vt 0.327853 0.295721
vt 0.105075 0.468659
vt 0.105075 0.320799
vt 0.203925 0.320799
vt 0.079997 0.468659
vt 0.079997 0.320799
vt 0.229003 0.172939
vt 0.229003 0.320799
vt 0.229003 0.025078
vt 0.229003 0.14786
vt 0.327853 0.14786
vt 0.079997 0.61652
vt 0.850639 0.443581
vt 0.850639 0.477213
vt 0.602166 0.477213
vt 0.602166 0.443581
vt 0.258429 0.500695
vt 0.258429 0.534327
vt 0.229003 0.591441
vt 0.298427 0.534327
vt 0.327853 0.591441
vt 0.298427 0.090746
vt 0.298427 0.057114
vt 0.327853 0
vt 0.258429 0.057114
vt 0.229003 -0
vt 0.258429 0.090746
vt 0.298427 0.500695
vt 0.039998 0.751527
vt 0 0.751527
vt 0 0.738607
vt 0.039998 0.738607
vt 0 0.248473
vt 0.039998 0.248473
vt 0.039998 0.261393
vt 0 0.261393
vt 0.85064 -0
vt 0.85064 0.033632
vt 0.602166 0.033632
vt 0.602166 0
vt 0.589246 -0
vt 0.589246 0.033632
vt 0.340773 0.033632
vt 0.340773 0
vt 0.079996 0.906895
vt 0.039998 0.906895
vt 0.039998 0.658422
vt 0.079996 0.658422
vt 0.039998 0
vt 0.079997 0
vt 0.079997 0.248473
vt 0 0
vt 0.039998 1
vt -0 1
vt 0.039998 0.295026
vt 0 0.295026
vt 0 0.704974
vt 0.039998 0.704974
vt 0.327853 0.477213
vt 0.327853 0.033632
vt 0.392517 0.477213
vt 0.392517 0.707912
vt 0.376603 0.707912
vt 0.376603 0.477213
vt 0.360185 0.477213
vt 0.360185 0.707912
vt 0.343767 0.707912
vt 0.343767 0.477213
vt 0.457182 0.477213
vt 0.457182 0.707912
vt 0.441267 0.707912
vt 0.441267 0.477213
vt 0.42485 0.477213
vt 0.42485 0.707912
vt 0.408432 0.707912
vt 0.408432 0.477213
vt 0.477817 0.499122
vt 0.467116 0.478551
vt 0.484804 0.477213
vt 0.517433 0.497654
vt 0.498452 0.49196
vt 0.507213 0.478673
vt 0.523565 0.477213
vt 0.511301 0.518095
vt 0.498452 0.507874
vt 0.47083 0.521031
vt 0.457182 0.5097
vt 0.327853 0.707912
vt 0.488518 0.519694
vt 0.498452 0.505703
vt 0.527653 0.516635
vt 0.536414 0.503348
vt 0.536414 0.487434
vt 0.498452 0.488544
vt 0.457182 0.492541
usemtl None
f 1/1/1 2/2/1 3/3/1
f 1/1/1 3/3/1 4/4/1
f 4/4/2 3/5/2 5/6/2
f 4/4/2 5/6/2 6/7/2
f 7/8/3 8/9/3 9/10/3
f 7/8/3 9/10/3 10/11/3
f 10/11/4 9/12/4 11/13/4
f 10/11/4 11/13/4 12/14/4
f 13/15/5 7/8/5 10/11/5
f 13/15/5 10/11/5 12/14/5
f 14/16/1 15/17/1 16/18/1
f 14/16/1 16/18/1 17/19/1
f 18/20/6 2/21/6 19/22/6
f 18/20/6 19/22/6 20/23/6
f 1/1/5 21/24/5 22/25/5
f 1/1/5 22/25/5 23/26/5
f 21/24/3 18/27/3 20/28/3
f 21/24/3 20/28/3 22/25/3
f 13/15/1 24/29/1 19/30/1
f 13/15/1 19/30/1 23/26/1
f 12/14/1 11/31/1 24/29/1
f 12/14/1 24/29/1 13/15/1
f 20/23/6 19/22/6 24/32/6
f 20/23/6 24/32/6 8/33/6
f 23/26/5 22/25/5 7/8/5
f 23/26/5 7/8/5 13/15/5
f 22/25/3 20/28/3 8/9/3
f 22/25/3 8/9/3 7/8/3
f 6/7/3 5/34/3 18/27/3
f 6/7/3 18/27/3 21/24/3
f 4/4/5 6/7/5 21/24/5
f 4/4/5 21/24/5 1/1/5
f 25/35/3 26/36/3 27/37/3
f 25/35/3 27/37/3 28/38/3
f 23/26/1 19/30/1 2/2/1
f 23/26/1 2/2/1 1/1/1
f 29/39/6 30/40/6 3/41/6
f 29/39/6 3/41/6 2/21/6
f 30/40/6 26/42/6 5/43/6
f 30/40/6 5/43/6 3/41/6
f 31/44/6 32/45/6 9/46/6
f 31/44/6 9/46/6 8/33/6
f 32/45/6 15/47/6 11/48/6
f 32/45/6 11/48/6 9/46/6
f 15/47/6 14/49/6 24/32/6
f 15/47/6 24/32/6 11/48/6
f 14/49/6 31/44/6 8/33/6
f 14/49/6 8/33/6 24/32/6
f 26/42/6 25/50/6 18/20/6
f 26/42/6 18/20/6 5/43/6
f 25/50/6 29/39/6 2/21/6
f 25/50/6 2/21/6 18/20/6
f 27/51/2 33/52/2 34/53/2
f 27/51/2 34/53/2 35/54/2
f 16/55/4 36/56/4 37/57/4
f 16/55/4 37/57/4 38/58/4
f 32/59/3 31/60/3 39/61/3
f 32/59/3 39/61/3 36/62/3
f 30/63/1 29/64/1 40/65/1
f 30/63/1 40/65/1 33/66/1
f 29/67/4 25/68/4 28/69/4
f 29/67/4 28/69/4 40/70/4
f 31/71/2 14/72/2 17/73/2
f 31/71/2 17/73/2 39/56/2
f 15/74/4 32/71/4 36/56/4
f 15/74/4 36/56/4 16/55/4
f 26/75/2 30/76/2 33/52/2
f 26/75/2 33/52/2 27/51/2
f 41/77/6 42/78/6 38/58/6
f 41/77/6 38/58/6 37/57/6
f 35/54/6 34/53/6 43/79/6
f 35/54/6 43/79/6 44/80/6
f 28/38/3 27/37/3 35/17/3
f 28/38/3 35/17/3 44/16/3
f 17/19/1 16/18/1 38/81/1
f 17/19/1 38/81/1 42/20/1
f 36/62/3 39/61/3 41/64/3
f 36/62/3 41/64/3 37/63/3
f 33/66/1 40/65/1 43/82/1
f 33/66/1 43/82/1 34/46/1
f 39/56/5 17/73/5 40/70/5
f 39/56/5 40/70/5 28/69/5
f 42/20/1 43/82/1 40/65/1
f 42/20/1 40/65/1 17/19/1
f 44/16/3 41/64/3 39/61/3
f 44/16/3 39/61/3 28/38/3
f 41/77/6 44/80/6 43/79/6
f 41/77/6 43/79/6 42/78/6
f 45/83/7 46/84/7 47/85/7
f 45/83/7 47/85/7 48/86/7
f 49/87/8 50/88/8 51/89/8
f 49/87/8 51/89/8 52/90/8
f 53/91/9 54/92/9 55/93/9
f 53/91/9 55/93/9 56/94/9
f 57/95/10 58/96/10 59/97/10
f 57/95/10 59/97/10 60/98/10
f 61/99/11 56/100/11 57/101/11
f 62/102/6 46/103/6 59/104/6
f 62/102/6 59/104/6 58/105/6
f 50/106/6 47/107/6 62/102/6
f 47/107/6 46/103/6 62/102/6
f 49/108/12 52/109/12 61/99/12
f 52/90/13 51/89/13 54/110/13
f 52/90/13 54/110/13 53/81/13
f 60/98/14 59/97/14 46/84/14
f 60/98/14 46/84/14 45/83/14
f 48/111/15 61/99/15 45/112/15
f 51/113/6 50/106/6 62/102/6
f 51/113/6 62/102/6 54/114/6
f 54/114/6 62/102/6 55/115/6
f 62/102/6 58/105/6 55/115/6
f 45/112/16 61/99/16 60/116/16
f 56/94/17 55/93/17 58/96/17
f 56/94/17 58/96/17 57/95/17
f 48/86/18 47/85/18 50/88/18
f 48/86/18 50/88/18 49/87/18
f 61/99/19 52/109/19 53/117/19
f 60/116/20 61/99/20 57/101/20
f 56/100/21 61/99/21 53/117/21
f 61/99/22 48/111/22 49/108/22
f 63/83/7 64/84/7 65/85/7
f 63/83/7 65/85/7 66/86/7
f 67/87/8 68/88/8 69/89/8
f 67/87/8 69/89/8 70/90/8
f 71/91/9 72/92/9 73/93/9
f 71/91/9 73/93/9 74/94/9
f 75/95/10 76/96/10 77/97/10
f 75/95/10 77/97/10 78/98/10
f 79/99/11 74/100/11 75/101/11
f 80/102/6 64/103/6 77/104/6
f 80/102/6 77/104/6 76/105/6
f 68/106/6 65/107/6 80/102/6
f 65/107/6 64/103/6 80/102/6
f 67/108/12 70/109/12 79/99/12
f 70/90/13 69/89/13 72/110/13
f 70/90/13 72/110/13 71/81/13
f 78/98/14 77/97/14 64/84/14
f 78/98/14 64/84/14 63/83/14
f 66/111/15 79/99/15 63/112/15
f 69/113/6 68/106/6 80/102/6
f 69/113/6 80/102/6 72/114/6
f 72/114/6 80/102/6 73/115/6
f 80/102/6 76/105/6 73/115/6
f 63/112/16 79/99/16 78/116/16
f 74/94/17 73/93/17 76/96/17
f 74/94/17 76/96/17 75/95/17
f 66/86/18 65/85/18 68/88/18
f 66/86/18 68/88/18 67/87/18
f 79/99/19 70/109/19 71/117/19
f 78/116/20 79/99/20 75/101/20
f 74/100/21 79/99/21 71/117/21
f 79/99/22 66/111/22 67/108/22
f 81/83/7 82/84/7 83/85/7
f 81/83/7 83/85/7 84/86/7
f 85/87/8 86/88/8 87/89/8
f 85/87/8 87/89/8 88/90/8
f 89/91/9 90/92/9 91/93/9
f 89/91/9 91/93/9 92/94/9
f 93/95/10 94/96/10 95/97/10
f 93/95/10 95/97/10 96/98/10
f 97/99/11 92/100/11 93/101/11
f 98/102/6 82/103/6 95/104/6
f 98/102/6 95/104/6 94/105/6
f 86/106/6 83/107/6 98/102/6
f 83/107/6 82/103/6 98/102/6
f 85/108/12 88/109/12 97/99/12
f 88/90/13 87/89/13 90/110/13
f 88/90/13 90/110/13 89/81/13
f 96/98/14 95/97/14 82/84/14
f 96/98/14 82/84/14 81/83/14
f 84/111/15 97/99/15 81/112/15
f 87/113/6 86/106/6 98/102/6
f 87/113/6 98/102/6 90/114/6
f 90/114/6 98/102/6 91/115/6
f 98/102/6 94/105/6 91/115/6
f 81/112/16 97/99/16 96/116/16
f 92/94/17 91/93/17 94/96/17
f 92/94/17 94/96/17 93/95/17
f 84/86/18 83/85/18 86/88/18
f 84/86/18 86/88/18 85/87/18
f 97/99/19 88/109/19 89/117/19
f 96/116/20 97/99/20 93/101/20
f 92/100/21 97/99/21 89/117/21
f 97/99/22 84/111/22 85/108/22
f 99/83/7 100/84/7 101/85/7
f 99/83/7 101/85/7 102/86/7
f 103/87/8 104/88/8 105/89/8
f 103/87/8 105/89/8 106/90/8
f 107/91/9 108/92/9 109/93/9
f 107/91/9 109/93/9 110/94/9
f 111/95/10 112/96/10 113/97/10
f 111/95/10 113/97/10 114/98/10
f 115/99/11 110/100/11 111/101/11
f 116/102/6 100/103/6 113/104/6
f 116/102/6 113/104/6 112/105/6
f 104/106/6 101/107/6 116/102/6
f 101/107/6 100/103/6 116/102/6
f 103/108/12 106/109/12 115/99/12
f 106/90/13 105/89/13 108/110/13
f 106/90/13 108/110/13 107/81/13
f 114/98/14 113/97/14 100/84/14
f 114/98/14 100/84/14 99/83/14
f 102/111/15 115/99/15 99/112/15
f 105/113/6 104/106/6 116/102/6
f 105/113/6 116/102/6 108/114/6
f 108/114/6 116/102/6 109/115/6
f 116/102/6 112/105/6 109/115/6
f 99/112/16 115/99/16 114/116/16
f 110/94/17 109/93/17 112/96/17
f 110/94/17 112/96/17 111/95/17
f 102/86/18 101/85/18 104/88/18
f 102/86/18 104/88/18 103/87/18
f 115/99/19 106/109/19 107/117/19
f 114/116/20 115/99/20 111/101/20
f 110/100/21 115/99/21 107/117/21
f 115/99/22 102/111/22 103/108/22
f 117/83/7 118/84/7 119/85/7
f 117/83/7 119/85/7 120/86/7
f 121/87/8 122/88/8 123/89/8
f 121/87/8 123/89/8 124/90/8
f 125/91/9 126/92/9 127/93/9
f 125/91/9 127/93/9 128/94/9
f 129/95/10 130/96/10 131/97/10
f 129/95/10 131/97/10 132/98/10
f 133/99/11 128/100/11 129/101/11
f 134/102/6 118/103/6 131/104/6
f 134/102/6 131/104/6 130/105/6
f 122/106/6 119/107/6 134/102/6
f 119/107/6 118/103/6 134/102/6
f 121/108/12 124/109/12 133/99/12
f 124/90/13 123/89/13 126/110/13
f 124/90/13 126/110/13 125/81/13
f 132/98/14 131/97/14 118/84/14
f 132/98/14 118/84/14 117/83/14
f 120/111/15 133/99/15 117/112/15
f 123/113/6 122/106/6 134/102/6
f 123/113/6 134/102/6 126/114/6
f 126/114/6 134/102/6 127/115/6
f 134/102/6 130/105/6 127/115/6
f 117/112/16 133/99/16 132/116/16
f 128/94/17 127/93/17 130/96/17
f 128/94/17 130/96/17 129/95/17
f 120/86/18 119/85/18 122/88/18
f 120/86/18 122/88/18 121/87/18
f 133/99/19 124/109/19 125/117/19
f 132/116/20 133/99/20 129/101/20
f 128/100/21 133/99/21 125/117/21
f 133/99/22 120/111/22 121/108/22
s off
