# Apple ModelIO OBJ File: filecabinet
mtllib filecabinet.mtl
g Cube.001
v -0.393117 0.804469 -1.63348
v -0.393117 1.50751 -1.63348
v -0.393117 1.50751 -2.39312
v -0.393117 0.804469 -2.39312
v 0.393117 1.50751 -2.39312
v 0.393117 0.804469 -2.39312
v 0.393117 0.804469 -1.63348
v 0.393117 1.50751 -1.63348
v 0.393117 1.50751 -1.60688
v 0.393117 0.804469 -1.60688
v -0.393117 1.50751 -1.60688
v -0.393117 0.804469 -1.60688
v -0.393117 0 -1.63348
v 0.393117 0 -1.63348
v 0.393117 0 -1.60688
v -0.393117 0 -1.60688
v 0.393117 0.751452 -1.60688
v -0.393117 0.751452 -1.60688
v 0.393117 0.751452 -1.63348
v -0.393117 0 -2.39312
v -0.393117 0.751452 -2.39312
v 0.393117 0.751452 -2.39312
v 0.393117 0 -2.39312
v -0.393117 0.751452 -1.63348
v -0.123164 1.38085 -1.5391
v -0.123164 1.42436 -1.5391
v -0.123164 1.42436 -1.6189
v -0.123164 1.38085 -1.6189
v 0.123164 1.42436 -1.6189
v 0.123164 1.38085 -1.6189
v 0.123164 1.42436 -1.5391
v 0.123164 1.38085 -1.5391
v -0.123164 0.622802 -1.5391
v -0.123164 0.666313 -1.5391
v -0.123164 0.666313 -1.6189
v -0.123164 0.622802 -1.6189
v 0.123164 0.666313 -1.6189
v 0.123164 0.622802 -1.6189
v 0.123164 0.666313 -1.5391
v 0.123164 0.622802 -1.5391
vn -1 -0 -0
vn -0 -0 -1
vn 1 -0 -0
vn -0 -0 1
vn -0 -1 -0
vn -0 1 -0
vt 0.008788 0.232261
vt 0.008788 0
vt 0.259743 0
vt 0.259743 0.232261
vt 0.519487 0
vt 0.519487 0.232261
vt 0.770442 0.232261
vt 0.770442 0
vt 0.77923 0
vt 0.77923 0.232261
vt 1 0.757771
vt 0.76774 0.757771
vt 0.76774 0.498028
vt 1 0.498028
vt 0.259743 0.506816
vt 0 0.506816
vt 0 0.498028
vt 0.259743 0.498028
vt 0.519487 0.506816
vt 0.519487 0.498028
vt 0.519487 0.757772
vt 0.770442 0.498028
vt 0.770442 0.249775
vt 0.77923 0.249775
vt 0.77923 0.498028
vt 0.259743 0.249775
vt 0.519487 0.249775
vt 0.008788 0.498028
vt 0.008788 0.249775
vt 0.805532 0.259743
vt 0.796745 0.259743
vt 0.796745 0
vt 0.805532 0
vt 0.81432 0
vt 0.81432 0.259743
vt 0.77923 0.259743
vt 0 0.249775
vt 0.519487 0.757771
vt 0.259743 0.757771
vt 0 0.757771
vt 0 0.232261
vt 0 0
vt 0.057497 0.784132
vt 0.043123 0.784132
vt 0.043123 0.757771
vt 0.057497 0.757771
vt 0.828694 0.081378
vt 0.81432 0.081378
vt 0.828694 0
vt 0.028749 0.784132
vt 0.014374 0.784132
vt 0.014374 0.757771
vt 0.028749 0.757771
vt 0.828694 0.162755
vt 0.81432 0.162755
vt 0.805591 0.259743
vt 0.805591 0.341121
vt 0.77923 0.341121
vt 0.805591 0.422499
vt 0.77923 0.422499
vt 0.828694 0.244133
vt 0.81432 0.244133
vt 0.071871 0.784132
vt 0.071871 0.757771
vt 0.014374 0.839149
vt 0 0.839149
vt 0.831952 0.259743
vt 0.831952 0.341121
vt 0.831952 0.422499
usemtl 
f 1/1/1 2/2/1 3/3/1
f 1/1/1 3/3/1 4/4/1
f 4/4/2 3/3/2 5/5/2
f 4/4/2 5/5/2 6/6/2
f 7/7/3 8/8/3 9/9/3
f 7/7/3 9/9/3 10/10/3
f 10/11/4 9/12/4 11/13/4
f 10/11/4 11/13/4 12/14/4
f 13/15/5 14/16/5 15/17/5
f 13/15/5 15/17/5 16/18/5
f 8/19/6 2/15/6 11/18/6
f 8/19/6 11/18/6 9/20/6
f 15/12/4 17/21/4 18/20/4
f 15/12/4 18/20/4 16/13/4
f 14/22/3 19/23/3 17/24/3
f 14/22/3 17/24/3 15/25/3
f 20/18/2 21/26/2 22/27/2
f 20/18/2 22/27/2 23/20/2
f 13/28/1 24/29/1 21/26/1
f 13/28/1 21/26/1 20/18/1
f 24/30/6 18/31/6 17/32/6
f 24/30/6 17/32/6 19/33/6
f 1/34/5 7/35/5 10/30/5
f 1/34/5 10/30/5 12/33/5
f 21/26/2 4/4/2 6/6/2
f 21/26/2 6/6/2 22/27/2
f 24/29/1 1/1/1 4/4/1
f 24/29/1 4/4/1 21/26/1
f 19/31/4 7/36/4 1/9/4
f 19/31/4 1/9/4 24/32/4
f 22/27/3 6/6/3 7/7/3
f 22/27/3 7/7/3 19/23/3
f 16/17/1 18/37/1 24/29/1
f 16/17/1 24/29/1 13/28/1
f 23/20/3 22/27/3 19/23/3
f 23/20/3 19/23/3 14/22/3
f 5/38/6 3/39/6 2/15/6
f 5/38/6 2/15/6 8/19/6
f 20/39/5 23/40/5 14/16/5
f 20/39/5 14/16/5 13/15/5
f 6/6/3 5/5/3 8/8/3
f 6/6/3 8/8/3 7/7/3
f 12/41/1 11/42/1 2/2/1
f 12/41/1 2/2/1 1/1/1
f 25/43/1 26/44/1 27/45/1
f 25/43/1 27/45/1 28/46/1
f 28/47/2 27/48/2 29/34/2
f 28/47/2 29/34/2 30/49/2
f 30/50/3 29/51/3 31/52/3
f 30/50/3 31/52/3 32/53/3
f 32/54/4 31/55/4 26/48/4
f 32/54/4 26/48/4 25/47/4
f 28/56/5 30/57/5 32/58/5
f 28/56/5 32/58/5 25/36/5
f 29/57/6 27/59/6 26/60/6
f 29/57/6 26/60/6 31/58/6
f 33/44/1 34/50/1 35/53/1
f 33/44/1 35/53/1 36/45/1
f 36/61/2 35/62/2 37/55/2
f 36/61/2 37/55/2 38/54/2
f 38/63/3 37/43/3 39/46/3
f 38/63/3 39/46/3 40/64/3
f 40/65/4 39/66/4 34/40/4
f 40/65/4 34/40/4 33/52/4
f 36/67/5 38/68/5 40/57/5
f 36/67/5 40/57/5 33/56/5
f 37/68/6 35/69/6 34/59/6
f 37/68/6 34/59/6 39/57/6
s off
