<?xml version="1.0" encoding="UTF-8" standalone="no"?>
<!-- Created with Vectornator (http://vectornator.io/) -->

<svg
   height="100%"
   stroke-miterlimit="10"
   style="fill-rule:nonzero;clip-rule:evenodd;stroke-linecap:round;stroke-linejoin:round;"
   version="1.1"
   viewBox="0 0 2048 2048"
   width="100%"
   xml:space="preserve"
   id="svg155"
   sodipodi:docname="logo.svg"
   inkscape:version="1.2.2 (732a01da63, 2022-12-09)"
   xmlns:inkscape="http://www.inkscape.org/namespaces/inkscape"
   xmlns:sodipodi="http://sodipodi.sourceforge.net/DTD/sodipodi-0.dtd"
   xmlns="http://www.w3.org/2000/svg"
   xmlns:svg="http://www.w3.org/2000/svg"
   xmlns:vectornator="http://vectornator.io"><sodipodi:namedview
   id="namedview157"
   pagecolor="#505050"
   bordercolor="#eeeeee"
   borderopacity="1"
   inkscape:showpageshadow="0"
   inkscape:pageopacity="0"
   inkscape:pagecheckerboard="0"
   inkscape:deskcolor="#505050"
   showgrid="false"
   inkscape:zoom="0.41650391"
   inkscape:cx="843.92966"
   inkscape:cy="1024"
   inkscape:window-width="1920"
   inkscape:window-height="1111"
   inkscape:window-x="-9"
   inkscape:window-y="-9"
   inkscape:window-maximized="1"
   inkscape:current-layer="svg155" />
<defs
   id="defs84" />
<g
   id="Layer-1"
   vectornator:layerName="Layer 1"
   visibility="hidden"
   style="display:none">
<path
   d="m 1047.06,62.2951 c -96.659,0 -184.129,14.4824 -262.261,43.4799 -78.131,28.997 -144.205,69.663 -198.172,122.019 -53.967,52.356 -95.861,115.197 -125.664,188.496 -29.802,73.299 -44.61,155.082 -44.61,245.296 0,90.213 14.031,164.63 42.223,223.43 28.192,58.8 65.3,107.609 111.212,146.274 45.913,38.66 98.28,69.63 157.08,92.99 33.544,13.33 67.582,25.81 101.913,37.82 L 1130.25,789.511 c -2.41,-0.696 -4.75,-1.571 -7.16,-2.262 -39.47,-11.276 -74.9,-24.657 -106.32,-39.961 -31.409,-15.304 -56.69,-33.344 -76.022,-54.286 -19.332,-20.943 -29.029,-47.578 -29.029,-79.797 0,-46.718 19.268,-84.603 57.931,-113.6 38.66,-28.997 88.57,-43.48 149.79,-43.48 46.98,0 95.62,9.627 145.65,28.652 l 325.72,-285.76 C 1507.13,156.181 1420.19,122.742 1329.68,99.7429 1231.41,74.773 1137.27,62.2951 1047.06,62.2951 Z m 83.19,727.2159 c 6.97,2.012 13.79,4.347 20.73,6.409 l 211.24,-261.003 c -5.68,-3.66 -11.4,-7.538 -17.09,-10.933 z m 214.88,-265.527 230.72,-285.131 -290.28,254.595 c 19.87,8.705 39.68,18.653 59.56,30.536 z m 17.09,10.933 c 20.59,13.257 41.12,27.759 61.7,44.485 L 1590.3,253.053 Z m -211.24,261.003 -301.967,373.1 c 19.222,6.55 38.339,13.2 57.806,19.35 51.55,17.72 95.451,33.75 131.691,48.25 36.25,14.5 65.67,30.21 88.22,47.13 22.55,16.91 38.71,35.4 48.38,55.54 9.67,20.14 14.45,43.99 14.45,71.38 0,45.1 -18.94,85.32 -56.8,120.76 -37.86,35.44 -95.46,53.16 -172.786,53.16 -67.66,0 -136.063,-15.26 -205.334,-45.87 -21.761,-9.62 -43.656,-21.09 -65.597,-34.06 l -328.359,288.03 c 191.25,128.25 398.09,193.02 621.03,193.01 111.156,0 210.656,-14.8 298.456,-44.61 87.79,-29.8 161.88,-71.69 222.29,-125.66 60.42,-53.97 106.32,-118.81 137.73,-194.53 31.42,-75.71 47.13,-160.28 47.13,-253.71 0,-138.54 -35.76,-250.97 -107.45,-337.16 -71.68,-86.185 -184.89,-155.039 -339.54,-206.589 -29.46,-9.82 -59.42,-18.637 -89.35,-27.521 z m -301.967,373.1 c -6.741,-2.3 -13.52,-4.57 -20.232,-6.92 l -228.582,282.5 c 5.437,4.19 10.783,7.81 16.211,11.81 z M 616.41,1456.41 378.905,1749.96 671.199,1493.61 c -18.221,-11.46 -36.476,-23.7 -54.789,-37.2 z m -16.211,-11.81 c -18.541,-14.31 -37.142,-29.46 -55.795,-46 l -178.065,335.02 z"
   fill="#3395ff"
   fill-rule="nonzero"
   opacity="1"
   stroke="none"
   vectornator:layerName="Curve 1"
   id="path86" />
<g
   opacity="1"
   vectornator:layerName="Group 2"
   id="g98">
<path
   d="m 1043.32,49.2192 c -80.982,0 -154.266,12.1335 -219.726,36.4278 -65.459,24.294 -120.816,58.365 -166.03,102.23 -45.215,43.864 -80.314,96.513 -105.283,157.924 -24.969,61.41 -37.376,129.929 -37.376,205.511 10e-4,75.583 11.756,137.93 35.375,187.193 23.62,49.263 54.71,90.157 93.176,122.549 38.466,32.393 82.34,58.339 131.603,77.909 28.104,11.165 56.621,21.624 85.384,31.69 L 1113.02,658.49 c -2.03,-0.583 -3.98,-1.317 -6,-1.895 -33.07,-9.448 -62.75,-20.658 -89.07,-33.48 -26.323,-12.822 -47.503,-27.936 -63.7,-45.482 -16.196,-17.546 -24.32,-39.861 -24.32,-66.854 0,-39.141 16.143,-70.882 48.535,-95.176 32.395,-24.294 74.205,-36.428 125.495,-36.428 39.36,0 80.11,8.065 122.02,24.005 l 272.9,-239.413 C 1428.78,127.878 1355.93,99.862 1280.1,80.5935 1197.77,59.6734 1118.9,49.2192 1043.32,49.2192 Z m 69.7,609.2708 c 5.84,1.686 11.55,3.642 17.37,5.37 l 176.98,-218.673 c -4.76,-3.065 -9.56,-6.315 -14.32,-9.159 z m 180.03,-222.462 193.3,-238.887 -243.2,213.303 c 16.64,7.294 33.24,15.628 49.9,25.584 z m 14.32,9.159 c 17.25,11.108 34.45,23.258 51.69,37.271 l 139.4,-273.42 z M 1130.39,663.86 877.394,976.444 c 16.104,5.491 32.12,11.063 48.43,16.214 43.19,14.842 79.966,28.282 110.336,40.432 30.37,12.14 55.01,25.3 73.91,39.48 18.89,14.17 32.43,29.66 40.53,46.53 8.1,16.87 12.11,36.86 12.11,59.8 0,37.79 -15.87,71.49 -47.59,101.18 -31.72,29.69 -79.98,44.53 -144.762,44.53 -56.686,0 -113.995,-12.78 -172.031,-38.42 -18.232,-8.06 -36.576,-17.68 -54.958,-28.54 l -275.104,241.31 c 160.232,107.46 333.525,161.72 520.307,161.72 93.128,0 176.488,-12.41 250.048,-37.38 73.56,-24.97 135.63,-60.07 186.24,-105.28 50.62,-45.22 89.07,-99.54 115.39,-162.98 26.32,-63.43 39.48,-134.28 39.48,-212.57 0,-116.07 -29.95,-210.261 -90.01,-282.469 -60.06,-72.208 -154.91,-129.895 -284.48,-173.084 -24.68,-8.227 -49.78,-15.614 -74.85,-23.057 z M 877.394,976.444 c -5.648,-1.926 -11.328,-3.823 -16.951,-5.791 L 668.934,1207.33 c 4.556,3.51 9.034,6.54 13.582,9.9 z M 682.516,1217.23 483.531,1463.17 728.419,1248.39 c -15.266,-9.6 -30.56,-19.85 -45.903,-31.16 z m -13.582,-9.9 c -15.534,-11.98 -31.118,-24.68 -46.745,-38.53 l -149.186,280.68 z"
   fill="#3395ff"
   fill-rule="nonzero"
   opacity="1"
   stroke="none"
   vectornator:layerName="Curve 2"
   id="path88" />
<g
   opacity="1"
   vectornator:layerName="Group 2"
   id="g96">
<path
   d="m 899.159,1721.29 v 135.04 h 13.092 v -135.04 z m 49.611,4.58 c -2.536,0 -4.636,0.85 -6.347,2.56 -1.712,1.71 -2.592,3.88 -2.592,6.55 0,2.66 0.88,4.83 2.592,6.48 1.711,1.64 3.811,2.45 6.347,2.45 2.408,0 4.505,-0.77 6.28,-2.35 1.775,-1.59 2.658,-3.79 2.658,-6.58 0,-2.79 -0.919,-5 -2.758,-6.65 -1.838,-1.65 -3.898,-2.46 -6.18,-2.46 z m -273.076,39.94 c -4.565,0 -8.721,0.59 -12.461,1.8 -3.741,1.2 -7.013,2.89 -9.803,5.05 -2.789,2.15 -4.958,4.73 -6.479,7.77 -1.522,3.05 -2.26,6.43 -2.26,10.1 0,5.96 1.878,10.86 5.682,14.73 3.804,3.86 9.651,7.06 17.512,9.6 l 6.081,1.93 c 6.339,2.02 10.937,4.2 13.79,6.54 2.853,2.35 4.286,5.55 4.286,9.6 0,4.82 -1.803,8.46 -5.416,10.94 -3.613,2.47 -8.653,3.72 -15.119,3.72 -4.691,0 -9.029,-0.48 -12.96,-1.43 -3.93,-0.95 -7.608,-2.31 -11.032,-4.09 l -3.422,10.47 c 3.55,1.78 7.742,3.14 12.56,4.09 4.818,0.95 10.079,1.43 15.784,1.43 10.651,0 18.851,-2.5 24.556,-7.45 5.706,-4.94 8.54,-11.2 8.54,-18.8 0,-6.47 -2.06,-11.73 -6.18,-15.79 -4.121,-4.06 -10.116,-7.29 -17.977,-9.7 l -5.682,-1.73 c -6.847,-2.03 -11.517,-4.09 -13.99,-6.18 -2.472,-2.09 -3.721,-4.96 -3.721,-8.64 0,-4.06 1.582,-7.37 4.751,-9.9 3.17,-2.54 7.989,-3.79 14.455,-3.79 3.677,0 7.207,0.37 10.567,1.13 3.36,0.76 6.89,2.05 10.567,3.82 l 3.223,-10.3 c -3.931,-1.78 -8.196,-3.03 -12.76,-3.79 -4.565,-0.76 -8.908,-1.13 -13.092,-1.13 z m 89.751,0 c -6.593,0 -12.624,1.03 -18.076,3.13 -5.452,2.09 -10.162,5.14 -14.156,9.13 -3.994,4 -7.118,8.85 -9.337,14.56 -2.219,5.7 -3.323,12.1 -3.323,19.2 0,7.74 1.176,14.47 3.522,20.24 2.346,5.77 5.582,10.59 9.703,14.46 4.121,3.86 8.903,6.77 14.355,8.67 5.452,1.9 11.299,2.86 17.512,2.86 9.255,0 17.31,-1.73 24.157,-5.15 l -2.858,-9.71 c -2.916,1.4 -5.968,2.54 -9.138,3.43 -3.169,0.88 -6.775,1.32 -10.832,1.32 -4.058,0 -8.065,-0.59 -11.996,-1.79 -3.931,-1.2 -7.424,-3.23 -10.467,-6.08 -3.043,-2.85 -5.508,-6.64 -7.41,-11.33 -1.902,-4.69 -2.858,-10.51 -2.858,-17.48 0,-11.03 3.016,-19.67 9.038,-25.89 6.023,-6.21 13.969,-9.3 23.859,-9.3 3.296,0 6.53,0.33 9.636,1.03 3.107,0.7 6.307,1.95 9.603,3.72 l 3.024,-10.27 c -4.564,-2.02 -8.72,-3.35 -12.461,-3.92 -3.74,-0.57 -7.566,-0.83 -11.497,-0.83 z m 75.297,0 c -6.086,0 -11.606,0.7 -16.614,2.16 -5.009,1.46 -10.49,3.78 -16.449,6.95 l 5.117,9.53 c 5.452,-3.04 10.419,-5.1 14.92,-6.18 4.501,-1.07 8.546,-1.63 12.096,-1.63 5.832,0 10.505,1.48 14.056,4.46 3.55,2.98 5.349,8.27 5.349,15.88 v 6.68 h -18.076 c -5.959,0 -11.368,0.59 -16.249,1.79 -4.882,1.21 -9.074,3.01 -12.561,5.42 -3.486,2.41 -6.173,5.39 -8.074,8.94 -1.902,3.55 -2.858,7.67 -2.858,12.36 0,3.93 0.735,7.5 2.193,10.67 1.458,3.17 3.482,5.89 6.081,8.17 2.599,2.28 5.691,4.01 9.304,5.22 3.614,1.2 7.513,1.83 11.697,1.83 5.832,0 11.201,-1 16.083,-2.96 4.881,-1.97 9.222,-5.17 13.025,-9.6 h 0.366 l 2.093,10.83 h 10.268 v -58.19 c 0,-6.08 -0.774,-11.19 -2.359,-15.31 -1.585,-4.12 -3.827,-7.47 -6.679,-10.01 -2.853,-2.53 -6.202,-4.34 -10.069,-5.41 -3.867,-1.08 -8.096,-1.6 -12.66,-1.6 z m 186.778,0 c -6.34,0 -11.96,1.18 -16.84,3.59 -4.89,2.41 -9.52,5.72 -13.961,9.9 l -2.093,-12.36 h -10.102 v 89.39 h 13.325 v -66.96 c 3.681,-4.06 7.801,-7.18 12.361,-9.4 4.56,-2.22 9.05,-3.33 13.49,-3.33 7.1,0 12.18,1.92 15.22,5.79 3.04,3.86 4.59,8.79 4.59,14.75 v 59.15 h 13.29 v -61.61 c 0,-9.13 -2.58,-16.23 -7.78,-21.3 -5.2,-5.07 -12.37,-7.61 -21.5,-7.61 z m 88.62,0 c -5.19,0 -10.01,0.66 -14.45,2 -4.44,1.33 -8.23,3.28 -11.4,5.88 -3.17,2.6 -5.67,5.83 -7.44,9.7 -1.78,3.87 -2.66,8.28 -2.66,13.23 0,6.84 1.58,12.47 4.69,16.91 3.1,4.44 6.93,7.75 11.49,9.9 -3.67,1.65 -6.69,3.82 -9.04,6.55 -2.34,2.72 -3.52,6.14 -3.52,10.2 0,3.3 0.66,5.98 2,8.07 1.33,2.1 3.13,3.83 5.41,5.22 -4.94,1.78 -8.84,4.24 -11.69,7.41 -2.86,3.17 -4.29,7.11 -4.29,11.8 0,8.75 3.75,15.51 11.23,20.27 7.48,4.75 17.56,7.11 30.24,7.11 13.95,0 24.98,-2.72 33.09,-8.18 8.12,-5.45 12.17,-12.92 12.17,-22.43 0,-7.22 -2.58,-13 -7.78,-17.31 -5.2,-4.31 -12.74,-6.45 -22.63,-6.45 h -23.39 c -3.55,0 -6.45,-0.65 -8.67,-1.92 -2.22,-1.27 -3.33,-3.41 -3.33,-6.45 0,-2.15 0.81,-4.21 2.4,-6.18 1.58,-1.96 3.83,-3.47 6.74,-4.49 1.78,0.26 3.51,0.44 5.22,0.57 1.71,0.13 3.47,0.2 5.25,0.2 5.07,0 9.74,-0.66 14.05,-1.99 4.32,-1.34 8.03,-3.32 11.14,-5.99 3.1,-2.66 5.53,-5.93 7.31,-9.8 1.77,-3.87 2.65,-8.28 2.65,-13.22 0,-4.19 -0.92,-8.16 -2.82,-11.9 -1.9,-3.74 -4.44,-6.8 -7.61,-9.2 l 15.95,1.69 h 8.37 v -10.07 h -37.84 c -1.65,-0.25 -3.31,-0.51 -5.02,-0.76 -1.71,-0.26 -3.66,-0.37 -5.82,-0.37 z m 209.41,0 v 134.25 h 13.1 v -48.28 c 2.66,1.9 5.86,3.41 9.6,4.55 3.74,1.14 7.64,1.73 11.7,1.73 5.45,0 10.82,-0.96 16.08,-2.86 5.26,-1.9 9.97,-4.85 14.09,-8.84 4.12,-3.99 7.39,-9.03 9.87,-15.12 2.47,-6.09 3.72,-13.33 3.72,-21.7 0,-6.97 -0.92,-13.19 -2.76,-18.64 -1.84,-5.45 -4.45,-10.05 -7.81,-13.79 -3.36,-3.74 -7.37,-6.54 -12.06,-8.44 -4.69,-1.9 -9.91,-2.86 -15.62,-2.86 -6.08,0 -11.31,1.14 -15.68,3.42 -4.38,2.29 -8.13,4.94 -11.3,7.98 l -1.93,-11.4 z m -383.426,1.13 v 89.39 h 13.325 v -89.39 z m 282.816,0 v 59.71 c 0,10.65 2.83,18.56 8.54,23.7 5.7,5.13 13.2,7.71 22.46,7.71 6.59,0 12.37,-1.29 17.31,-3.83 4.95,-2.53 9.07,-5.58 12.36,-9.13 h 0.57 l 1.89,11.23 h 10.07 v -89.39 h -13.29 v 67.52 c -3.05,3.81 -6.83,6.9 -11.33,9.31 -4.5,2.41 -9.47,3.62 -14.92,3.62 -2.92,0 -5.61,-0.33 -8.08,-1.03 -2.47,-0.7 -4.64,-1.95 -6.48,-3.72 -1.84,-1.78 -3.27,-4.13 -4.28,-7.05 -1.02,-2.91 -1.53,-6.59 -1.53,-11.03 v -57.62 z m -108.8,8.74 c 6.34,0 11.46,1.8 15.32,5.35 3.87,3.55 5.78,8.85 5.78,15.95 0,6.85 -1.98,12 -5.98,15.42 -3.99,3.42 -9.14,5.12 -15.48,5.12 -6.34,0 -11.6,-1.73 -15.72,-5.22 -4.12,-3.49 -6.18,-8.86 -6.18,-16.08 0,-6.85 2.1,-11.96 6.28,-15.39 4.18,-3.42 9.52,-5.15 15.98,-5.15 z m 246.5,0.96 c 9.25,0 16.09,2.91 20.53,8.74 4.44,5.84 6.65,13.96 6.65,24.36 0,6.97 -0.92,12.86 -2.76,17.68 -1.84,4.82 -4.23,8.72 -7.14,11.7 -2.92,2.97 -6.27,5.14 -10.07,6.48 -3.81,1.33 -7.67,1.99 -11.6,1.99 -3.42,0 -6.81,-0.52 -10.17,-1.53 -3.36,-1.01 -6.52,-2.6 -9.43,-4.75 v -52.3 c 1.01,-1.4 2.33,-2.83 3.92,-4.29 1.58,-1.46 3.38,-2.78 5.41,-3.99 2.03,-1.2 4.28,-2.19 6.75,-2.96 2.47,-0.76 5.12,-1.13 7.91,-1.13 z m -503.423,36.72 v 20.9 c -3.296,4.82 -7.231,8.28 -11.796,10.37 -4.564,2.09 -9.086,3.12 -13.524,3.12 -5.072,0.01 -9.415,-1.17 -13.092,-3.58 -3.677,-2.41 -5.516,-6.61 -5.516,-12.56 0,-4.95 2.208,-9.14 6.645,-12.56 4.438,-3.43 11.907,-5.27 22.43,-5.52 z m 240.383,42.97 h 27.21 c 3.17,0 6.08,0.18 8.74,0.56 2.66,0.38 4.98,1.12 6.94,2.2 1.97,1.07 3.48,2.54 4.56,4.38 1.07,1.84 1.63,4.16 1.63,6.95 0,2.28 -0.59,4.56 -1.73,6.84 -1.14,2.28 -2.98,4.34 -5.52,6.18 -2.53,1.84 -5.81,3.28 -9.8,4.36 -4,1.07 -8.78,1.62 -14.36,1.62 -9.13,0 -16.19,-1.54 -21.2,-4.65 -5,-3.1 -7.51,-7.77 -7.51,-13.99 0,-3.29 1,-6.16 2.96,-8.64 1.97,-2.47 4.65,-4.42 8.08,-5.81 z"
   fill="#3395ff"
   fill-rule="nonzero"
   opacity="1"
   stroke="none"
   vectornator:layerName="Curve 3"
   id="path90" />
<path
   d="m 903.844,1901.22 v 37.85 c -2.352,-2.08 -5.002,-3.63 -7.942,-4.62 -2.94,-1 -6.057,-1.5 -9.404,-1.5 -4.522,0 -8.588,0.79 -12.161,2.33 -3.574,1.54 -6.584,3.73 -9.072,6.58 -2.488,2.85 -4.404,6.3 -5.715,10.37 -1.312,4.07 -1.961,8.61 -1.961,13.59 0,5.61 0.776,10.44 2.359,14.55 1.583,4.12 3.691,7.56 6.314,10.27 2.623,2.71 5.582,4.76 8.839,6.11 3.256,1.36 6.598,2.03 10.035,2.03 4.432,0 8.071,-0.65 10.966,-1.96 2.894,-1.31 5.523,-3.25 7.875,-5.78 h 0.266 l 1.229,6.51 h 7.875 v -96.33 z m -138.532,3.26 c -1.809,0 -3.331,0.6 -4.552,1.82 -1.221,1.23 -1.828,2.79 -1.828,4.69 0,1.9 0.607,3.44 1.828,4.62 1.221,1.17 2.743,1.76 4.552,1.76 1.719,0 3.22,-0.56 4.486,-1.69 1.267,-1.14 1.894,-2.7 1.894,-4.69 0,-1.99 -0.649,-3.58 -1.96,-4.75 -1.312,-1.18 -2.792,-1.76 -4.42,-1.76 z m 396.758,0 c -1.81,0 -3.33,0.6 -4.56,1.82 -1.22,1.23 -1.82,2.79 -1.82,4.69 0,1.9 0.6,3.44 1.82,4.62 1.23,1.17 2.75,1.76 4.56,1.76 1.72,0 3.22,-0.56 4.48,-1.69 1.27,-1.14 1.9,-2.7 1.9,-4.69 0,-1.99 -0.69,-3.58 -2,-4.75 -1.31,-1.18 -2.76,-1.76 -4.38,-1.76 z m -100.16,8.94 v 20.36 h -10.43 v 7.18 h 10.43 v 40.71 c 0,10.58 5.8,15.88 17.38,15.88 3.17,0 6.1,-0.25 8.81,-0.8 2.71,-0.54 5,-1.2 6.81,-1.92 l -1.49,-7.18 c -1.63,0.54 -3.55,1.04 -5.72,1.49 -2.17,0.46 -4.38,0.67 -6.65,0.67 -2.89,0 -5.21,-0.63 -6.97,-1.9 -1.77,-1.26 -2.66,-3.73 -2.66,-7.44 v -39.51 h 20.07 v -7.18 h -20.07 v -20.36 z m -240.408,19.53 c -4.522,0 -8.546,0.88 -12.028,2.6 -3.483,1.71 -6.803,4.06 -9.969,7.04 l -1.495,-8.81 h -7.178 v 63.77 h 9.504 v -47.75 c 2.623,-2.89 5.549,-5.13 8.805,-6.71 3.257,-1.58 6.471,-2.39 9.637,-2.39 5.065,0 8.695,1.39 10.866,4.15 2.171,2.76 3.256,6.25 3.256,10.5 v 42.2 h 9.47 v -43.96 c 0,-6.51 -1.84,-11.57 -5.549,-15.19 -3.709,-3.61 -8.806,-5.45 -15.319,-5.45 z m 200.668,0 c -3.25,0 -6.23,0.44 -8.9,1.3 -2.67,0.86 -4.99,2.05 -6.98,3.59 -1.99,1.54 -3.53,3.41 -4.62,5.58 -1.09,2.17 -1.63,4.56 -1.63,7.18 0,4.25 1.38,7.77 4.09,10.53 2.71,2.76 6.85,5.04 12.46,6.85 l 4.35,1.36 c 4.53,1.45 7.8,3.01 9.84,4.69 2.03,1.67 3.06,3.95 3.06,6.84 0,3.44 -1.28,6.05 -3.86,7.81 -2.58,1.76 -6.18,2.62 -10.8,2.62 -3.35,0 -6.43,-0.31 -9.24,-0.99 -2.8,-0.68 -5.4,-1.66 -7.84,-2.93 l -2.457,7.45 c 2.537,1.26 5.537,2.24 8.967,2.92 3.44,0.68 7.17,1.03 11.24,1.03 7.59,0 13.44,-1.75 17.51,-5.28 4.07,-3.53 6.11,-8.03 6.11,-13.46 0,-4.61 -1.48,-8.37 -4.42,-11.27 -2.94,-2.89 -7.22,-5.19 -12.82,-6.91 l -4.06,-1.23 c -4.88,-1.44 -8.2,-2.89 -9.97,-4.38 -1.76,-1.5 -2.65,-3.56 -2.65,-6.18 0,-2.9 1.12,-5.24 3.38,-7.05 2.27,-1.81 5.73,-2.72 10.34,-2.72 2.62,0 5.11,0.25 7.51,0.8 2.4,0.54 4.92,1.45 7.54,2.72 l 2.29,-7.31 c -2.8,-1.27 -5.81,-2.18 -9.07,-2.73 -3.25,-0.54 -6.38,-0.83 -9.37,-0.83 z m 113.71,0 c -4.61,0 -8.74,1.27 -12.36,3.76 -3.62,2.49 -6.2,5.76 -7.74,9.83 l -1.76,-12.76 h -6.78 v 63.77 h 9.37 v -34.19 c 0,-3.62 0.5,-6.83 1.49,-9.64 1,-2.8 2.34,-5.1 4.06,-6.91 1.72,-1.81 3.72,-3.2 5.98,-4.15 2.26,-0.95 4.69,-1.43 7.31,-1.43 1.81,0 3.39,0.2 4.75,0.56 1.36,0.36 2.6,0.82 3.69,1.37 l 1.76,-8.44 c -0.99,-0.46 -2.32,-0.84 -3.95,-1.2 -1.63,-0.36 -3.56,-0.57 -5.82,-0.57 z m 77.19,0 c -4.52,0 -8.6,0.79 -12.26,2.33 -3.66,1.54 -6.79,3.73 -9.37,6.58 -2.58,2.85 -4.6,6.3 -6.05,10.37 -1.44,4.07 -2.16,8.61 -2.16,13.59 0,5.79 0.84,10.76 2.56,14.92 1.72,4.16 4.07,7.56 7.01,10.23 2.94,2.67 6.35,4.65 10.24,5.92 3.89,1.26 8.06,1.89 12.49,1.89 3.8,0 7.38,-0.35 10.77,-1.03 3.39,-0.68 6.37,-1.54 8.9,-2.62 l -2.06,-7.08 c -2.89,1.17 -5.69,2.03 -8.4,2.52 -2.72,0.5 -5.64,0.73 -8.81,0.73 -7.06,0 -12.61,-2.08 -16.68,-6.24 -4.07,-4.16 -6.11,-9.97 -6.11,-17.48 v -1.23 h 45.59 v -5.58 c 0,-4.16 -0.61,-7.96 -1.83,-11.4 -1.22,-3.44 -2.96,-6.36 -5.22,-8.81 -2.26,-2.44 -4.95,-4.3 -8.07,-5.61 -3.12,-1.31 -6.65,-2 -10.54,-2 z m 58.75,0 c -3.25,0 -6.2,0.44 -8.87,1.3 -2.67,0.86 -5.02,2.05 -7.01,3.59 -1.99,1.54 -3.5,3.41 -4.59,5.58 -1.08,2.17 -1.63,4.56 -1.63,7.18 0,4.25 1.34,7.77 4.06,10.53 2.71,2.76 6.88,5.04 12.49,6.85 l 4.32,1.36 c 4.53,1.45 7.8,3.01 9.84,4.69 2.03,1.67 3.06,3.95 3.06,6.84 0,3.44 -1.28,6.05 -3.86,7.81 -2.58,1.76 -6.19,2.62 -10.8,2.62 -3.35,0 -6.4,-0.31 -9.2,-0.99 -2.81,-0.68 -5.44,-1.66 -7.88,-2.93 l -2.46,7.45 c 2.54,1.26 5.54,2.24 8.97,2.92 3.44,0.68 7.2,1.03 11.27,1.03 7.6,0 13.41,-1.75 17.48,-5.28 4.07,-3.53 6.11,-8.03 6.11,-13.46 0,-4.61 -1.44,-8.37 -4.38,-11.27 -2.94,-2.89 -7.22,-5.19 -12.83,-6.91 l -4.09,-1.23 c -4.88,-1.44 -8.2,-2.89 -9.97,-4.38 -1.76,-1.5 -2.66,-3.56 -2.66,-6.18 0.01,-2.9 1.17,-5.24 3.43,-7.05 2.26,-1.81 5.69,-2.72 10.3,-2.72 2.62,0 5.11,0.25 7.51,0.8 2.4,0.54 4.92,1.45 7.54,2.72 l 2.29,-7.31 c -2.8,-1.27 -5.81,-2.18 -9.07,-2.73 -3.25,-0.54 -6.38,-0.83 -9.37,-0.83 z m -511.26,0.83 v 63.77 h 9.504 v -63.77 z m 171.794,0 v 42.6 c 10e-4,7.6 2.011,13.22 6.081,16.88 4.071,3.67 9.413,5.52 16.017,5.52 4.703,0 8.833,-0.91 12.361,-2.72 3.528,-1.81 6.454,-3.98 8.806,-6.52 h 0.432 l 1.329,8.01 h 7.21 v -63.77 h -9.503 v 48.15 c -2.171,2.72 -4.864,4.96 -8.075,6.68 -3.211,1.72 -6.777,2.56 -10.666,2.56 -2.081,0 -3.985,-0.23 -5.749,-0.73 -1.764,-0.5 -3.307,-1.39 -4.619,-2.66 -1.311,-1.26 -2.333,-2.94 -3.057,-5.02 -0.723,-2.08 -1.063,-4.7 -1.063,-7.87 v -41.11 z m 224.956,0 v 63.77 h 9.51 v -63.77 z m 55.23,6.38 c 2.9,0 5.36,0.53 7.44,1.57 2.09,1.04 3.78,2.42 5.09,4.18 1.31,1.77 2.29,3.81 2.92,6.12 0.64,2.3 0.97,4.74 0.97,7.27 l -35.56,0.14 c 0.73,-5.97 2.79,-10.69 6.18,-14.12 3.39,-3.44 7.71,-5.16 12.96,-5.16 z m -324.148,0.14 c 2.895,0 5.694,0.65 8.407,1.96 2.714,1.31 5.055,3.13 7.045,5.48 v 35.29 c -1.809,2.62 -4.065,4.67 -6.779,6.11 -2.713,1.45 -5.927,2.16 -9.636,2.16 -2.533,0 -4.98,-0.47 -7.377,-1.42 -2.397,-0.95 -4.547,-2.44 -6.446,-4.52 -1.9,-2.08 -3.422,-4.76 -4.553,-8.01 -1.13,-3.26 -1.694,-7.26 -1.694,-11.96 -0.001,-4.53 0.585,-8.39 1.761,-11.6 1.176,-3.21 2.74,-5.82 4.685,-7.81 1.945,-1.99 4.179,-3.42 6.712,-4.32 2.533,-0.9 5.162,-1.36 7.875,-1.36 z"
   fill="#3395ff"
   fill-rule="nonzero"
   opacity="1"
   stroke="none"
   vectornator:layerName="Curve 4"
   id="path92" />
<path
   d="m 1202.34,1763.84 c -0.95,-0.03 -1.94,0.24 -2.86,0.87 l -38.31,26.08 c -2.82,1.92 -2.85,6.08 -0.03,8.01 0.28,0.2 5.18,3.56 9.2,6.31 l -62.68,85.98 7.88,5.65 62.81,-86.14 c 4.58,3.13 9.78,6.69 10.1,6.91 2.8,1.92 6.63,0.47 7.44,-2.83 l 11.04,-44.79 c 0.79,-3.24 -1.73,-5.96 -4.59,-6.05 z"
   fill="#3395ff"
   fill-rule="nonzero"
   opacity="1"
   stroke="none"
   vectornator:layerName="Curve 5"
   id="path94" />
</g>
</g>
<g
   opacity="1"
   vectornator:layerName="Group 3"
   id="g106">
<path
   d="m 699.941,663.555 v 350.815 h 34.011 V 663.555 Z m 128.881,11.913 c -6.588,0 -12.041,2.2 -16.488,6.647 -4.447,4.446 -6.733,10.089 -6.733,17.006 0,6.916 2.287,12.551 6.733,16.833 4.447,4.282 9.9,6.388 16.488,6.388 6.258,0 11.704,-2.012 16.315,-6.129 4.611,-4.118 6.906,-9.846 6.906,-17.092 0,-7.246 -2.389,-12.983 -7.165,-17.265 -4.776,-4.282 -10.127,-6.388 -16.056,-6.388 z M 119.413,779.229 c -11.857,0 -22.6545,1.532 -32.3712,4.661 -9.7167,3.129 -18.2191,7.522 -25.4655,13.122 -7.2464,5.599 -12.8805,12.294 -16.8331,20.199 -3.9527,7.906 -5.87,16.691 -5.87,26.243 0,15.48 4.88,28.195 14.7614,38.241 9.8811,10.046 25.071,18.36 45.4926,24.948 l 15.7968,5.007 c 16.469,5.27 28.414,10.912 35.825,17.005 7.411,6.094 11.136,14.408 11.136,24.948 -0.001,12.517 -4.684,21.978 -14.071,28.4 -9.387,6.423 -22.479,9.669 -39.278,9.669 -12.1865,0 -23.455,-1.242 -33.6658,-3.712 -10.2108,-2.47 -19.7662,-6.007 -28.6595,-10.618 l -8.8913,27.188 c 9.2224,4.62 20.1139,8.15 32.6303,10.62 12.5165,2.47 26.1818,3.71 41.0043,3.71 27.667,0 48.971,-6.49 63.793,-19.333 14.822,-12.845 22.185,-29.096 22.185,-48.859 0,-16.799 -5.351,-30.464 -16.056,-41.004 -10.705,-10.539 -26.28,-18.948 -46.701,-25.206 l -14.762,-4.489 c -17.786,-5.27 -29.9191,-10.622 -36.342,-16.056 -6.4231,-5.435 -9.6683,-12.893 -9.6683,-22.445 1e-4,-10.54 4.1098,-19.136 12.3443,-25.724 8.2344,-6.587 20.752,-9.841 37.551,-9.841 9.552,0 18.722,0.959 27.451,2.935 8.728,1.976 17.899,5.316 27.451,9.927 l 8.373,-26.76 c -10.21,-4.612 -21.291,-7.865 -33.148,-9.841 -11.858,-1.976 -23.142,-2.935 -34.012,-2.935 z m 233.161,0 c -17.128,0 -32.797,2.68 -46.96,8.114 -14.163,5.435 -26.399,13.364 -36.774,23.739 -10.376,10.376 -18.493,22.988 -24.257,37.81 -5.764,14.822 -8.633,31.45 -8.633,49.895 0,20.092 3.057,37.585 9.151,52.572 6.093,14.987 14.501,27.504 25.206,37.55 10.705,10.046 23.129,17.591 37.292,22.531 14.163,4.94 29.353,7.42 45.493,7.42 24.044,0 44.971,-4.48 62.757,-13.38 l -7.424,-25.203 c -7.575,3.624 -15.504,6.586 -23.739,8.891 -8.234,2.306 -17.601,3.453 -28.141,3.453 -10.541,0 -20.952,-1.532 -31.163,-4.661 -10.211,-3.129 -19.287,-8.386 -27.192,-15.797 -7.905,-7.412 -14.31,-17.25 -19.25,-29.437 -4.941,-12.187 -7.424,-27.29 -7.424,-45.406 0,-28.657 7.834,-51.107 23.48,-67.246 15.645,-16.14 36.289,-24.171 61.98,-24.171 8.564,-10e-4 16.964,0.864 25.034,2.676 8.07,1.812 16.384,5.057 24.948,9.668 l 7.855,-26.674 c -11.858,-5.27 -22.655,-8.704 -32.371,-10.186 -9.717,-1.482 -19.657,-2.158 -29.868,-2.158 z m 195.609,0 c -15.81,0 -30.151,1.823 -43.161,5.611 -13.011,3.788 -27.25,9.807 -42.731,18.042 l 13.294,24.775 c 14.163,-7.906 27.067,-13.257 38.759,-16.057 11.693,-2.799 22.2,-4.229 31.422,-4.229 15.152,0 27.293,3.826 36.515,11.567 9.223,7.74 13.898,21.5 13.898,41.263 v 17.351 h -46.96 c -15.48,0 -29.531,1.532 -42.212,4.661 -12.681,3.129 -23.572,7.813 -32.63,14.071 -9.058,6.258 -16.036,13.998 -20.977,23.221 -4.941,9.224 -7.424,19.925 -7.424,32.113 0,10.21 1.91,19.475 5.697,27.709 3.789,8.235 9.045,15.307 15.798,21.233 6.752,5.93 14.783,10.43 24.17,13.56 9.388,3.12 19.517,4.74 30.386,4.74 15.152,0 29.1,-2.57 41.781,-7.68 12.681,-5.1 23.958,-13.418 33.839,-24.947 h 0.949 l 5.439,28.137 h 26.674 V 863.222 c 0,-15.811 -2.012,-29.09 -6.129,-39.795 -4.117,-10.705 -9.94,-19.396 -17.351,-25.984 -7.411,-6.588 -16.11,-11.271 -26.156,-14.07 -10.046,-2.8 -21.032,-4.144 -32.89,-4.144 z m 485.227,0 c -16.47,0 -31.09,3.065 -43.767,9.323 -12.681,6.258 -24.728,14.855 -36.256,25.724 l -5.438,-32.112 h -26.243 v 232.206 h 34.616 V 840.433 c 9.552,-10.54 20.255,-18.666 32.113,-24.43 11.855,-5.764 23.515,-8.632 35.045,-8.632 18.45,-10e-4 31.63,4.974 39.54,15.02 7.9,10.046 11.91,22.847 11.91,38.328 v 153.651 h 34.53 V 854.331 c 0,-23.716 -6.69,-42.159 -20.2,-55.334 -13.5,-13.175 -32.14,-19.768 -55.85,-19.768 z m 230.22,0 c -13.5,-0.001 -26.02,1.721 -37.55,5.179 -11.52,3.459 -21.37,8.527 -29.61,15.28 -8.23,6.752 -14.72,15.16 -19.33,25.206 -4.61,10.047 -6.91,21.511 -6.91,34.357 0,17.786 4.1,32.411 12.17,43.939 8.07,11.528 18.01,20.125 29.87,25.724 -9.55,4.282 -17.38,9.924 -23.48,17.006 -6.09,7.083 -9.15,15.961 -9.15,26.502 0,8.563 1.72,15.541 5.18,20.976 3.46,5.436 8.14,9.932 14.07,13.552 -12.84,4.61 -22.97,11.02 -30.38,19.25 -7.41,8.24 -11.14,18.46 -11.14,30.65 0,22.72 9.74,40.3 29.18,52.65 19.43,12.35 45.61,18.48 78.55,18.48 36.23,0 64.9,-7.08 85.98,-21.24 21.08,-14.16 31.6,-33.56 31.6,-58.27 0,-18.77 -6.7,-33.77 -20.2,-44.97 -13.51,-11.201 -33.1,-16.749 -58.79,-16.749 h -60.77 c -9.23,0 -16.77,-1.713 -22.53,-5.006 -5.77,-3.294 -8.64,-8.842 -8.64,-16.747 0,-5.6 2.1,-10.951 6.22,-16.057 4.12,-5.105 9.95,-9.018 17.52,-11.653 4.61,0.658 9.11,1.138 13.56,1.467 4.44,0.33 9.02,0.518 13.64,0.518 13.17,10e-4 25.31,-1.721 36.51,-5.179 11.2,-3.459 20.85,-8.622 28.92,-15.538 8.07,-6.917 14.38,-15.42 18.99,-25.466 4.61,-10.046 6.91,-21.511 6.91,-34.357 0,-10.87 -2.4,-21.187 -7.34,-30.904 -4.94,-9.716 -11.54,-17.653 -19.77,-23.911 l 41.44,4.402 h 21.75 v -26.156 h -98.32 c -4.29,-0.659 -8.59,-1.327 -13.04,-1.985 -4.44,-0.659 -9.51,-0.95 -15.11,-0.95 z m 544.02,0 v 348.751 h 34.01 v -125.43 c 6.92,4.94 15.23,8.86 24.95,11.82 9.71,2.97 19.84,4.49 30.38,4.49 14.17,0 28.11,-2.48 41.78,-7.42 13.67,-4.94 25.9,-12.587 36.6,-22.962 10.71,-10.376 19.22,-23.467 25.64,-39.278 6.42,-15.811 9.67,-34.63 9.67,-56.369 0,-18.116 -2.39,-34.264 -7.16,-48.428 -4.78,-14.163 -11.56,-26.107 -20.29,-35.824 -8.73,-9.716 -19.15,-16.986 -31.34,-21.926 -12.18,-4.941 -25.75,-7.424 -40.57,-7.424 -15.81,-0.001 -29.38,2.962 -40.74,8.891 -11.37,5.93 -21.12,12.813 -29.35,20.718 l -5.01,-29.609 z m -996.093,2.935 v 232.206 h 34.616 V 782.164 Z m 734.703,0 v 155.124 c 0,27.668 7.36,48.209 22.18,61.549 14.83,13.343 34.31,20.023 58.36,20.023 17.13,0 32.13,-3.34 44.97,-9.92 12.85,-6.59 23.55,-14.52 32.12,-23.743 h 1.46 l 4.92,29.173 h 26.16 V 782.164 h -34.53 v 175.41 c -7.9,9.881 -17.74,17.912 -29.44,24.171 -11.69,6.258 -24.59,9.409 -38.76,9.409 -7.57,0 -14.55,-0.865 -20.97,-2.676 -6.42,-1.812 -12.06,-5.057 -16.84,-9.668 -4.77,-4.612 -8.5,-10.725 -11.13,-18.301 -2.64,-7.576 -3.97,-17.131 -3.97,-28.66 V 782.164 Z m -282.63,22.703 c 16.47,0 29.75,4.676 39.8,13.898 10.05,9.223 15.02,22.99 15.02,41.436 0,17.787 -5.16,31.161 -15.54,40.054 -10.37,8.893 -23.76,13.294 -40.22,13.294 -16.47,0 -30.13,-4.495 -40.84,-13.553 -10.7,-9.059 -16.05,-23.006 -16.05,-41.781 0,-17.786 5.44,-31.074 16.31,-39.968 10.87,-8.893 24.73,-13.38 41.52,-13.38 z m 640.35,2.504 c 24.05,0 41.82,7.551 53.35,22.703 11.53,15.151 17.27,36.266 17.27,63.275 0,18.115 -2.39,33.408 -7.17,45.924 -4.77,12.517 -10.98,22.646 -18.56,30.386 -7.57,7.74 -16.27,13.375 -26.15,16.833 -9.88,3.459 -19.92,5.18 -30.13,5.18 -8.89,0 -17.69,-1.336 -26.42,-3.971 -8.72,-2.636 -16.94,-6.745 -24.51,-12.344 V 839.483 c 2.63,-3.623 6.07,-7.348 10.18,-11.136 4.12,-3.788 8.81,-7.23 14.08,-10.359 5.27,-3.129 11.1,-5.706 17.52,-7.682 6.42,-1.976 13.3,-2.935 20.54,-2.935 z M 596.179,902.758 v 54.298 c -8.563,12.516 -18.787,21.498 -30.645,26.933 -11.858,5.435 -23.605,8.114 -35.133,8.114 -13.175,0.001 -24.46,-3.064 -34.012,-9.323 -9.552,-6.259 -14.33,-17.149 -14.33,-32.63 0,-12.846 5.737,-23.737 17.265,-32.63 11.528,-8.894 30.93,-13.671 58.269,-14.33 z m 624.471,111.612 h 70.69 c 8.24,0 15.79,0.48 22.71,1.47 6.91,0.99 12.93,2.9 18.04,5.7 5.11,2.8 9.03,6.62 11.83,11.39 2.8,4.78 4.23,10.8 4.23,18.05 0,5.93 -1.53,11.85 -4.49,17.78 -2.97,5.93 -7.75,11.28 -14.33,16.06 -6.59,4.77 -15.09,8.5 -25.47,11.3 -10.37,2.8 -22.8,4.23 -37.29,4.23 -23.72,0 -42.06,-4.01 -55.07,-12.08 -13.01,-8.07 -19.51,-20.2 -19.51,-36.34 0,-8.57 2.57,-16.03 7.68,-22.45 5.1,-6.42 12.08,-11.48 20.98,-15.11 z"
   fill="#3395ff"
   fill-rule="nonzero"
   opacity="1"
   stroke="none"
   vectornator:layerName="Curve 3"
   id="path100" />
<path
   d="m 712.112,1131 v 98.32 c -6.11,-5.4 -12.994,-9.41 -20.631,-12 -7.637,-2.58 -15.735,-3.88 -24.43,-3.88 -11.749,0 -22.312,2.05 -31.594,6.04 -9.283,3.99 -17.104,9.69 -23.567,17.09 -6.462,7.4 -11.44,16.36 -14.847,26.94 -3.407,10.57 -5.093,22.38 -5.093,35.3 0,14.57 2.016,27.12 6.129,37.81 4.112,10.69 9.586,19.63 16.401,26.68 6.815,7.05 14.502,12.35 22.962,15.88 8.46,3.52 17.14,5.26 26.07,5.26 11.515,0 20.967,-1.68 28.487,-5.09 7.52,-3.41 14.349,-8.44 20.459,-15.02 h 0.69 l 3.194,16.92 h 20.459 V 1131 Z m -359.884,8.46 c -4.699,0 -8.654,1.57 -11.826,4.75 -3.173,3.17 -4.748,7.23 -4.748,12.17 0,4.93 1.576,8.94 4.748,12 3.173,3.05 7.127,4.57 11.826,4.57 4.465,0 8.364,-1.46 11.654,-4.4 3.29,-2.94 4.921,-7 4.921,-12.17 0,-5.17 -1.686,-9.29 -5.093,-12.35 -3.408,-3.05 -7.252,-4.57 -11.482,-4.57 z m 1030.702,0 c -4.7,0 -8.65,1.57 -11.82,4.75 -3.17,3.17 -4.75,7.23 -4.75,12.17 0,4.93 1.58,8.94 4.75,12 3.17,3.05 7.12,4.57 11.82,4.57 4.47,0 8.37,-1.46 11.66,-4.4 3.29,-2.94 4.92,-7 4.92,-12.17 0,-5.17 -1.77,-9.29 -5.18,-12.35 -3.41,-3.05 -7.17,-4.57 -11.4,-4.57 z m -260.18,23.22 v 52.92 h -27.1 v 18.64 h 27.1 v 105.75 c 0,27.49 15.07,41.26 45.15,41.26 8.23,0 15.83,-0.66 22.88,-2.07 7.05,-1.41 12.99,-3.13 17.69,-5.01 l -3.88,-18.64 c -4.23,1.41 -9.21,2.71 -14.85,3.88 -5.64,1.18 -11.39,1.73 -17.26,1.73 -7.52,0 -13.55,-1.63 -18.13,-4.92 -4.58,-3.29 -6.91,-9.7 -6.91,-19.34 v -102.64 h 52.14 v -18.64 h -52.14 v -52.92 z m -624.548,50.76 c -11.75,0 -22.202,2.27 -31.249,6.73 -9.047,4.47 -17.673,10.55 -25.897,18.3 l -3.885,-22.87 h -18.646 v 165.65 h 24.689 V 1257.2 c 6.814,-7.52 14.416,-13.32 22.876,-17.43 8.459,-4.12 16.809,-6.22 25.033,-6.22 13.16,0 22.588,3.62 28.228,10.79 5.64,7.17 8.46,16.24 8.46,27.28 v 109.63 h 24.602 v -114.21 c 0,-16.92 -4.781,-30.05 -14.416,-39.45 -9.635,-9.39 -22.876,-14.15 -39.795,-14.15 z m 521.308,0 c -8.46,0 -16.2,1.13 -23.134,3.36 -6.932,2.24 -12.958,5.33 -18.128,9.33 -5.169,3.99 -9.179,8.86 -11.999,14.5 -2.819,5.64 -4.229,11.83 -4.229,18.65 -10e-4,11.04 3.568,20.19 10.617,27.36 7.05,7.17 17.802,13.08 32.373,17.78 l 11.31,3.54 c 11.75,3.76 20.26,7.83 25.55,12.17 5.29,4.35 7.94,10.27 7.94,17.79 0,8.93 -3.32,15.7 -10.01,20.28 -6.7,4.59 -16.07,6.82 -28.06,6.82 -8.69,0 -16.711,-0.83 -23.996,-2.59 -7.285,-1.76 -14.028,-4.3 -20.372,-7.59 l -6.388,19.33 c 6.579,3.29 14.377,5.84 23.307,7.6 8.93,1.76 18.599,2.67 29.179,2.67 19.74,0.01 34.92,-4.56 45.49,-13.72 10.58,-9.16 15.88,-20.86 15.88,-34.96 0,-11.99 -3.84,-21.75 -11.48,-29.27 -7.63,-7.51 -18.75,-13.49 -33.32,-17.95 l -10.53,-3.19 c -12.69,-3.76 -21.314,-7.52 -25.896,-11.4 -4.582,-3.88 -6.906,-9.24 -6.906,-16.06 0,-7.51 2.93,-13.6 8.805,-18.3 5.877,-4.7 14.867,-7.07 26.847,-7.07 6.81,0 13.28,0.66 19.51,2.07 6.23,1.41 12.78,3.79 19.59,7.08 l 5.96,-19 c -7.28,-3.29 -15.11,-5.66 -23.57,-7.07 -8.46,-1.41 -16.58,-2.16 -24.34,-2.16 z m 295.4,0 c -11.98,0 -22.71,3.29 -32.11,9.75 -9.4,6.46 -16.12,14.98 -20.11,25.55 l -4.58,-33.14 h -17.61 v 165.65 h 24.34 v -88.83 c 0,-9.4 1.3,-17.75 3.89,-25.03 2.58,-7.28 6.06,-13.26 10.53,-17.96 4.46,-4.7 9.66,-8.32 15.54,-10.79 5.87,-2.46 12.17,-3.71 18.99,-3.71 4.7,0 8.82,0.53 12.34,1.47 3.53,0.94 6.77,2.13 9.59,3.54 l 4.57,-21.93 c -2.58,-1.17 -6.04,-2.17 -10.27,-3.1 -4.23,-0.94 -9.23,-1.47 -15.11,-1.47 z m 200.53,0 c -11.75,0 -22.34,2.05 -31.85,6.04 -9.52,3.99 -17.65,9.69 -24.35,17.09 -6.69,7.4 -11.95,16.36 -15.71,26.94 -3.76,10.57 -5.61,22.38 -5.61,35.3 0,15.04 2.18,27.95 6.65,38.76 4.46,10.81 10.58,19.66 18.21,26.59 7.64,6.93 16.49,12.07 26.59,15.36 10.11,3.29 20.94,4.92 32.46,4.92 9.87,0 19.16,-0.91 27.97,-2.67 8.81,-1.76 16.55,-4 23.13,-6.82 l -5.35,-18.39 c -7.52,3.06 -14.79,5.27 -21.84,6.56 -7.05,1.3 -14.65,1.9 -22.87,1.9 -18.33,0 -32.76,-5.42 -43.34,-16.23 -10.57,-10.81 -15.88,-25.9 -15.88,-45.4 v -3.2 h 118.43 v -14.5 c 0,-10.81 -1.57,-20.68 -4.74,-29.61 -3.18,-8.93 -7.68,-16.53 -13.56,-22.87 -5.87,-6.35 -12.87,-11.19 -20.97,-14.59 -8.11,-3.41 -17.26,-5.18 -27.37,-5.18 z m 152.62,0 c -8.46,0 -16.11,1.13 -23.05,3.36 -6.93,2.24 -13.04,5.33 -18.21,9.33 -5.17,3.99 -9.09,8.86 -11.91,14.5 -2.82,5.64 -4.23,11.83 -4.23,18.65 0,11.04 3.48,20.19 10.53,27.36 7.05,7.17 17.89,13.08 32.46,17.78 l 11.22,3.54 c 11.75,3.76 20.26,7.83 25.55,12.17 5.29,4.35 7.94,10.27 7.94,17.79 0,8.93 -3.32,15.7 -10.01,20.28 -6.7,4.59 -16.07,6.82 -28.06,6.82 -8.69,0 -16.62,-0.83 -23.91,-2.59 -7.28,-1.76 -14.11,-4.3 -20.46,-7.59 l -6.39,19.33 c 6.58,3.29 14.38,5.84 23.31,7.6 8.93,1.76 18.69,2.67 29.27,2.67 19.73,0.01 34.83,-4.56 45.4,-13.72 10.58,-9.16 15.89,-20.86 15.89,-34.96 0,-11.99 -3.76,-21.75 -11.4,-29.27 -7.64,-7.51 -18.75,-13.49 -33.32,-17.95 l -10.62,-3.19 c -12.69,-3.76 -21.31,-7.52 -25.9,-11.4 -4.58,-3.88 -6.9,-9.24 -6.9,-16.06 0,-7.51 3.02,-13.6 8.89,-18.3 5.87,-4.7 14.78,-7.07 26.76,-7.07 6.81,0 13.28,0.66 19.51,2.07 6.23,1.41 12.78,3.79 19.59,7.08 l 5.96,-19 c -7.28,-3.29 -15.11,-5.66 -23.57,-7.07 -8.45,-1.41 -16.58,-2.16 -24.34,-2.16 z m -1328.176,2.16 v 165.65 h 24.689 V 1215.6 Z m 446.294,0 v 110.66 c 0,19.74 5.223,34.34 15.797,43.86 10.575,9.51 24.454,14.32 41.608,14.32 12.22,0.01 22.948,-2.37 32.113,-7.07 9.164,-4.7 16.766,-10.34 22.876,-16.92 h 1.122 l 3.453,20.8 h 18.732 V 1215.6 H 897.19 v 125.08 c -5.639,7.05 -12.634,12.88 -20.976,17.35 -8.343,4.46 -17.606,6.65 -27.71,6.65 -5.405,0 -10.352,-0.61 -14.934,-1.9 -4.583,-1.29 -8.592,-3.62 -11.999,-6.91 -3.407,-3.29 -6.062,-7.63 -7.942,-13.03 -1.88,-5.41 -2.762,-12.24 -2.762,-20.46 V 1215.6 Z m 584.412,0 v 165.65 h 24.69 V 1215.6 Z m 143.47,16.57 c 7.52,0 13.93,1.35 19.34,4.06 5.4,2.7 9.8,6.29 13.2,10.87 3.41,4.59 5.96,9.9 7.6,15.89 1.65,5.99 2.5,12.32 2.5,18.9 l -92.36,0.35 c 1.88,-15.51 7.24,-27.76 16.05,-36.69 8.82,-8.93 20.04,-13.38 33.67,-13.38 z m -842.088,0.35 c 7.519,0 14.79,1.68 21.84,5.09 7.05,3.41 13.13,8.13 18.3,14.24 v 91.68 c -4.699,6.81 -10.56,12.12 -17.61,15.88 -7.05,3.76 -15.399,5.61 -25.034,5.61 -6.58,0 -12.936,-1.24 -19.164,-3.71 -6.227,-2.47 -11.812,-6.34 -16.746,-11.74 -4.935,-5.41 -8.889,-12.34 -11.827,-20.8 -2.937,-8.46 -4.402,-18.86 -4.402,-31.08 0,-11.75 1.52,-21.79 4.575,-30.13 3.055,-8.34 7.119,-15.11 12.172,-20.28 5.052,-5.17 10.857,-8.88 17.437,-11.23 6.579,-2.35 13.409,-3.53 20.459,-3.53 z"
   fill="#3395ff"
   fill-rule="nonzero"
   opacity="1"
   stroke="none"
   vectornator:layerName="Curve 4"
   id="path102" />
<path
   d="m 1487.56,774.115 c -2.48,-0.078 -5.04,0.619 -7.43,2.244 l -99.53,67.764 c -7.33,4.991 -7.4,15.787 -0.08,20.804 0.74,0.513 13.47,9.253 23.91,16.402 l -162.84,223.361 20.46,14.67 163.18,-223.788 c 11.9,8.151 25.43,17.394 26.25,17.956 7.26,4.98 17.23,1.214 19.33,-7.338 l 28.66,-116.364 c 2.07,-8.416 -4.49,-15.477 -11.91,-15.711 z"
   fill="#3395ff"
   fill-rule="nonzero"
   opacity="1"
   stroke="none"
   vectornator:layerName="Curve 5"
   id="path104" />
</g>
</g>
<g
   id="Layer-1-copy"
   vectornator:layerName="Layer 1 copy"
   style="display:none">
<path
   d="m 1047.06,62.2951 c -96.659,0 -184.129,14.4824 -262.261,43.4799 -78.131,28.997 -144.205,69.663 -198.172,122.019 -53.967,52.356 -95.861,115.197 -125.664,188.496 -29.802,73.299 -44.61,155.082 -44.61,245.296 0,90.213 14.031,164.63 42.223,223.43 28.192,58.8 65.3,107.609 111.212,146.274 45.913,38.66 98.28,69.63 157.08,92.99 33.544,13.33 67.582,25.81 101.913,37.82 L 1130.25,789.511 c -2.41,-0.696 -4.75,-1.571 -7.16,-2.262 -39.47,-11.276 -74.9,-24.657 -106.32,-39.961 -31.409,-15.304 -56.69,-33.344 -76.022,-54.286 -19.332,-20.943 -29.029,-47.578 -29.029,-79.797 0,-46.718 19.268,-84.603 57.931,-113.6 38.66,-28.997 88.57,-43.48 149.79,-43.48 46.98,0 95.62,9.627 145.65,28.652 l 325.72,-285.76 C 1507.13,156.181 1420.19,122.742 1329.68,99.7429 1231.41,74.773 1137.27,62.2951 1047.06,62.2951 Z m 83.19,727.2159 c 6.97,2.012 13.79,4.347 20.73,6.409 l 211.24,-261.003 c -5.68,-3.66 -11.4,-7.538 -17.09,-10.933 z m 214.88,-265.527 230.72,-285.131 -290.28,254.595 c 19.87,8.705 39.68,18.653 59.56,30.536 z m 17.09,10.933 c 20.59,13.257 41.12,27.759 61.7,44.485 L 1590.3,253.053 Z m -211.24,261.003 -301.967,373.1 c 19.222,6.55 38.339,13.2 57.806,19.35 51.55,17.72 95.451,33.75 131.691,48.25 36.25,14.5 65.67,30.21 88.22,47.13 22.55,16.91 38.71,35.4 48.38,55.54 9.67,20.14 14.45,43.99 14.45,71.38 0,45.1 -18.94,85.32 -56.8,120.76 -37.86,35.44 -95.46,53.16 -172.786,53.16 -67.66,0 -136.063,-15.26 -205.334,-45.87 -21.761,-9.62 -43.656,-21.09 -65.597,-34.06 l -328.359,288.03 c 191.25,128.25 398.09,193.02 621.03,193.01 111.156,0 210.656,-14.8 298.456,-44.61 87.79,-29.8 161.88,-71.69 222.29,-125.66 60.42,-53.97 106.32,-118.81 137.73,-194.53 31.42,-75.71 47.13,-160.28 47.13,-253.71 0,-138.54 -35.76,-250.97 -107.45,-337.16 -71.68,-86.185 -184.89,-155.039 -339.54,-206.589 -29.46,-9.82 -59.42,-18.637 -89.35,-27.521 z m -301.967,373.1 c -6.741,-2.3 -13.52,-4.57 -20.232,-6.92 l -228.582,282.5 c 5.437,4.19 10.783,7.81 16.211,11.81 z M 616.41,1456.41 378.905,1749.96 671.199,1493.61 c -18.221,-11.46 -36.476,-23.7 -54.789,-37.2 z m -16.211,-11.81 c -18.541,-14.31 -37.142,-29.46 -55.795,-46 l -178.065,335.02 z"
   fill="#000000"
   fill-rule="nonzero"
   opacity="1"
   stroke="none"
   vectornator:layerName="Curve 1"
   id="path109" />
<g
   opacity="0"
   vectornator:layerName="Group 2"
   id="g121">
<path
   d="m 1043.32,49.2192 c -80.982,0 -154.266,12.1335 -219.726,36.4278 -65.459,24.294 -120.816,58.365 -166.03,102.23 -45.215,43.864 -80.314,96.513 -105.283,157.924 -24.969,61.41 -37.376,129.929 -37.376,205.511 10e-4,75.583 11.756,137.93 35.375,187.193 23.62,49.263 54.71,90.157 93.176,122.549 38.466,32.393 82.34,58.339 131.603,77.909 28.104,11.165 56.621,21.624 85.384,31.69 L 1113.02,658.49 c -2.03,-0.583 -3.98,-1.317 -6,-1.895 -33.07,-9.448 -62.75,-20.658 -89.07,-33.48 -26.323,-12.822 -47.503,-27.936 -63.7,-45.482 -16.196,-17.546 -24.32,-39.861 -24.32,-66.854 0,-39.141 16.143,-70.882 48.535,-95.176 32.395,-24.294 74.205,-36.428 125.495,-36.428 39.36,0 80.11,8.065 122.02,24.005 l 272.9,-239.413 C 1428.78,127.878 1355.93,99.862 1280.1,80.5935 1197.77,59.6734 1118.9,49.2192 1043.32,49.2192 Z m 69.7,609.2708 c 5.84,1.686 11.55,3.642 17.37,5.37 l 176.98,-218.673 c -4.76,-3.065 -9.56,-6.315 -14.32,-9.159 z m 180.03,-222.462 193.3,-238.887 -243.2,213.303 c 16.64,7.294 33.24,15.628 49.9,25.584 z m 14.32,9.159 c 17.25,11.108 34.45,23.258 51.69,37.271 l 139.4,-273.42 z M 1130.39,663.86 877.394,976.444 c 16.104,5.491 32.12,11.063 48.43,16.214 43.19,14.842 79.966,28.282 110.336,40.432 30.37,12.14 55.01,25.3 73.91,39.48 18.89,14.17 32.43,29.66 40.53,46.53 8.1,16.87 12.11,36.86 12.11,59.8 0,37.79 -15.87,71.49 -47.59,101.18 -31.72,29.69 -79.98,44.53 -144.762,44.53 -56.686,0 -113.995,-12.78 -172.031,-38.42 -18.232,-8.06 -36.576,-17.68 -54.958,-28.54 l -275.104,241.31 c 160.232,107.46 333.525,161.72 520.307,161.72 93.128,0 176.488,-12.41 250.048,-37.38 73.56,-24.97 135.63,-60.07 186.24,-105.28 50.62,-45.22 89.07,-99.54 115.39,-162.98 26.32,-63.43 39.48,-134.28 39.48,-212.57 0,-116.07 -29.95,-210.261 -90.01,-282.469 -60.06,-72.208 -154.91,-129.895 -284.48,-173.084 -24.68,-8.227 -49.78,-15.614 -74.85,-23.057 z M 877.394,976.444 c -5.648,-1.926 -11.328,-3.823 -16.951,-5.791 L 668.934,1207.33 c 4.556,3.51 9.034,6.54 13.582,9.9 z M 682.516,1217.23 483.531,1463.17 728.419,1248.39 c -15.266,-9.6 -30.56,-19.85 -45.903,-31.16 z m -13.582,-9.9 c -15.534,-11.98 -31.118,-24.68 -46.745,-38.53 l -149.186,280.68 z"
   fill="#000000"
   fill-rule="nonzero"
   opacity="1"
   stroke="none"
   vectornator:layerName="Curve 2"
   id="path111" />
<g
   opacity="1"
   vectornator:layerName="Group 2"
   id="g119">
<path
   d="m 899.159,1721.29 v 135.04 h 13.092 v -135.04 z m 49.611,4.58 c -2.536,0 -4.636,0.85 -6.347,2.56 -1.712,1.71 -2.592,3.88 -2.592,6.55 0,2.66 0.88,4.83 2.592,6.48 1.711,1.64 3.811,2.45 6.347,2.45 2.408,0 4.505,-0.77 6.28,-2.35 1.775,-1.59 2.658,-3.79 2.658,-6.58 0,-2.79 -0.919,-5 -2.758,-6.65 -1.838,-1.65 -3.898,-2.46 -6.18,-2.46 z m -273.076,39.94 c -4.565,0 -8.721,0.59 -12.461,1.8 -3.741,1.2 -7.013,2.89 -9.803,5.05 -2.789,2.15 -4.958,4.73 -6.479,7.77 -1.522,3.05 -2.26,6.43 -2.26,10.1 0,5.96 1.878,10.86 5.682,14.73 3.804,3.86 9.651,7.06 17.512,9.6 l 6.081,1.93 c 6.339,2.02 10.937,4.2 13.79,6.54 2.853,2.35 4.286,5.55 4.286,9.6 0,4.82 -1.803,8.46 -5.416,10.94 -3.613,2.47 -8.653,3.72 -15.119,3.72 -4.691,0 -9.029,-0.48 -12.96,-1.43 -3.93,-0.95 -7.608,-2.31 -11.032,-4.09 l -3.422,10.47 c 3.55,1.78 7.742,3.14 12.56,4.09 4.818,0.95 10.079,1.43 15.784,1.43 10.651,0 18.851,-2.5 24.556,-7.45 5.706,-4.94 8.54,-11.2 8.54,-18.8 0,-6.47 -2.06,-11.73 -6.18,-15.79 -4.121,-4.06 -10.116,-7.29 -17.977,-9.7 l -5.682,-1.73 c -6.847,-2.03 -11.517,-4.09 -13.99,-6.18 -2.472,-2.09 -3.721,-4.96 -3.721,-8.64 0,-4.06 1.582,-7.37 4.751,-9.9 3.17,-2.54 7.989,-3.79 14.455,-3.79 3.677,0 7.207,0.37 10.567,1.13 3.36,0.76 6.89,2.05 10.567,3.82 l 3.223,-10.3 c -3.931,-1.78 -8.196,-3.03 -12.76,-3.79 -4.565,-0.76 -8.908,-1.13 -13.092,-1.13 z m 89.751,0 c -6.593,0 -12.624,1.03 -18.076,3.13 -5.452,2.09 -10.162,5.14 -14.156,9.13 -3.994,4 -7.118,8.85 -9.337,14.56 -2.219,5.7 -3.323,12.1 -3.323,19.2 0,7.74 1.176,14.47 3.522,20.24 2.346,5.77 5.582,10.59 9.703,14.46 4.121,3.86 8.903,6.77 14.355,8.67 5.452,1.9 11.299,2.86 17.512,2.86 9.255,0 17.31,-1.73 24.157,-5.15 l -2.858,-9.71 c -2.916,1.4 -5.968,2.54 -9.138,3.43 -3.169,0.88 -6.775,1.32 -10.832,1.32 -4.058,0 -8.065,-0.59 -11.996,-1.79 -3.931,-1.2 -7.424,-3.23 -10.467,-6.08 -3.043,-2.85 -5.508,-6.64 -7.41,-11.33 -1.902,-4.69 -2.858,-10.51 -2.858,-17.48 0,-11.03 3.016,-19.67 9.038,-25.89 6.023,-6.21 13.969,-9.3 23.859,-9.3 3.296,0 6.53,0.33 9.636,1.03 3.107,0.7 6.307,1.95 9.603,3.72 l 3.024,-10.27 c -4.564,-2.02 -8.72,-3.35 -12.461,-3.92 -3.74,-0.57 -7.566,-0.83 -11.497,-0.83 z m 75.297,0 c -6.086,0 -11.606,0.7 -16.614,2.16 -5.009,1.46 -10.49,3.78 -16.449,6.95 l 5.117,9.53 c 5.452,-3.04 10.419,-5.1 14.92,-6.18 4.501,-1.07 8.546,-1.63 12.096,-1.63 5.832,0 10.505,1.48 14.056,4.46 3.55,2.98 5.349,8.27 5.349,15.88 v 6.68 h -18.076 c -5.959,0 -11.368,0.59 -16.249,1.79 -4.882,1.21 -9.074,3.01 -12.561,5.42 -3.486,2.41 -6.173,5.39 -8.074,8.94 -1.902,3.55 -2.858,7.67 -2.858,12.36 0,3.93 0.735,7.5 2.193,10.67 1.458,3.17 3.482,5.89 6.081,8.17 2.599,2.28 5.691,4.01 9.304,5.22 3.614,1.2 7.513,1.83 11.697,1.83 5.832,0 11.201,-1 16.083,-2.96 4.881,-1.97 9.222,-5.17 13.025,-9.6 h 0.366 l 2.093,10.83 h 10.268 v -58.19 c 0,-6.08 -0.774,-11.19 -2.359,-15.31 -1.585,-4.12 -3.827,-7.47 -6.679,-10.01 -2.853,-2.53 -6.202,-4.34 -10.069,-5.41 -3.867,-1.08 -8.096,-1.6 -12.66,-1.6 z m 186.778,0 c -6.34,0 -11.96,1.18 -16.84,3.59 -4.89,2.41 -9.52,5.72 -13.961,9.9 l -2.093,-12.36 h -10.102 v 89.39 h 13.325 v -66.96 c 3.681,-4.06 7.801,-7.18 12.361,-9.4 4.56,-2.22 9.05,-3.33 13.49,-3.33 7.1,0 12.18,1.92 15.22,5.79 3.04,3.86 4.59,8.79 4.59,14.75 v 59.15 h 13.29 v -61.61 c 0,-9.13 -2.58,-16.23 -7.78,-21.3 -5.2,-5.07 -12.37,-7.61 -21.5,-7.61 z m 88.62,0 c -5.19,0 -10.01,0.66 -14.45,2 -4.44,1.33 -8.23,3.28 -11.4,5.88 -3.17,2.6 -5.67,5.83 -7.44,9.7 -1.78,3.87 -2.66,8.28 -2.66,13.23 0,6.84 1.58,12.47 4.69,16.91 3.1,4.44 6.93,7.75 11.49,9.9 -3.67,1.65 -6.69,3.82 -9.04,6.55 -2.34,2.72 -3.52,6.14 -3.52,10.2 0,3.3 0.66,5.98 2,8.07 1.33,2.1 3.13,3.83 5.41,5.22 -4.94,1.78 -8.84,4.24 -11.69,7.41 -2.86,3.17 -4.29,7.11 -4.29,11.8 0,8.75 3.75,15.51 11.23,20.27 7.48,4.75 17.56,7.11 30.24,7.11 13.95,0 24.98,-2.72 33.09,-8.18 8.12,-5.45 12.17,-12.92 12.17,-22.43 0,-7.22 -2.58,-13 -7.78,-17.31 -5.2,-4.31 -12.74,-6.45 -22.63,-6.45 h -23.39 c -3.55,0 -6.45,-0.65 -8.67,-1.92 -2.22,-1.27 -3.33,-3.41 -3.33,-6.45 0,-2.15 0.81,-4.21 2.4,-6.18 1.58,-1.96 3.83,-3.47 6.74,-4.49 1.78,0.26 3.51,0.44 5.22,0.57 1.71,0.13 3.47,0.2 5.25,0.2 5.07,0 9.74,-0.66 14.05,-1.99 4.32,-1.34 8.03,-3.32 11.14,-5.99 3.1,-2.66 5.53,-5.93 7.31,-9.8 1.77,-3.87 2.65,-8.28 2.65,-13.22 0,-4.19 -0.92,-8.16 -2.82,-11.9 -1.9,-3.74 -4.44,-6.8 -7.61,-9.2 l 15.95,1.69 h 8.37 v -10.07 h -37.84 c -1.65,-0.25 -3.31,-0.51 -5.02,-0.76 -1.71,-0.26 -3.66,-0.37 -5.82,-0.37 z m 209.41,0 v 134.25 h 13.1 v -48.28 c 2.66,1.9 5.86,3.41 9.6,4.55 3.74,1.14 7.64,1.73 11.7,1.73 5.45,0 10.82,-0.96 16.08,-2.86 5.26,-1.9 9.97,-4.85 14.09,-8.84 4.12,-3.99 7.39,-9.03 9.87,-15.12 2.47,-6.09 3.72,-13.33 3.72,-21.7 0,-6.97 -0.92,-13.19 -2.76,-18.64 -1.84,-5.45 -4.45,-10.05 -7.81,-13.79 -3.36,-3.74 -7.37,-6.54 -12.06,-8.44 -4.69,-1.9 -9.91,-2.86 -15.62,-2.86 -6.08,0 -11.31,1.14 -15.68,3.42 -4.38,2.29 -8.13,4.94 -11.3,7.98 l -1.93,-11.4 z m -383.426,1.13 v 89.39 h 13.325 v -89.39 z m 282.816,0 v 59.71 c 0,10.65 2.83,18.56 8.54,23.7 5.7,5.13 13.2,7.71 22.46,7.71 6.59,0 12.37,-1.29 17.31,-3.83 4.95,-2.53 9.07,-5.58 12.36,-9.13 h 0.57 l 1.89,11.23 h 10.07 v -89.39 h -13.29 v 67.52 c -3.05,3.81 -6.83,6.9 -11.33,9.31 -4.5,2.41 -9.47,3.62 -14.92,3.62 -2.92,0 -5.61,-0.33 -8.08,-1.03 -2.47,-0.7 -4.64,-1.95 -6.48,-3.72 -1.84,-1.78 -3.27,-4.13 -4.28,-7.05 -1.02,-2.91 -1.53,-6.59 -1.53,-11.03 v -57.62 z m -108.8,8.74 c 6.34,0 11.46,1.8 15.32,5.35 3.87,3.55 5.78,8.85 5.78,15.95 0,6.85 -1.98,12 -5.98,15.42 -3.99,3.42 -9.14,5.12 -15.48,5.12 -6.34,0 -11.6,-1.73 -15.72,-5.22 -4.12,-3.49 -6.18,-8.86 -6.18,-16.08 0,-6.85 2.1,-11.96 6.28,-15.39 4.18,-3.42 9.52,-5.15 15.98,-5.15 z m 246.5,0.96 c 9.25,0 16.09,2.91 20.53,8.74 4.44,5.84 6.65,13.96 6.65,24.36 0,6.97 -0.92,12.86 -2.76,17.68 -1.84,4.82 -4.23,8.72 -7.14,11.7 -2.92,2.97 -6.27,5.14 -10.07,6.48 -3.81,1.33 -7.67,1.99 -11.6,1.99 -3.42,0 -6.81,-0.52 -10.17,-1.53 -3.36,-1.01 -6.52,-2.6 -9.43,-4.75 v -52.3 c 1.01,-1.4 2.33,-2.83 3.92,-4.29 1.58,-1.46 3.38,-2.78 5.41,-3.99 2.03,-1.2 4.28,-2.19 6.75,-2.96 2.47,-0.76 5.12,-1.13 7.91,-1.13 z m -503.423,36.72 v 20.9 c -3.296,4.82 -7.231,8.28 -11.796,10.37 -4.564,2.09 -9.086,3.12 -13.524,3.12 -5.072,0.01 -9.415,-1.17 -13.092,-3.58 -3.677,-2.41 -5.516,-6.61 -5.516,-12.56 0,-4.95 2.208,-9.14 6.645,-12.56 4.438,-3.43 11.907,-5.27 22.43,-5.52 z m 240.383,42.97 h 27.21 c 3.17,0 6.08,0.18 8.74,0.56 2.66,0.38 4.98,1.12 6.94,2.2 1.97,1.07 3.48,2.54 4.56,4.38 1.07,1.84 1.63,4.16 1.63,6.95 0,2.28 -0.59,4.56 -1.73,6.84 -1.14,2.28 -2.98,4.34 -5.52,6.18 -2.53,1.84 -5.81,3.28 -9.8,4.36 -4,1.07 -8.78,1.62 -14.36,1.62 -9.13,0 -16.19,-1.54 -21.2,-4.65 -5,-3.1 -7.51,-7.77 -7.51,-13.99 0,-3.29 1,-6.16 2.96,-8.64 1.97,-2.47 4.65,-4.42 8.08,-5.81 z"
   fill="#000000"
   fill-rule="nonzero"
   opacity="1"
   stroke="none"
   vectornator:layerName="Curve 3"
   id="path113" />
<path
   d="m 903.844,1901.22 v 37.85 c -2.352,-2.08 -5.002,-3.63 -7.942,-4.62 -2.94,-1 -6.057,-1.5 -9.404,-1.5 -4.522,0 -8.588,0.79 -12.161,2.33 -3.574,1.54 -6.584,3.73 -9.072,6.58 -2.488,2.85 -4.404,6.3 -5.715,10.37 -1.312,4.07 -1.961,8.61 -1.961,13.59 0,5.61 0.776,10.44 2.359,14.55 1.583,4.12 3.691,7.56 6.314,10.27 2.623,2.71 5.582,4.76 8.839,6.11 3.256,1.36 6.598,2.03 10.035,2.03 4.432,0 8.071,-0.65 10.966,-1.96 2.894,-1.31 5.523,-3.25 7.875,-5.78 h 0.266 l 1.229,6.51 h 7.875 v -96.33 z m -138.532,3.26 c -1.809,0 -3.331,0.6 -4.552,1.82 -1.221,1.23 -1.828,2.79 -1.828,4.69 0,1.9 0.607,3.44 1.828,4.62 1.221,1.17 2.743,1.76 4.552,1.76 1.719,0 3.22,-0.56 4.486,-1.69 1.267,-1.14 1.894,-2.7 1.894,-4.69 0,-1.99 -0.649,-3.58 -1.96,-4.75 -1.312,-1.18 -2.792,-1.76 -4.42,-1.76 z m 396.758,0 c -1.81,0 -3.33,0.6 -4.56,1.82 -1.22,1.23 -1.82,2.79 -1.82,4.69 0,1.9 0.6,3.44 1.82,4.62 1.23,1.17 2.75,1.76 4.56,1.76 1.72,0 3.22,-0.56 4.48,-1.69 1.27,-1.14 1.9,-2.7 1.9,-4.69 0,-1.99 -0.69,-3.58 -2,-4.75 -1.31,-1.18 -2.76,-1.76 -4.38,-1.76 z m -100.16,8.94 v 20.36 h -10.43 v 7.18 h 10.43 v 40.71 c 0,10.58 5.8,15.88 17.38,15.88 3.17,0 6.1,-0.25 8.81,-0.8 2.71,-0.54 5,-1.2 6.81,-1.92 l -1.49,-7.18 c -1.63,0.54 -3.55,1.04 -5.72,1.49 -2.17,0.46 -4.38,0.67 -6.65,0.67 -2.89,0 -5.21,-0.63 -6.97,-1.9 -1.77,-1.26 -2.66,-3.73 -2.66,-7.44 v -39.51 h 20.07 v -7.18 h -20.07 v -20.36 z m -240.408,19.53 c -4.522,0 -8.546,0.88 -12.028,2.6 -3.483,1.71 -6.803,4.06 -9.969,7.04 l -1.495,-8.81 h -7.178 v 63.77 h 9.504 v -47.75 c 2.623,-2.89 5.549,-5.13 8.805,-6.71 3.257,-1.58 6.471,-2.39 9.637,-2.39 5.065,0 8.695,1.39 10.866,4.15 2.171,2.76 3.256,6.25 3.256,10.5 v 42.2 h 9.47 v -43.96 c 0,-6.51 -1.84,-11.57 -5.549,-15.19 -3.709,-3.61 -8.806,-5.45 -15.319,-5.45 z m 200.668,0 c -3.25,0 -6.23,0.44 -8.9,1.3 -2.67,0.86 -4.99,2.05 -6.98,3.59 -1.99,1.54 -3.53,3.41 -4.62,5.58 -1.09,2.17 -1.63,4.56 -1.63,7.18 0,4.25 1.38,7.77 4.09,10.53 2.71,2.76 6.85,5.04 12.46,6.85 l 4.35,1.36 c 4.53,1.45 7.8,3.01 9.84,4.69 2.03,1.67 3.06,3.95 3.06,6.84 0,3.44 -1.28,6.05 -3.86,7.81 -2.58,1.76 -6.18,2.62 -10.8,2.62 -3.35,0 -6.43,-0.31 -9.24,-0.99 -2.8,-0.68 -5.4,-1.66 -7.84,-2.93 l -2.457,7.45 c 2.537,1.26 5.537,2.24 8.967,2.92 3.44,0.68 7.17,1.03 11.24,1.03 7.59,0 13.44,-1.75 17.51,-5.28 4.07,-3.53 6.11,-8.03 6.11,-13.46 0,-4.61 -1.48,-8.37 -4.42,-11.27 -2.94,-2.89 -7.22,-5.19 -12.82,-6.91 l -4.06,-1.23 c -4.88,-1.44 -8.2,-2.89 -9.97,-4.38 -1.76,-1.5 -2.65,-3.56 -2.65,-6.18 0,-2.9 1.12,-5.24 3.38,-7.05 2.27,-1.81 5.73,-2.72 10.34,-2.72 2.62,0 5.11,0.25 7.51,0.8 2.4,0.54 4.92,1.45 7.54,2.72 l 2.29,-7.31 c -2.8,-1.27 -5.81,-2.18 -9.07,-2.73 -3.25,-0.54 -6.38,-0.83 -9.37,-0.83 z m 113.71,0 c -4.61,0 -8.74,1.27 -12.36,3.76 -3.62,2.49 -6.2,5.76 -7.74,9.83 l -1.76,-12.76 h -6.78 v 63.77 h 9.37 v -34.19 c 0,-3.62 0.5,-6.83 1.49,-9.64 1,-2.8 2.34,-5.1 4.06,-6.91 1.72,-1.81 3.72,-3.2 5.98,-4.15 2.26,-0.95 4.69,-1.43 7.31,-1.43 1.81,0 3.39,0.2 4.75,0.56 1.36,0.36 2.6,0.82 3.69,1.37 l 1.76,-8.44 c -0.99,-0.46 -2.32,-0.84 -3.95,-1.2 -1.63,-0.36 -3.56,-0.57 -5.82,-0.57 z m 77.19,0 c -4.52,0 -8.6,0.79 -12.26,2.33 -3.66,1.54 -6.79,3.73 -9.37,6.58 -2.58,2.85 -4.6,6.3 -6.05,10.37 -1.44,4.07 -2.16,8.61 -2.16,13.59 0,5.79 0.84,10.76 2.56,14.92 1.72,4.16 4.07,7.56 7.01,10.23 2.94,2.67 6.35,4.65 10.24,5.92 3.89,1.26 8.06,1.89 12.49,1.89 3.8,0 7.38,-0.35 10.77,-1.03 3.39,-0.68 6.37,-1.54 8.9,-2.62 l -2.06,-7.08 c -2.89,1.17 -5.69,2.03 -8.4,2.52 -2.72,0.5 -5.64,0.73 -8.81,0.73 -7.06,0 -12.61,-2.08 -16.68,-6.24 -4.07,-4.16 -6.11,-9.97 -6.11,-17.48 v -1.23 h 45.59 v -5.58 c 0,-4.16 -0.61,-7.96 -1.83,-11.4 -1.22,-3.44 -2.96,-6.36 -5.22,-8.81 -2.26,-2.44 -4.95,-4.3 -8.07,-5.61 -3.12,-1.31 -6.65,-2 -10.54,-2 z m 58.75,0 c -3.25,0 -6.2,0.44 -8.87,1.3 -2.67,0.86 -5.02,2.05 -7.01,3.59 -1.99,1.54 -3.5,3.41 -4.59,5.58 -1.08,2.17 -1.63,4.56 -1.63,7.18 0,4.25 1.34,7.77 4.06,10.53 2.71,2.76 6.88,5.04 12.49,6.85 l 4.32,1.36 c 4.53,1.45 7.8,3.01 9.84,4.69 2.03,1.67 3.06,3.95 3.06,6.84 0,3.44 -1.28,6.05 -3.86,7.81 -2.58,1.76 -6.19,2.62 -10.8,2.62 -3.35,0 -6.4,-0.31 -9.2,-0.99 -2.81,-0.68 -5.44,-1.66 -7.88,-2.93 l -2.46,7.45 c 2.54,1.26 5.54,2.24 8.97,2.92 3.44,0.68 7.2,1.03 11.27,1.03 7.6,0 13.41,-1.75 17.48,-5.28 4.07,-3.53 6.11,-8.03 6.11,-13.46 0,-4.61 -1.44,-8.37 -4.38,-11.27 -2.94,-2.89 -7.22,-5.19 -12.83,-6.91 l -4.09,-1.23 c -4.88,-1.44 -8.2,-2.89 -9.97,-4.38 -1.76,-1.5 -2.66,-3.56 -2.66,-6.18 0.01,-2.9 1.17,-5.24 3.43,-7.05 2.26,-1.81 5.69,-2.72 10.3,-2.72 2.62,0 5.11,0.25 7.51,0.8 2.4,0.54 4.92,1.45 7.54,2.72 l 2.29,-7.31 c -2.8,-1.27 -5.81,-2.18 -9.07,-2.73 -3.25,-0.54 -6.38,-0.83 -9.37,-0.83 z m -511.26,0.83 v 63.77 h 9.504 v -63.77 z m 171.794,0 v 42.6 c 10e-4,7.6 2.011,13.22 6.081,16.88 4.071,3.67 9.413,5.52 16.017,5.52 4.703,0 8.833,-0.91 12.361,-2.72 3.528,-1.81 6.454,-3.98 8.806,-6.52 h 0.432 l 1.329,8.01 h 7.21 v -63.77 h -9.503 v 48.15 c -2.171,2.72 -4.864,4.96 -8.075,6.68 -3.211,1.72 -6.777,2.56 -10.666,2.56 -2.081,0 -3.985,-0.23 -5.749,-0.73 -1.764,-0.5 -3.307,-1.39 -4.619,-2.66 -1.311,-1.26 -2.333,-2.94 -3.057,-5.02 -0.723,-2.08 -1.063,-4.7 -1.063,-7.87 v -41.11 z m 224.956,0 v 63.77 h 9.51 v -63.77 z m 55.23,6.38 c 2.9,0 5.36,0.53 7.44,1.57 2.09,1.04 3.78,2.42 5.09,4.18 1.31,1.77 2.29,3.81 2.92,6.12 0.64,2.3 0.97,4.74 0.97,7.27 l -35.56,0.14 c 0.73,-5.97 2.79,-10.69 6.18,-14.12 3.39,-3.44 7.71,-5.16 12.96,-5.16 z m -324.148,0.14 c 2.895,0 5.694,0.65 8.407,1.96 2.714,1.31 5.055,3.13 7.045,5.48 v 35.29 c -1.809,2.62 -4.065,4.67 -6.779,6.11 -2.713,1.45 -5.927,2.16 -9.636,2.16 -2.533,0 -4.98,-0.47 -7.377,-1.42 -2.397,-0.95 -4.547,-2.44 -6.446,-4.52 -1.9,-2.08 -3.422,-4.76 -4.553,-8.01 -1.13,-3.26 -1.694,-7.26 -1.694,-11.96 -0.001,-4.53 0.585,-8.39 1.761,-11.6 1.176,-3.21 2.74,-5.82 4.685,-7.81 1.945,-1.99 4.179,-3.42 6.712,-4.32 2.533,-0.9 5.162,-1.36 7.875,-1.36 z"
   fill="#000000"
   fill-rule="nonzero"
   opacity="1"
   stroke="none"
   vectornator:layerName="Curve 4"
   id="path115" />
<path
   d="m 1202.34,1763.84 c -0.95,-0.03 -1.94,0.24 -2.86,0.87 l -38.31,26.08 c -2.82,1.92 -2.85,6.08 -0.03,8.01 0.28,0.2 5.18,3.56 9.2,6.31 l -62.68,85.98 7.88,5.65 62.81,-86.14 c 4.58,3.13 9.78,6.69 10.1,6.91 2.8,1.92 6.63,0.47 7.44,-2.83 l 11.04,-44.79 c 0.79,-3.24 -1.73,-5.96 -4.59,-6.05 z"
   fill="#000000"
   fill-rule="nonzero"
   opacity="1"
   stroke="none"
   vectornator:layerName="Curve 5"
   id="path117" />
</g>
</g>
<g
   opacity="0"
   vectornator:layerName="Group 3"
   id="g129">
<path
   d="m 699.941,663.555 v 350.815 h 34.011 V 663.555 Z m 128.881,11.913 c -6.588,0 -12.041,2.2 -16.488,6.647 -4.447,4.446 -6.733,10.089 -6.733,17.006 0,6.916 2.287,12.551 6.733,16.833 4.447,4.282 9.9,6.388 16.488,6.388 6.258,0 11.704,-2.012 16.315,-6.129 4.611,-4.118 6.906,-9.846 6.906,-17.092 0,-7.246 -2.389,-12.983 -7.165,-17.265 -4.776,-4.282 -10.127,-6.388 -16.056,-6.388 z M 119.413,779.229 c -11.857,0 -22.6545,1.532 -32.3712,4.661 -9.7167,3.129 -18.2191,7.522 -25.4655,13.122 -7.2464,5.599 -12.8805,12.294 -16.8331,20.199 -3.9527,7.906 -5.87,16.691 -5.87,26.243 0,15.48 4.88,28.195 14.7614,38.241 9.8811,10.046 25.071,18.36 45.4926,24.948 l 15.7968,5.007 c 16.469,5.27 28.414,10.912 35.825,17.005 7.411,6.094 11.136,14.408 11.136,24.948 -0.001,12.517 -4.684,21.978 -14.071,28.4 -9.387,6.423 -22.479,9.669 -39.278,9.669 -12.1865,0 -23.455,-1.242 -33.6658,-3.712 -10.2108,-2.47 -19.7662,-6.007 -28.6595,-10.618 l -8.8913,27.188 c 9.2224,4.62 20.1139,8.15 32.6303,10.62 12.5165,2.47 26.1818,3.71 41.0043,3.71 27.667,0 48.971,-6.49 63.793,-19.333 14.822,-12.845 22.185,-29.096 22.185,-48.859 0,-16.799 -5.351,-30.464 -16.056,-41.004 -10.705,-10.539 -26.28,-18.948 -46.701,-25.206 l -14.762,-4.489 c -17.786,-5.27 -29.9191,-10.622 -36.342,-16.056 -6.4231,-5.435 -9.6683,-12.893 -9.6683,-22.445 1e-4,-10.54 4.1098,-19.136 12.3443,-25.724 8.2344,-6.587 20.752,-9.841 37.551,-9.841 9.552,0 18.722,0.959 27.451,2.935 8.728,1.976 17.899,5.316 27.451,9.927 l 8.373,-26.76 c -10.21,-4.612 -21.291,-7.865 -33.148,-9.841 -11.858,-1.976 -23.142,-2.935 -34.012,-2.935 z m 233.161,0 c -17.128,0 -32.797,2.68 -46.96,8.114 -14.163,5.435 -26.399,13.364 -36.774,23.739 -10.376,10.376 -18.493,22.988 -24.257,37.81 -5.764,14.822 -8.633,31.45 -8.633,49.895 0,20.092 3.057,37.585 9.151,52.572 6.093,14.987 14.501,27.504 25.206,37.55 10.705,10.046 23.129,17.591 37.292,22.531 14.163,4.94 29.353,7.42 45.493,7.42 24.044,0 44.971,-4.48 62.757,-13.38 l -7.424,-25.203 c -7.575,3.624 -15.504,6.586 -23.739,8.891 -8.234,2.306 -17.601,3.453 -28.141,3.453 -10.541,0 -20.952,-1.532 -31.163,-4.661 -10.211,-3.129 -19.287,-8.386 -27.192,-15.797 -7.905,-7.412 -14.31,-17.25 -19.25,-29.437 -4.941,-12.187 -7.424,-27.29 -7.424,-45.406 0,-28.657 7.834,-51.107 23.48,-67.246 15.645,-16.14 36.289,-24.171 61.98,-24.171 8.564,-10e-4 16.964,0.864 25.034,2.676 8.07,1.812 16.384,5.057 24.948,9.668 l 7.855,-26.674 c -11.858,-5.27 -22.655,-8.704 -32.371,-10.186 -9.717,-1.482 -19.657,-2.158 -29.868,-2.158 z m 195.609,0 c -15.81,0 -30.151,1.823 -43.161,5.611 -13.011,3.788 -27.25,9.807 -42.731,18.042 l 13.294,24.775 c 14.163,-7.906 27.067,-13.257 38.759,-16.057 11.693,-2.799 22.2,-4.229 31.422,-4.229 15.152,0 27.293,3.826 36.515,11.567 9.223,7.74 13.898,21.5 13.898,41.263 v 17.351 h -46.96 c -15.48,0 -29.531,1.532 -42.212,4.661 -12.681,3.129 -23.572,7.813 -32.63,14.071 -9.058,6.258 -16.036,13.998 -20.977,23.221 -4.941,9.224 -7.424,19.925 -7.424,32.113 0,10.21 1.91,19.475 5.697,27.709 3.789,8.235 9.045,15.307 15.798,21.233 6.752,5.93 14.783,10.43 24.17,13.56 9.388,3.12 19.517,4.74 30.386,4.74 15.152,0 29.1,-2.57 41.781,-7.68 12.681,-5.1 23.958,-13.418 33.839,-24.947 h 0.949 l 5.439,28.137 h 26.674 V 863.222 c 0,-15.811 -2.012,-29.09 -6.129,-39.795 -4.117,-10.705 -9.94,-19.396 -17.351,-25.984 -7.411,-6.588 -16.11,-11.271 -26.156,-14.07 -10.046,-2.8 -21.032,-4.144 -32.89,-4.144 z m 485.227,0 c -16.47,0 -31.09,3.065 -43.767,9.323 -12.681,6.258 -24.728,14.855 -36.256,25.724 l -5.438,-32.112 h -26.243 v 232.206 h 34.616 V 840.433 c 9.552,-10.54 20.255,-18.666 32.113,-24.43 11.855,-5.764 23.515,-8.632 35.045,-8.632 18.45,-10e-4 31.63,4.974 39.54,15.02 7.9,10.046 11.91,22.847 11.91,38.328 v 153.651 h 34.53 V 854.331 c 0,-23.716 -6.69,-42.159 -20.2,-55.334 -13.5,-13.175 -32.14,-19.768 -55.85,-19.768 z m 230.22,0 c -13.5,-0.001 -26.02,1.721 -37.55,5.179 -11.52,3.459 -21.37,8.527 -29.61,15.28 -8.23,6.752 -14.72,15.16 -19.33,25.206 -4.61,10.047 -6.91,21.511 -6.91,34.357 0,17.786 4.1,32.411 12.17,43.939 8.07,11.528 18.01,20.125 29.87,25.724 -9.55,4.282 -17.38,9.924 -23.48,17.006 -6.09,7.083 -9.15,15.961 -9.15,26.502 0,8.563 1.72,15.541 5.18,20.976 3.46,5.436 8.14,9.932 14.07,13.552 -12.84,4.61 -22.97,11.02 -30.38,19.25 -7.41,8.24 -11.14,18.46 -11.14,30.65 0,22.72 9.74,40.3 29.18,52.65 19.43,12.35 45.61,18.48 78.55,18.48 36.23,0 64.9,-7.08 85.98,-21.24 21.08,-14.16 31.6,-33.56 31.6,-58.27 0,-18.77 -6.7,-33.77 -20.2,-44.97 -13.51,-11.201 -33.1,-16.749 -58.79,-16.749 h -60.77 c -9.23,0 -16.77,-1.713 -22.53,-5.006 -5.77,-3.294 -8.64,-8.842 -8.64,-16.747 0,-5.6 2.1,-10.951 6.22,-16.057 4.12,-5.105 9.95,-9.018 17.52,-11.653 4.61,0.658 9.11,1.138 13.56,1.467 4.44,0.33 9.02,0.518 13.64,0.518 13.17,10e-4 25.31,-1.721 36.51,-5.179 11.2,-3.459 20.85,-8.622 28.92,-15.538 8.07,-6.917 14.38,-15.42 18.99,-25.466 4.61,-10.046 6.91,-21.511 6.91,-34.357 0,-10.87 -2.4,-21.187 -7.34,-30.904 -4.94,-9.716 -11.54,-17.653 -19.77,-23.911 l 41.44,4.402 h 21.75 v -26.156 h -98.32 c -4.29,-0.659 -8.59,-1.327 -13.04,-1.985 -4.44,-0.659 -9.51,-0.95 -15.11,-0.95 z m 544.02,0 v 348.751 h 34.01 v -125.43 c 6.92,4.94 15.23,8.86 24.95,11.82 9.71,2.97 19.84,4.49 30.38,4.49 14.17,0 28.11,-2.48 41.78,-7.42 13.67,-4.94 25.9,-12.587 36.6,-22.962 10.71,-10.376 19.22,-23.467 25.64,-39.278 6.42,-15.811 9.67,-34.63 9.67,-56.369 0,-18.116 -2.39,-34.264 -7.16,-48.428 -4.78,-14.163 -11.56,-26.107 -20.29,-35.824 -8.73,-9.716 -19.15,-16.986 -31.34,-21.926 -12.18,-4.941 -25.75,-7.424 -40.57,-7.424 -15.81,-0.001 -29.38,2.962 -40.74,8.891 -11.37,5.93 -21.12,12.813 -29.35,20.718 l -5.01,-29.609 z m -996.093,2.935 v 232.206 h 34.616 V 782.164 Z m 734.703,0 v 155.124 c 0,27.668 7.36,48.209 22.18,61.549 14.83,13.343 34.31,20.023 58.36,20.023 17.13,0 32.13,-3.34 44.97,-9.92 12.85,-6.59 23.55,-14.52 32.12,-23.743 h 1.46 l 4.92,29.173 h 26.16 V 782.164 h -34.53 v 175.41 c -7.9,9.881 -17.74,17.912 -29.44,24.171 -11.69,6.258 -24.59,9.409 -38.76,9.409 -7.57,0 -14.55,-0.865 -20.97,-2.676 -6.42,-1.812 -12.06,-5.057 -16.84,-9.668 -4.77,-4.612 -8.5,-10.725 -11.13,-18.301 -2.64,-7.576 -3.97,-17.131 -3.97,-28.66 V 782.164 Z m -282.63,22.703 c 16.47,0 29.75,4.676 39.8,13.898 10.05,9.223 15.02,22.99 15.02,41.436 0,17.787 -5.16,31.161 -15.54,40.054 -10.37,8.893 -23.76,13.294 -40.22,13.294 -16.47,0 -30.13,-4.495 -40.84,-13.553 -10.7,-9.059 -16.05,-23.006 -16.05,-41.781 0,-17.786 5.44,-31.074 16.31,-39.968 10.87,-8.893 24.73,-13.38 41.52,-13.38 z m 640.35,2.504 c 24.05,0 41.82,7.551 53.35,22.703 11.53,15.151 17.27,36.266 17.27,63.275 0,18.115 -2.39,33.408 -7.17,45.924 -4.77,12.517 -10.98,22.646 -18.56,30.386 -7.57,7.74 -16.27,13.375 -26.15,16.833 -9.88,3.459 -19.92,5.18 -30.13,5.18 -8.89,0 -17.69,-1.336 -26.42,-3.971 -8.72,-2.636 -16.94,-6.745 -24.51,-12.344 V 839.483 c 2.63,-3.623 6.07,-7.348 10.18,-11.136 4.12,-3.788 8.81,-7.23 14.08,-10.359 5.27,-3.129 11.1,-5.706 17.52,-7.682 6.42,-1.976 13.3,-2.935 20.54,-2.935 z M 596.179,902.758 v 54.298 c -8.563,12.516 -18.787,21.498 -30.645,26.933 -11.858,5.435 -23.605,8.114 -35.133,8.114 -13.175,0.001 -24.46,-3.064 -34.012,-9.323 -9.552,-6.259 -14.33,-17.149 -14.33,-32.63 0,-12.846 5.737,-23.737 17.265,-32.63 11.528,-8.894 30.93,-13.671 58.269,-14.33 z m 624.471,111.612 h 70.69 c 8.24,0 15.79,0.48 22.71,1.47 6.91,0.99 12.93,2.9 18.04,5.7 5.11,2.8 9.03,6.62 11.83,11.39 2.8,4.78 4.23,10.8 4.23,18.05 0,5.93 -1.53,11.85 -4.49,17.78 -2.97,5.93 -7.75,11.28 -14.33,16.06 -6.59,4.77 -15.09,8.5 -25.47,11.3 -10.37,2.8 -22.8,4.23 -37.29,4.23 -23.72,0 -42.06,-4.01 -55.07,-12.08 -13.01,-8.07 -19.51,-20.2 -19.51,-36.34 0,-8.57 2.57,-16.03 7.68,-22.45 5.1,-6.42 12.08,-11.48 20.98,-15.11 z"
   fill="#000000"
   fill-rule="nonzero"
   opacity="1"
   stroke="none"
   vectornator:layerName="Curve 3"
   id="path123" />
<path
   d="m 712.112,1131 v 98.32 c -6.11,-5.4 -12.994,-9.41 -20.631,-12 -7.637,-2.58 -15.735,-3.88 -24.43,-3.88 -11.749,0 -22.312,2.05 -31.594,6.04 -9.283,3.99 -17.104,9.69 -23.567,17.09 -6.462,7.4 -11.44,16.36 -14.847,26.94 -3.407,10.57 -5.093,22.38 -5.093,35.3 0,14.57 2.016,27.12 6.129,37.81 4.112,10.69 9.586,19.63 16.401,26.68 6.815,7.05 14.502,12.35 22.962,15.88 8.46,3.52 17.14,5.26 26.07,5.26 11.515,0 20.967,-1.68 28.487,-5.09 7.52,-3.41 14.349,-8.44 20.459,-15.02 h 0.69 l 3.194,16.92 h 20.459 V 1131 Z m -359.884,8.46 c -4.699,0 -8.654,1.57 -11.826,4.75 -3.173,3.17 -4.748,7.23 -4.748,12.17 0,4.93 1.576,8.94 4.748,12 3.173,3.05 7.127,4.57 11.826,4.57 4.465,0 8.364,-1.46 11.654,-4.4 3.29,-2.94 4.921,-7 4.921,-12.17 0,-5.17 -1.686,-9.29 -5.093,-12.35 -3.408,-3.05 -7.252,-4.57 -11.482,-4.57 z m 1030.702,0 c -4.7,0 -8.65,1.57 -11.82,4.75 -3.17,3.17 -4.75,7.23 -4.75,12.17 0,4.93 1.58,8.94 4.75,12 3.17,3.05 7.12,4.57 11.82,4.57 4.47,0 8.37,-1.46 11.66,-4.4 3.29,-2.94 4.92,-7 4.92,-12.17 0,-5.17 -1.77,-9.29 -5.18,-12.35 -3.41,-3.05 -7.17,-4.57 -11.4,-4.57 z m -260.18,23.22 v 52.92 h -27.1 v 18.64 h 27.1 v 105.75 c 0,27.49 15.07,41.26 45.15,41.26 8.23,0 15.83,-0.66 22.88,-2.07 7.05,-1.41 12.99,-3.13 17.69,-5.01 l -3.88,-18.64 c -4.23,1.41 -9.21,2.71 -14.85,3.88 -5.64,1.18 -11.39,1.73 -17.26,1.73 -7.52,0 -13.55,-1.63 -18.13,-4.92 -4.58,-3.29 -6.91,-9.7 -6.91,-19.34 v -102.64 h 52.14 v -18.64 h -52.14 v -52.92 z m -624.548,50.76 c -11.75,0 -22.202,2.27 -31.249,6.73 -9.047,4.47 -17.673,10.55 -25.897,18.3 l -3.885,-22.87 h -18.646 v 165.65 h 24.689 V 1257.2 c 6.814,-7.52 14.416,-13.32 22.876,-17.43 8.459,-4.12 16.809,-6.22 25.033,-6.22 13.16,0 22.588,3.62 28.228,10.79 5.64,7.17 8.46,16.24 8.46,27.28 v 109.63 h 24.602 v -114.21 c 0,-16.92 -4.781,-30.05 -14.416,-39.45 -9.635,-9.39 -22.876,-14.15 -39.795,-14.15 z m 521.308,0 c -8.46,0 -16.2,1.13 -23.134,3.36 -6.932,2.24 -12.958,5.33 -18.128,9.33 -5.169,3.99 -9.179,8.86 -11.999,14.5 -2.819,5.64 -4.229,11.83 -4.229,18.65 -10e-4,11.04 3.568,20.19 10.617,27.36 7.05,7.17 17.802,13.08 32.373,17.78 l 11.31,3.54 c 11.75,3.76 20.26,7.83 25.55,12.17 5.29,4.35 7.94,10.27 7.94,17.79 0,8.93 -3.32,15.7 -10.01,20.28 -6.7,4.59 -16.07,6.82 -28.06,6.82 -8.69,0 -16.711,-0.83 -23.996,-2.59 -7.285,-1.76 -14.028,-4.3 -20.372,-7.59 l -6.388,19.33 c 6.579,3.29 14.377,5.84 23.307,7.6 8.93,1.76 18.599,2.67 29.179,2.67 19.74,0.01 34.92,-4.56 45.49,-13.72 10.58,-9.16 15.88,-20.86 15.88,-34.96 0,-11.99 -3.84,-21.75 -11.48,-29.27 -7.63,-7.51 -18.75,-13.49 -33.32,-17.95 l -10.53,-3.19 c -12.69,-3.76 -21.314,-7.52 -25.896,-11.4 -4.582,-3.88 -6.906,-9.24 -6.906,-16.06 0,-7.51 2.93,-13.6 8.805,-18.3 5.877,-4.7 14.867,-7.07 26.847,-7.07 6.81,0 13.28,0.66 19.51,2.07 6.23,1.41 12.78,3.79 19.59,7.08 l 5.96,-19 c -7.28,-3.29 -15.11,-5.66 -23.57,-7.07 -8.46,-1.41 -16.58,-2.16 -24.34,-2.16 z m 295.4,0 c -11.98,0 -22.71,3.29 -32.11,9.75 -9.4,6.46 -16.12,14.98 -20.11,25.55 l -4.58,-33.14 h -17.61 v 165.65 h 24.34 v -88.83 c 0,-9.4 1.3,-17.75 3.89,-25.03 2.58,-7.28 6.06,-13.26 10.53,-17.96 4.46,-4.7 9.66,-8.32 15.54,-10.79 5.87,-2.46 12.17,-3.71 18.99,-3.71 4.7,0 8.82,0.53 12.34,1.47 3.53,0.94 6.77,2.13 9.59,3.54 l 4.57,-21.93 c -2.58,-1.17 -6.04,-2.17 -10.27,-3.1 -4.23,-0.94 -9.23,-1.47 -15.11,-1.47 z m 200.53,0 c -11.75,0 -22.34,2.05 -31.85,6.04 -9.52,3.99 -17.65,9.69 -24.35,17.09 -6.69,7.4 -11.95,16.36 -15.71,26.94 -3.76,10.57 -5.61,22.38 -5.61,35.3 0,15.04 2.18,27.95 6.65,38.76 4.46,10.81 10.58,19.66 18.21,26.59 7.64,6.93 16.49,12.07 26.59,15.36 10.11,3.29 20.94,4.92 32.46,4.92 9.87,0 19.16,-0.91 27.97,-2.67 8.81,-1.76 16.55,-4 23.13,-6.82 l -5.35,-18.39 c -7.52,3.06 -14.79,5.27 -21.84,6.56 -7.05,1.3 -14.65,1.9 -22.87,1.9 -18.33,0 -32.76,-5.42 -43.34,-16.23 -10.57,-10.81 -15.88,-25.9 -15.88,-45.4 v -3.2 h 118.43 v -14.5 c 0,-10.81 -1.57,-20.68 -4.74,-29.61 -3.18,-8.93 -7.68,-16.53 -13.56,-22.87 -5.87,-6.35 -12.87,-11.19 -20.97,-14.59 -8.11,-3.41 -17.26,-5.18 -27.37,-5.18 z m 152.62,0 c -8.46,0 -16.11,1.13 -23.05,3.36 -6.93,2.24 -13.04,5.33 -18.21,9.33 -5.17,3.99 -9.09,8.86 -11.91,14.5 -2.82,5.64 -4.23,11.83 -4.23,18.65 0,11.04 3.48,20.19 10.53,27.36 7.05,7.17 17.89,13.08 32.46,17.78 l 11.22,3.54 c 11.75,3.76 20.26,7.83 25.55,12.17 5.29,4.35 7.94,10.27 7.94,17.79 0,8.93 -3.32,15.7 -10.01,20.28 -6.7,4.59 -16.07,6.82 -28.06,6.82 -8.69,0 -16.62,-0.83 -23.91,-2.59 -7.28,-1.76 -14.11,-4.3 -20.46,-7.59 l -6.39,19.33 c 6.58,3.29 14.38,5.84 23.31,7.6 8.93,1.76 18.69,2.67 29.27,2.67 19.73,0.01 34.83,-4.56 45.4,-13.72 10.58,-9.16 15.89,-20.86 15.89,-34.96 0,-11.99 -3.76,-21.75 -11.4,-29.27 -7.64,-7.51 -18.75,-13.49 -33.32,-17.95 l -10.62,-3.19 c -12.69,-3.76 -21.31,-7.52 -25.9,-11.4 -4.58,-3.88 -6.9,-9.24 -6.9,-16.06 0,-7.51 3.02,-13.6 8.89,-18.3 5.87,-4.7 14.78,-7.07 26.76,-7.07 6.81,0 13.28,0.66 19.51,2.07 6.23,1.41 12.78,3.79 19.59,7.08 l 5.96,-19 c -7.28,-3.29 -15.11,-5.66 -23.57,-7.07 -8.45,-1.41 -16.58,-2.16 -24.34,-2.16 z m -1328.176,2.16 v 165.65 h 24.689 V 1215.6 Z m 446.294,0 v 110.66 c 0,19.74 5.223,34.34 15.797,43.86 10.575,9.51 24.454,14.32 41.608,14.32 12.22,0.01 22.948,-2.37 32.113,-7.07 9.164,-4.7 16.766,-10.34 22.876,-16.92 h 1.122 l 3.453,20.8 h 18.732 V 1215.6 H 897.19 v 125.08 c -5.639,7.05 -12.634,12.88 -20.976,17.35 -8.343,4.46 -17.606,6.65 -27.71,6.65 -5.405,0 -10.352,-0.61 -14.934,-1.9 -4.583,-1.29 -8.592,-3.62 -11.999,-6.91 -3.407,-3.29 -6.062,-7.63 -7.942,-13.03 -1.88,-5.41 -2.762,-12.24 -2.762,-20.46 V 1215.6 Z m 584.412,0 v 165.65 h 24.69 V 1215.6 Z m 143.47,16.57 c 7.52,0 13.93,1.35 19.34,4.06 5.4,2.7 9.8,6.29 13.2,10.87 3.41,4.59 5.96,9.9 7.6,15.89 1.65,5.99 2.5,12.32 2.5,18.9 l -92.36,0.35 c 1.88,-15.51 7.24,-27.76 16.05,-36.69 8.82,-8.93 20.04,-13.38 33.67,-13.38 z m -842.088,0.35 c 7.519,0 14.79,1.68 21.84,5.09 7.05,3.41 13.13,8.13 18.3,14.24 v 91.68 c -4.699,6.81 -10.56,12.12 -17.61,15.88 -7.05,3.76 -15.399,5.61 -25.034,5.61 -6.58,0 -12.936,-1.24 -19.164,-3.71 -6.227,-2.47 -11.812,-6.34 -16.746,-11.74 -4.935,-5.41 -8.889,-12.34 -11.827,-20.8 -2.937,-8.46 -4.402,-18.86 -4.402,-31.08 0,-11.75 1.52,-21.79 4.575,-30.13 3.055,-8.34 7.119,-15.11 12.172,-20.28 5.052,-5.17 10.857,-8.88 17.437,-11.23 6.579,-2.35 13.409,-3.53 20.459,-3.53 z"
   fill="#000000"
   fill-rule="nonzero"
   opacity="1"
   stroke="none"
   vectornator:layerName="Curve 4"
   id="path125" />
<path
   d="m 1487.56,774.115 c -2.48,-0.078 -5.04,0.619 -7.43,2.244 l -99.53,67.764 c -7.33,4.991 -7.4,15.787 -0.08,20.804 0.74,0.513 13.47,9.253 23.91,16.402 l -162.84,223.361 20.46,14.67 163.18,-223.788 c 11.9,8.151 25.43,17.394 26.25,17.956 7.26,4.98 17.23,1.214 19.33,-7.338 l 28.66,-116.364 c 2.07,-8.416 -4.49,-15.477 -11.91,-15.711 z"
   fill="#000000"
   fill-rule="nonzero"
   opacity="1"
   stroke="none"
   vectornator:layerName="Curve 5"
   id="path127" />
</g>
</g>
<g
   id="Layer-1-copy-copy"
   vectornator:layerName="Layer 1 copy copy"
   visibility="hidden"
   style="display:inline">
<path
   d="m 1047.06,62.2951 c -96.659,0 -184.129,14.4824 -262.261,43.4799 -78.131,28.997 -144.205,69.663 -198.172,122.019 -53.967,52.356 -95.861,115.197 -125.664,188.496 -29.802,73.299 -44.61,155.082 -44.61,245.296 0,90.213 14.031,164.63 42.223,223.43 28.192,58.8 65.3,107.609 111.212,146.274 45.913,38.66 98.28,69.63 157.08,92.99 33.544,13.33 67.582,25.81 101.913,37.82 L 1130.25,789.511 c -2.41,-0.696 -4.75,-1.571 -7.16,-2.262 -39.47,-11.276 -74.9,-24.657 -106.32,-39.961 -31.409,-15.304 -56.69,-33.344 -76.022,-54.286 -19.332,-20.943 -29.029,-47.578 -29.029,-79.797 0,-46.718 19.268,-84.603 57.931,-113.6 38.66,-28.997 88.57,-43.48 149.79,-43.48 46.98,0 95.62,9.627 145.65,28.652 l 325.72,-285.76 C 1507.13,156.181 1420.19,122.742 1329.68,99.7429 1231.41,74.773 1137.27,62.2951 1047.06,62.2951 Z m 83.19,727.2159 c 6.97,2.012 13.79,4.347 20.73,6.409 l 211.24,-261.003 c -5.68,-3.66 -11.4,-7.538 -17.09,-10.933 z m 214.88,-265.527 230.72,-285.131 -290.28,254.595 c 19.87,8.705 39.68,18.653 59.56,30.536 z m 17.09,10.933 c 20.59,13.257 41.12,27.759 61.7,44.485 L 1590.3,253.053 Z m -211.24,261.003 -301.967,373.1 c 19.222,6.55 38.339,13.2 57.806,19.35 51.55,17.72 95.451,33.75 131.691,48.25 36.25,14.5 65.67,30.21 88.22,47.13 22.55,16.91 38.71,35.4 48.38,55.54 9.67,20.14 14.45,43.99 14.45,71.38 0,45.1 -18.94,85.32 -56.8,120.76 -37.86,35.44 -95.46,53.16 -172.786,53.16 -67.66,0 -136.063,-15.26 -205.334,-45.87 -21.761,-9.62 -43.656,-21.09 -65.597,-34.06 l -328.359,288.03 c 191.25,128.25 398.09,193.02 621.03,193.01 111.156,0 210.656,-14.8 298.456,-44.61 87.79,-29.8 161.88,-71.69 222.29,-125.66 60.42,-53.97 106.32,-118.81 137.73,-194.53 31.42,-75.71 47.13,-160.28 47.13,-253.71 0,-138.54 -35.76,-250.97 -107.45,-337.16 -71.68,-86.185 -184.89,-155.039 -339.54,-206.589 -29.46,-9.82 -59.42,-18.637 -89.35,-27.521 z m -301.967,373.1 c -6.741,-2.3 -13.52,-4.57 -20.232,-6.92 l -228.582,282.5 c 5.437,4.19 10.783,7.81 16.211,11.81 z M 616.41,1456.41 378.905,1749.96 671.199,1493.61 c -18.221,-11.46 -36.476,-23.7 -54.789,-37.2 z m -16.211,-11.81 c -18.541,-14.31 -37.142,-29.46 -55.795,-46 l -178.065,335.02 z"
   fill="#ffffff"
   fill-rule="nonzero"
   opacity="1"
   stroke="none"
   vectornator:layerName="Curve 1"
   id="path132"
   style="display:inline" />
<g
   opacity="1"
   vectornator:layerName="Group 2"
   id="g144"
   style="display:none">
<path
   d="m 1043.32,49.2192 c -80.982,0 -154.266,12.1335 -219.726,36.4278 -65.459,24.294 -120.816,58.365 -166.03,102.23 -45.215,43.864 -80.314,96.513 -105.283,157.924 -24.969,61.41 -37.376,129.929 -37.376,205.511 10e-4,75.583 11.756,137.93 35.375,187.193 23.62,49.263 54.71,90.157 93.176,122.549 38.466,32.393 82.34,58.339 131.603,77.909 28.104,11.165 56.621,21.624 85.384,31.69 L 1113.02,658.49 c -2.03,-0.583 -3.98,-1.317 -6,-1.895 -33.07,-9.448 -62.75,-20.658 -89.07,-33.48 -26.323,-12.822 -47.503,-27.936 -63.7,-45.482 -16.196,-17.546 -24.32,-39.861 -24.32,-66.854 0,-39.141 16.143,-70.882 48.535,-95.176 32.395,-24.294 74.205,-36.428 125.495,-36.428 39.36,0 80.11,8.065 122.02,24.005 l 272.9,-239.413 C 1428.78,127.878 1355.93,99.862 1280.1,80.5935 1197.77,59.6734 1118.9,49.2192 1043.32,49.2192 Z m 69.7,609.2708 c 5.84,1.686 11.55,3.642 17.37,5.37 l 176.98,-218.673 c -4.76,-3.065 -9.56,-6.315 -14.32,-9.159 z m 180.03,-222.462 193.3,-238.887 -243.2,213.303 c 16.64,7.294 33.24,15.628 49.9,25.584 z m 14.32,9.159 c 17.25,11.108 34.45,23.258 51.69,37.271 l 139.4,-273.42 z M 1130.39,663.86 877.394,976.444 c 16.104,5.491 32.12,11.063 48.43,16.214 43.19,14.842 79.966,28.282 110.336,40.432 30.37,12.14 55.01,25.3 73.91,39.48 18.89,14.17 32.43,29.66 40.53,46.53 8.1,16.87 12.11,36.86 12.11,59.8 0,37.79 -15.87,71.49 -47.59,101.18 -31.72,29.69 -79.98,44.53 -144.762,44.53 -56.686,0 -113.995,-12.78 -172.031,-38.42 -18.232,-8.06 -36.576,-17.68 -54.958,-28.54 l -275.104,241.31 c 160.232,107.46 333.525,161.72 520.307,161.72 93.128,0 176.488,-12.41 250.048,-37.38 73.56,-24.97 135.63,-60.07 186.24,-105.28 50.62,-45.22 89.07,-99.54 115.39,-162.98 26.32,-63.43 39.48,-134.28 39.48,-212.57 0,-116.07 -29.95,-210.261 -90.01,-282.469 -60.06,-72.208 -154.91,-129.895 -284.48,-173.084 -24.68,-8.227 -49.78,-15.614 -74.85,-23.057 z M 877.394,976.444 c -5.648,-1.926 -11.328,-3.823 -16.951,-5.791 L 668.934,1207.33 c 4.556,3.51 9.034,6.54 13.582,9.9 z M 682.516,1217.23 483.531,1463.17 728.419,1248.39 c -15.266,-9.6 -30.56,-19.85 -45.903,-31.16 z m -13.582,-9.9 c -15.534,-11.98 -31.118,-24.68 -46.745,-38.53 l -149.186,280.68 z"
   fill="#ffffff"
   fill-rule="nonzero"
   opacity="1"
   stroke="none"
   vectornator:layerName="Curve 2"
   id="path134" />
<g
   opacity="1"
   vectornator:layerName="Group 2"
   id="g142">
<path
   d="m 899.159,1721.29 v 135.04 h 13.092 v -135.04 z m 49.611,4.58 c -2.536,0 -4.636,0.85 -6.347,2.56 -1.712,1.71 -2.592,3.88 -2.592,6.55 0,2.66 0.88,4.83 2.592,6.48 1.711,1.64 3.811,2.45 6.347,2.45 2.408,0 4.505,-0.77 6.28,-2.35 1.775,-1.59 2.658,-3.79 2.658,-6.58 0,-2.79 -0.919,-5 -2.758,-6.65 -1.838,-1.65 -3.898,-2.46 -6.18,-2.46 z m -273.076,39.94 c -4.565,0 -8.721,0.59 -12.461,1.8 -3.741,1.2 -7.013,2.89 -9.803,5.05 -2.789,2.15 -4.958,4.73 -6.479,7.77 -1.522,3.05 -2.26,6.43 -2.26,10.1 0,5.96 1.878,10.86 5.682,14.73 3.804,3.86 9.651,7.06 17.512,9.6 l 6.081,1.93 c 6.339,2.02 10.937,4.2 13.79,6.54 2.853,2.35 4.286,5.55 4.286,9.6 0,4.82 -1.803,8.46 -5.416,10.94 -3.613,2.47 -8.653,3.72 -15.119,3.72 -4.691,0 -9.029,-0.48 -12.96,-1.43 -3.93,-0.95 -7.608,-2.31 -11.032,-4.09 l -3.422,10.47 c 3.55,1.78 7.742,3.14 12.56,4.09 4.818,0.95 10.079,1.43 15.784,1.43 10.651,0 18.851,-2.5 24.556,-7.45 5.706,-4.94 8.54,-11.2 8.54,-18.8 0,-6.47 -2.06,-11.73 -6.18,-15.79 -4.121,-4.06 -10.116,-7.29 -17.977,-9.7 l -5.682,-1.73 c -6.847,-2.03 -11.517,-4.09 -13.99,-6.18 -2.472,-2.09 -3.721,-4.96 -3.721,-8.64 0,-4.06 1.582,-7.37 4.751,-9.9 3.17,-2.54 7.989,-3.79 14.455,-3.79 3.677,0 7.207,0.37 10.567,1.13 3.36,0.76 6.89,2.05 10.567,3.82 l 3.223,-10.3 c -3.931,-1.78 -8.196,-3.03 -12.76,-3.79 -4.565,-0.76 -8.908,-1.13 -13.092,-1.13 z m 89.751,0 c -6.593,0 -12.624,1.03 -18.076,3.13 -5.452,2.09 -10.162,5.14 -14.156,9.13 -3.994,4 -7.118,8.85 -9.337,14.56 -2.219,5.7 -3.323,12.1 -3.323,19.2 0,7.74 1.176,14.47 3.522,20.24 2.346,5.77 5.582,10.59 9.703,14.46 4.121,3.86 8.903,6.77 14.355,8.67 5.452,1.9 11.299,2.86 17.512,2.86 9.255,0 17.31,-1.73 24.157,-5.15 l -2.858,-9.71 c -2.916,1.4 -5.968,2.54 -9.138,3.43 -3.169,0.88 -6.775,1.32 -10.832,1.32 -4.058,0 -8.065,-0.59 -11.996,-1.79 -3.931,-1.2 -7.424,-3.23 -10.467,-6.08 -3.043,-2.85 -5.508,-6.64 -7.41,-11.33 -1.902,-4.69 -2.858,-10.51 -2.858,-17.48 0,-11.03 3.016,-19.67 9.038,-25.89 6.023,-6.21 13.969,-9.3 23.859,-9.3 3.296,0 6.53,0.33 9.636,1.03 3.107,0.7 6.307,1.95 9.603,3.72 l 3.024,-10.27 c -4.564,-2.02 -8.72,-3.35 -12.461,-3.92 -3.74,-0.57 -7.566,-0.83 -11.497,-0.83 z m 75.297,0 c -6.086,0 -11.606,0.7 -16.614,2.16 -5.009,1.46 -10.49,3.78 -16.449,6.95 l 5.117,9.53 c 5.452,-3.04 10.419,-5.1 14.92,-6.18 4.501,-1.07 8.546,-1.63 12.096,-1.63 5.832,0 10.505,1.48 14.056,4.46 3.55,2.98 5.349,8.27 5.349,15.88 v 6.68 h -18.076 c -5.959,0 -11.368,0.59 -16.249,1.79 -4.882,1.21 -9.074,3.01 -12.561,5.42 -3.486,2.41 -6.173,5.39 -8.074,8.94 -1.902,3.55 -2.858,7.67 -2.858,12.36 0,3.93 0.735,7.5 2.193,10.67 1.458,3.17 3.482,5.89 6.081,8.17 2.599,2.28 5.691,4.01 9.304,5.22 3.614,1.2 7.513,1.83 11.697,1.83 5.832,0 11.201,-1 16.083,-2.96 4.881,-1.97 9.222,-5.17 13.025,-9.6 h 0.366 l 2.093,10.83 h 10.268 v -58.19 c 0,-6.08 -0.774,-11.19 -2.359,-15.31 -1.585,-4.12 -3.827,-7.47 -6.679,-10.01 -2.853,-2.53 -6.202,-4.34 -10.069,-5.41 -3.867,-1.08 -8.096,-1.6 -12.66,-1.6 z m 186.778,0 c -6.34,0 -11.96,1.18 -16.84,3.59 -4.89,2.41 -9.52,5.72 -13.961,9.9 l -2.093,-12.36 h -10.102 v 89.39 h 13.325 v -66.96 c 3.681,-4.06 7.801,-7.18 12.361,-9.4 4.56,-2.22 9.05,-3.33 13.49,-3.33 7.1,0 12.18,1.92 15.22,5.79 3.04,3.86 4.59,8.79 4.59,14.75 v 59.15 h 13.29 v -61.61 c 0,-9.13 -2.58,-16.23 -7.78,-21.3 -5.2,-5.07 -12.37,-7.61 -21.5,-7.61 z m 88.62,0 c -5.19,0 -10.01,0.66 -14.45,2 -4.44,1.33 -8.23,3.28 -11.4,5.88 -3.17,2.6 -5.67,5.83 -7.44,9.7 -1.78,3.87 -2.66,8.28 -2.66,13.23 0,6.84 1.58,12.47 4.69,16.91 3.1,4.44 6.93,7.75 11.49,9.9 -3.67,1.65 -6.69,3.82 -9.04,6.55 -2.34,2.72 -3.52,6.14 -3.52,10.2 0,3.3 0.66,5.98 2,8.07 1.33,2.1 3.13,3.83 5.41,5.22 -4.94,1.78 -8.84,4.24 -11.69,7.41 -2.86,3.17 -4.29,7.11 -4.29,11.8 0,8.75 3.75,15.51 11.23,20.27 7.48,4.75 17.56,7.11 30.24,7.11 13.95,0 24.98,-2.72 33.09,-8.18 8.12,-5.45 12.17,-12.92 12.17,-22.43 0,-7.22 -2.58,-13 -7.78,-17.31 -5.2,-4.31 -12.74,-6.45 -22.63,-6.45 h -23.39 c -3.55,0 -6.45,-0.65 -8.67,-1.92 -2.22,-1.27 -3.33,-3.41 -3.33,-6.45 0,-2.15 0.81,-4.21 2.4,-6.18 1.58,-1.96 3.83,-3.47 6.74,-4.49 1.78,0.26 3.51,0.44 5.22,0.57 1.71,0.13 3.47,0.2 5.25,0.2 5.07,0 9.74,-0.66 14.05,-1.99 4.32,-1.34 8.03,-3.32 11.14,-5.99 3.1,-2.66 5.53,-5.93 7.31,-9.8 1.77,-3.87 2.65,-8.28 2.65,-13.22 0,-4.19 -0.92,-8.16 -2.82,-11.9 -1.9,-3.74 -4.44,-6.8 -7.61,-9.2 l 15.95,1.69 h 8.37 v -10.07 h -37.84 c -1.65,-0.25 -3.31,-0.51 -5.02,-0.76 -1.71,-0.26 -3.66,-0.37 -5.82,-0.37 z m 209.41,0 v 134.25 h 13.1 v -48.28 c 2.66,1.9 5.86,3.41 9.6,4.55 3.74,1.14 7.64,1.73 11.7,1.73 5.45,0 10.82,-0.96 16.08,-2.86 5.26,-1.9 9.97,-4.85 14.09,-8.84 4.12,-3.99 7.39,-9.03 9.87,-15.12 2.47,-6.09 3.72,-13.33 3.72,-21.7 0,-6.97 -0.92,-13.19 -2.76,-18.64 -1.84,-5.45 -4.45,-10.05 -7.81,-13.79 -3.36,-3.74 -7.37,-6.54 -12.06,-8.44 -4.69,-1.9 -9.91,-2.86 -15.62,-2.86 -6.08,0 -11.31,1.14 -15.68,3.42 -4.38,2.29 -8.13,4.94 -11.3,7.98 l -1.93,-11.4 z m -383.426,1.13 v 89.39 h 13.325 v -89.39 z m 282.816,0 v 59.71 c 0,10.65 2.83,18.56 8.54,23.7 5.7,5.13 13.2,7.71 22.46,7.71 6.59,0 12.37,-1.29 17.31,-3.83 4.95,-2.53 9.07,-5.58 12.36,-9.13 h 0.57 l 1.89,11.23 h 10.07 v -89.39 h -13.29 v 67.52 c -3.05,3.81 -6.83,6.9 -11.33,9.31 -4.5,2.41 -9.47,3.62 -14.92,3.62 -2.92,0 -5.61,-0.33 -8.08,-1.03 -2.47,-0.7 -4.64,-1.95 -6.48,-3.72 -1.84,-1.78 -3.27,-4.13 -4.28,-7.05 -1.02,-2.91 -1.53,-6.59 -1.53,-11.03 v -57.62 z m -108.8,8.74 c 6.34,0 11.46,1.8 15.32,5.35 3.87,3.55 5.78,8.85 5.78,15.95 0,6.85 -1.98,12 -5.98,15.42 -3.99,3.42 -9.14,5.12 -15.48,5.12 -6.34,0 -11.6,-1.73 -15.72,-5.22 -4.12,-3.49 -6.18,-8.86 -6.18,-16.08 0,-6.85 2.1,-11.96 6.28,-15.39 4.18,-3.42 9.52,-5.15 15.98,-5.15 z m 246.5,0.96 c 9.25,0 16.09,2.91 20.53,8.74 4.44,5.84 6.65,13.96 6.65,24.36 0,6.97 -0.92,12.86 -2.76,17.68 -1.84,4.82 -4.23,8.72 -7.14,11.7 -2.92,2.97 -6.27,5.14 -10.07,6.48 -3.81,1.33 -7.67,1.99 -11.6,1.99 -3.42,0 -6.81,-0.52 -10.17,-1.53 -3.36,-1.01 -6.52,-2.6 -9.43,-4.75 v -52.3 c 1.01,-1.4 2.33,-2.83 3.92,-4.29 1.58,-1.46 3.38,-2.78 5.41,-3.99 2.03,-1.2 4.28,-2.19 6.75,-2.96 2.47,-0.76 5.12,-1.13 7.91,-1.13 z m -503.423,36.72 v 20.9 c -3.296,4.82 -7.231,8.28 -11.796,10.37 -4.564,2.09 -9.086,3.12 -13.524,3.12 -5.072,0.01 -9.415,-1.17 -13.092,-3.58 -3.677,-2.41 -5.516,-6.61 -5.516,-12.56 0,-4.95 2.208,-9.14 6.645,-12.56 4.438,-3.43 11.907,-5.27 22.43,-5.52 z m 240.383,42.97 h 27.21 c 3.17,0 6.08,0.18 8.74,0.56 2.66,0.38 4.98,1.12 6.94,2.2 1.97,1.07 3.48,2.54 4.56,4.38 1.07,1.84 1.63,4.16 1.63,6.95 0,2.28 -0.59,4.56 -1.73,6.84 -1.14,2.28 -2.98,4.34 -5.52,6.18 -2.53,1.84 -5.81,3.28 -9.8,4.36 -4,1.07 -8.78,1.62 -14.36,1.62 -9.13,0 -16.19,-1.54 -21.2,-4.65 -5,-3.1 -7.51,-7.77 -7.51,-13.99 0,-3.29 1,-6.16 2.96,-8.64 1.97,-2.47 4.65,-4.42 8.08,-5.81 z"
   fill="#ffffff"
   fill-rule="nonzero"
   opacity="1"
   stroke="none"
   vectornator:layerName="Curve 3"
   id="path136" />
<path
   d="m 903.844,1901.22 v 37.85 c -2.352,-2.08 -5.002,-3.63 -7.942,-4.62 -2.94,-1 -6.057,-1.5 -9.404,-1.5 -4.522,0 -8.588,0.79 -12.161,2.33 -3.574,1.54 -6.584,3.73 -9.072,6.58 -2.488,2.85 -4.404,6.3 -5.715,10.37 -1.312,4.07 -1.961,8.61 -1.961,13.59 0,5.61 0.776,10.44 2.359,14.55 1.583,4.12 3.691,7.56 6.314,10.27 2.623,2.71 5.582,4.76 8.839,6.11 3.256,1.36 6.598,2.03 10.035,2.03 4.432,0 8.071,-0.65 10.966,-1.96 2.894,-1.31 5.523,-3.25 7.875,-5.78 h 0.266 l 1.229,6.51 h 7.875 v -96.33 z m -138.532,3.26 c -1.809,0 -3.331,0.6 -4.552,1.82 -1.221,1.23 -1.828,2.79 -1.828,4.69 0,1.9 0.607,3.44 1.828,4.62 1.221,1.17 2.743,1.76 4.552,1.76 1.719,0 3.22,-0.56 4.486,-1.69 1.267,-1.14 1.894,-2.7 1.894,-4.69 0,-1.99 -0.649,-3.58 -1.96,-4.75 -1.312,-1.18 -2.792,-1.76 -4.42,-1.76 z m 396.758,0 c -1.81,0 -3.33,0.6 -4.56,1.82 -1.22,1.23 -1.82,2.79 -1.82,4.69 0,1.9 0.6,3.44 1.82,4.62 1.23,1.17 2.75,1.76 4.56,1.76 1.72,0 3.22,-0.56 4.48,-1.69 1.27,-1.14 1.9,-2.7 1.9,-4.69 0,-1.99 -0.69,-3.58 -2,-4.75 -1.31,-1.18 -2.76,-1.76 -4.38,-1.76 z m -100.16,8.94 v 20.36 h -10.43 v 7.18 h 10.43 v 40.71 c 0,10.58 5.8,15.88 17.38,15.88 3.17,0 6.1,-0.25 8.81,-0.8 2.71,-0.54 5,-1.2 6.81,-1.92 l -1.49,-7.18 c -1.63,0.54 -3.55,1.04 -5.72,1.49 -2.17,0.46 -4.38,0.67 -6.65,0.67 -2.89,0 -5.21,-0.63 -6.97,-1.9 -1.77,-1.26 -2.66,-3.73 -2.66,-7.44 v -39.51 h 20.07 v -7.18 h -20.07 v -20.36 z m -240.408,19.53 c -4.522,0 -8.546,0.88 -12.028,2.6 -3.483,1.71 -6.803,4.06 -9.969,7.04 l -1.495,-8.81 h -7.178 v 63.77 h 9.504 v -47.75 c 2.623,-2.89 5.549,-5.13 8.805,-6.71 3.257,-1.58 6.471,-2.39 9.637,-2.39 5.065,0 8.695,1.39 10.866,4.15 2.171,2.76 3.256,6.25 3.256,10.5 v 42.2 h 9.47 v -43.96 c 0,-6.51 -1.84,-11.57 -5.549,-15.19 -3.709,-3.61 -8.806,-5.45 -15.319,-5.45 z m 200.668,0 c -3.25,0 -6.23,0.44 -8.9,1.3 -2.67,0.86 -4.99,2.05 -6.98,3.59 -1.99,1.54 -3.53,3.41 -4.62,5.58 -1.09,2.17 -1.63,4.56 -1.63,7.18 0,4.25 1.38,7.77 4.09,10.53 2.71,2.76 6.85,5.04 12.46,6.85 l 4.35,1.36 c 4.53,1.45 7.8,3.01 9.84,4.69 2.03,1.67 3.06,3.95 3.06,6.84 0,3.44 -1.28,6.05 -3.86,7.81 -2.58,1.76 -6.18,2.62 -10.8,2.62 -3.35,0 -6.43,-0.31 -9.24,-0.99 -2.8,-0.68 -5.4,-1.66 -7.84,-2.93 l -2.457,7.45 c 2.537,1.26 5.537,2.24 8.967,2.92 3.44,0.68 7.17,1.03 11.24,1.03 7.59,0 13.44,-1.75 17.51,-5.28 4.07,-3.53 6.11,-8.03 6.11,-13.46 0,-4.61 -1.48,-8.37 -4.42,-11.27 -2.94,-2.89 -7.22,-5.19 -12.82,-6.91 l -4.06,-1.23 c -4.88,-1.44 -8.2,-2.89 -9.97,-4.38 -1.76,-1.5 -2.65,-3.56 -2.65,-6.18 0,-2.9 1.12,-5.24 3.38,-7.05 2.27,-1.81 5.73,-2.72 10.34,-2.72 2.62,0 5.11,0.25 7.51,0.8 2.4,0.54 4.92,1.45 7.54,2.72 l 2.29,-7.31 c -2.8,-1.27 -5.81,-2.18 -9.07,-2.73 -3.25,-0.54 -6.38,-0.83 -9.37,-0.83 z m 113.71,0 c -4.61,0 -8.74,1.27 -12.36,3.76 -3.62,2.49 -6.2,5.76 -7.74,9.83 l -1.76,-12.76 h -6.78 v 63.77 h 9.37 v -34.19 c 0,-3.62 0.5,-6.83 1.49,-9.64 1,-2.8 2.34,-5.1 4.06,-6.91 1.72,-1.81 3.72,-3.2 5.98,-4.15 2.26,-0.95 4.69,-1.43 7.31,-1.43 1.81,0 3.39,0.2 4.75,0.56 1.36,0.36 2.6,0.82 3.69,1.37 l 1.76,-8.44 c -0.99,-0.46 -2.32,-0.84 -3.95,-1.2 -1.63,-0.36 -3.56,-0.57 -5.82,-0.57 z m 77.19,0 c -4.52,0 -8.6,0.79 -12.26,2.33 -3.66,1.54 -6.79,3.73 -9.37,6.58 -2.58,2.85 -4.6,6.3 -6.05,10.37 -1.44,4.07 -2.16,8.61 -2.16,13.59 0,5.79 0.84,10.76 2.56,14.92 1.72,4.16 4.07,7.56 7.01,10.23 2.94,2.67 6.35,4.65 10.24,5.92 3.89,1.26 8.06,1.89 12.49,1.89 3.8,0 7.38,-0.35 10.77,-1.03 3.39,-0.68 6.37,-1.54 8.9,-2.62 l -2.06,-7.08 c -2.89,1.17 -5.69,2.03 -8.4,2.52 -2.72,0.5 -5.64,0.73 -8.81,0.73 -7.06,0 -12.61,-2.08 -16.68,-6.24 -4.07,-4.16 -6.11,-9.97 -6.11,-17.48 v -1.23 h 45.59 v -5.58 c 0,-4.16 -0.61,-7.96 -1.83,-11.4 -1.22,-3.44 -2.96,-6.36 -5.22,-8.81 -2.26,-2.44 -4.95,-4.3 -8.07,-5.61 -3.12,-1.31 -6.65,-2 -10.54,-2 z m 58.75,0 c -3.25,0 -6.2,0.44 -8.87,1.3 -2.67,0.86 -5.02,2.05 -7.01,3.59 -1.99,1.54 -3.5,3.41 -4.59,5.58 -1.08,2.17 -1.63,4.56 -1.63,7.18 0,4.25 1.34,7.77 4.06,10.53 2.71,2.76 6.88,5.04 12.49,6.85 l 4.32,1.36 c 4.53,1.45 7.8,3.01 9.84,4.69 2.03,1.67 3.06,3.95 3.06,6.84 0,3.44 -1.28,6.05 -3.86,7.81 -2.58,1.76 -6.19,2.62 -10.8,2.62 -3.35,0 -6.4,-0.31 -9.2,-0.99 -2.81,-0.68 -5.44,-1.66 -7.88,-2.93 l -2.46,7.45 c 2.54,1.26 5.54,2.24 8.97,2.92 3.44,0.68 7.2,1.03 11.27,1.03 7.6,0 13.41,-1.75 17.48,-5.28 4.07,-3.53 6.11,-8.03 6.11,-13.46 0,-4.61 -1.44,-8.37 -4.38,-11.27 -2.94,-2.89 -7.22,-5.19 -12.83,-6.91 l -4.09,-1.23 c -4.88,-1.44 -8.2,-2.89 -9.97,-4.38 -1.76,-1.5 -2.66,-3.56 -2.66,-6.18 0.01,-2.9 1.17,-5.24 3.43,-7.05 2.26,-1.81 5.69,-2.72 10.3,-2.72 2.62,0 5.11,0.25 7.51,0.8 2.4,0.54 4.92,1.45 7.54,2.72 l 2.29,-7.31 c -2.8,-1.27 -5.81,-2.18 -9.07,-2.73 -3.25,-0.54 -6.38,-0.83 -9.37,-0.83 z m -511.26,0.83 v 63.77 h 9.504 v -63.77 z m 171.794,0 v 42.6 c 10e-4,7.6 2.011,13.22 6.081,16.88 4.071,3.67 9.413,5.52 16.017,5.52 4.703,0 8.833,-0.91 12.361,-2.72 3.528,-1.81 6.454,-3.98 8.806,-6.52 h 0.432 l 1.329,8.01 h 7.21 v -63.77 h -9.503 v 48.15 c -2.171,2.72 -4.864,4.96 -8.075,6.68 -3.211,1.72 -6.777,2.56 -10.666,2.56 -2.081,0 -3.985,-0.23 -5.749,-0.73 -1.764,-0.5 -3.307,-1.39 -4.619,-2.66 -1.311,-1.26 -2.333,-2.94 -3.057,-5.02 -0.723,-2.08 -1.063,-4.7 -1.063,-7.87 v -41.11 z m 224.956,0 v 63.77 h 9.51 v -63.77 z m 55.23,6.38 c 2.9,0 5.36,0.53 7.44,1.57 2.09,1.04 3.78,2.42 5.09,4.18 1.31,1.77 2.29,3.81 2.92,6.12 0.64,2.3 0.97,4.74 0.97,7.27 l -35.56,0.14 c 0.73,-5.97 2.79,-10.69 6.18,-14.12 3.39,-3.44 7.71,-5.16 12.96,-5.16 z m -324.148,0.14 c 2.895,0 5.694,0.65 8.407,1.96 2.714,1.31 5.055,3.13 7.045,5.48 v 35.29 c -1.809,2.62 -4.065,4.67 -6.779,6.11 -2.713,1.45 -5.927,2.16 -9.636,2.16 -2.533,0 -4.98,-0.47 -7.377,-1.42 -2.397,-0.95 -4.547,-2.44 -6.446,-4.52 -1.9,-2.08 -3.422,-4.76 -4.553,-8.01 -1.13,-3.26 -1.694,-7.26 -1.694,-11.96 -0.001,-4.53 0.585,-8.39 1.761,-11.6 1.176,-3.21 2.74,-5.82 4.685,-7.81 1.945,-1.99 4.179,-3.42 6.712,-4.32 2.533,-0.9 5.162,-1.36 7.875,-1.36 z"
   fill="#ffffff"
   fill-rule="nonzero"
   opacity="1"
   stroke="none"
   vectornator:layerName="Curve 4"
   id="path138" />
<path
   d="m 1202.34,1763.84 c -0.95,-0.03 -1.94,0.24 -2.86,0.87 l -38.31,26.08 c -2.82,1.92 -2.85,6.08 -0.03,8.01 0.28,0.2 5.18,3.56 9.2,6.31 l -62.68,85.98 7.88,5.65 62.81,-86.14 c 4.58,3.13 9.78,6.69 10.1,6.91 2.8,1.92 6.63,0.47 7.44,-2.83 l 11.04,-44.79 c 0.79,-3.24 -1.73,-5.96 -4.59,-6.05 z"
   fill="#ffffff"
   fill-rule="nonzero"
   opacity="1"
   stroke="none"
   vectornator:layerName="Curve 5"
   id="path140" />
</g>
</g>
<g
   opacity="1"
   vectornator:layerName="Group 3"
   id="g152"
   style="display:none">
<path
   d="m 699.941,663.555 v 350.815 h 34.011 V 663.555 Z m 128.881,11.913 c -6.588,0 -12.041,2.2 -16.488,6.647 -4.447,4.446 -6.733,10.089 -6.733,17.006 0,6.916 2.287,12.551 6.733,16.833 4.447,4.282 9.9,6.388 16.488,6.388 6.258,0 11.704,-2.012 16.315,-6.129 4.611,-4.118 6.906,-9.846 6.906,-17.092 0,-7.246 -2.389,-12.983 -7.165,-17.265 -4.776,-4.282 -10.127,-6.388 -16.056,-6.388 z M 119.413,779.229 c -11.857,0 -22.6545,1.532 -32.3712,4.661 -9.7167,3.129 -18.2191,7.522 -25.4655,13.122 -7.2464,5.599 -12.8805,12.294 -16.8331,20.199 -3.9527,7.906 -5.87,16.691 -5.87,26.243 0,15.48 4.88,28.195 14.7614,38.241 9.8811,10.046 25.071,18.36 45.4926,24.948 l 15.7968,5.007 c 16.469,5.27 28.414,10.912 35.825,17.005 7.411,6.094 11.136,14.408 11.136,24.948 -0.001,12.517 -4.684,21.978 -14.071,28.4 -9.387,6.423 -22.479,9.669 -39.278,9.669 -12.1865,0 -23.455,-1.242 -33.6658,-3.712 -10.2108,-2.47 -19.7662,-6.007 -28.6595,-10.618 l -8.8913,27.188 c 9.2224,4.62 20.1139,8.15 32.6303,10.62 12.5165,2.47 26.1818,3.71 41.0043,3.71 27.667,0 48.971,-6.49 63.793,-19.333 14.822,-12.845 22.185,-29.096 22.185,-48.859 0,-16.799 -5.351,-30.464 -16.056,-41.004 -10.705,-10.539 -26.28,-18.948 -46.701,-25.206 l -14.762,-4.489 c -17.786,-5.27 -29.9191,-10.622 -36.342,-16.056 -6.4231,-5.435 -9.6683,-12.893 -9.6683,-22.445 1e-4,-10.54 4.1098,-19.136 12.3443,-25.724 8.2344,-6.587 20.752,-9.841 37.551,-9.841 9.552,0 18.722,0.959 27.451,2.935 8.728,1.976 17.899,5.316 27.451,9.927 l 8.373,-26.76 c -10.21,-4.612 -21.291,-7.865 -33.148,-9.841 -11.858,-1.976 -23.142,-2.935 -34.012,-2.935 z m 233.161,0 c -17.128,0 -32.797,2.68 -46.96,8.114 -14.163,5.435 -26.399,13.364 -36.774,23.739 -10.376,10.376 -18.493,22.988 -24.257,37.81 -5.764,14.822 -8.633,31.45 -8.633,49.895 0,20.092 3.057,37.585 9.151,52.572 6.093,14.987 14.501,27.504 25.206,37.55 10.705,10.046 23.129,17.591 37.292,22.531 14.163,4.94 29.353,7.42 45.493,7.42 24.044,0 44.971,-4.48 62.757,-13.38 l -7.424,-25.203 c -7.575,3.624 -15.504,6.586 -23.739,8.891 -8.234,2.306 -17.601,3.453 -28.141,3.453 -10.541,0 -20.952,-1.532 -31.163,-4.661 -10.211,-3.129 -19.287,-8.386 -27.192,-15.797 -7.905,-7.412 -14.31,-17.25 -19.25,-29.437 -4.941,-12.187 -7.424,-27.29 -7.424,-45.406 0,-28.657 7.834,-51.107 23.48,-67.246 15.645,-16.14 36.289,-24.171 61.98,-24.171 8.564,-10e-4 16.964,0.864 25.034,2.676 8.07,1.812 16.384,5.057 24.948,9.668 l 7.855,-26.674 c -11.858,-5.27 -22.655,-8.704 -32.371,-10.186 -9.717,-1.482 -19.657,-2.158 -29.868,-2.158 z m 195.609,0 c -15.81,0 -30.151,1.823 -43.161,5.611 -13.011,3.788 -27.25,9.807 -42.731,18.042 l 13.294,24.775 c 14.163,-7.906 27.067,-13.257 38.759,-16.057 11.693,-2.799 22.2,-4.229 31.422,-4.229 15.152,0 27.293,3.826 36.515,11.567 9.223,7.74 13.898,21.5 13.898,41.263 v 17.351 h -46.96 c -15.48,0 -29.531,1.532 -42.212,4.661 -12.681,3.129 -23.572,7.813 -32.63,14.071 -9.058,6.258 -16.036,13.998 -20.977,23.221 -4.941,9.224 -7.424,19.925 -7.424,32.113 0,10.21 1.91,19.475 5.697,27.709 3.789,8.235 9.045,15.307 15.798,21.233 6.752,5.93 14.783,10.43 24.17,13.56 9.388,3.12 19.517,4.74 30.386,4.74 15.152,0 29.1,-2.57 41.781,-7.68 12.681,-5.1 23.958,-13.418 33.839,-24.947 h 0.949 l 5.439,28.137 h 26.674 V 863.222 c 0,-15.811 -2.012,-29.09 -6.129,-39.795 -4.117,-10.705 -9.94,-19.396 -17.351,-25.984 -7.411,-6.588 -16.11,-11.271 -26.156,-14.07 -10.046,-2.8 -21.032,-4.144 -32.89,-4.144 z m 485.227,0 c -16.47,0 -31.09,3.065 -43.767,9.323 -12.681,6.258 -24.728,14.855 -36.256,25.724 l -5.438,-32.112 h -26.243 v 232.206 h 34.616 V 840.433 c 9.552,-10.54 20.255,-18.666 32.113,-24.43 11.855,-5.764 23.515,-8.632 35.045,-8.632 18.45,-10e-4 31.63,4.974 39.54,15.02 7.9,10.046 11.91,22.847 11.91,38.328 v 153.651 h 34.53 V 854.331 c 0,-23.716 -6.69,-42.159 -20.2,-55.334 -13.5,-13.175 -32.14,-19.768 -55.85,-19.768 z m 230.22,0 c -13.5,-0.001 -26.02,1.721 -37.55,5.179 -11.52,3.459 -21.37,8.527 -29.61,15.28 -8.23,6.752 -14.72,15.16 -19.33,25.206 -4.61,10.047 -6.91,21.511 -6.91,34.357 0,17.786 4.1,32.411 12.17,43.939 8.07,11.528 18.01,20.125 29.87,25.724 -9.55,4.282 -17.38,9.924 -23.48,17.006 -6.09,7.083 -9.15,15.961 -9.15,26.502 0,8.563 1.72,15.541 5.18,20.976 3.46,5.436 8.14,9.932 14.07,13.552 -12.84,4.61 -22.97,11.02 -30.38,19.25 -7.41,8.24 -11.14,18.46 -11.14,30.65 0,22.72 9.74,40.3 29.18,52.65 19.43,12.35 45.61,18.48 78.55,18.48 36.23,0 64.9,-7.08 85.98,-21.24 21.08,-14.16 31.6,-33.56 31.6,-58.27 0,-18.77 -6.7,-33.77 -20.2,-44.97 -13.51,-11.201 -33.1,-16.749 -58.79,-16.749 h -60.77 c -9.23,0 -16.77,-1.713 -22.53,-5.006 -5.77,-3.294 -8.64,-8.842 -8.64,-16.747 0,-5.6 2.1,-10.951 6.22,-16.057 4.12,-5.105 9.95,-9.018 17.52,-11.653 4.61,0.658 9.11,1.138 13.56,1.467 4.44,0.33 9.02,0.518 13.64,0.518 13.17,10e-4 25.31,-1.721 36.51,-5.179 11.2,-3.459 20.85,-8.622 28.92,-15.538 8.07,-6.917 14.38,-15.42 18.99,-25.466 4.61,-10.046 6.91,-21.511 6.91,-34.357 0,-10.87 -2.4,-21.187 -7.34,-30.904 -4.94,-9.716 -11.54,-17.653 -19.77,-23.911 l 41.44,4.402 h 21.75 v -26.156 h -98.32 c -4.29,-0.659 -8.59,-1.327 -13.04,-1.985 -4.44,-0.659 -9.51,-0.95 -15.11,-0.95 z m 544.02,0 v 348.751 h 34.01 v -125.43 c 6.92,4.94 15.23,8.86 24.95,11.82 9.71,2.97 19.84,4.49 30.38,4.49 14.17,0 28.11,-2.48 41.78,-7.42 13.67,-4.94 25.9,-12.587 36.6,-22.962 10.71,-10.376 19.22,-23.467 25.64,-39.278 6.42,-15.811 9.67,-34.63 9.67,-56.369 0,-18.116 -2.39,-34.264 -7.16,-48.428 -4.78,-14.163 -11.56,-26.107 -20.29,-35.824 -8.73,-9.716 -19.15,-16.986 -31.34,-21.926 -12.18,-4.941 -25.75,-7.424 -40.57,-7.424 -15.81,-0.001 -29.38,2.962 -40.74,8.891 -11.37,5.93 -21.12,12.813 -29.35,20.718 l -5.01,-29.609 z m -996.093,2.935 v 232.206 h 34.616 V 782.164 Z m 734.703,0 v 155.124 c 0,27.668 7.36,48.209 22.18,61.549 14.83,13.343 34.31,20.023 58.36,20.023 17.13,0 32.13,-3.34 44.97,-9.92 12.85,-6.59 23.55,-14.52 32.12,-23.743 h 1.46 l 4.92,29.173 h 26.16 V 782.164 h -34.53 v 175.41 c -7.9,9.881 -17.74,17.912 -29.44,24.171 -11.69,6.258 -24.59,9.409 -38.76,9.409 -7.57,0 -14.55,-0.865 -20.97,-2.676 -6.42,-1.812 -12.06,-5.057 -16.84,-9.668 -4.77,-4.612 -8.5,-10.725 -11.13,-18.301 -2.64,-7.576 -3.97,-17.131 -3.97,-28.66 V 782.164 Z m -282.63,22.703 c 16.47,0 29.75,4.676 39.8,13.898 10.05,9.223 15.02,22.99 15.02,41.436 0,17.787 -5.16,31.161 -15.54,40.054 -10.37,8.893 -23.76,13.294 -40.22,13.294 -16.47,0 -30.13,-4.495 -40.84,-13.553 -10.7,-9.059 -16.05,-23.006 -16.05,-41.781 0,-17.786 5.44,-31.074 16.31,-39.968 10.87,-8.893 24.73,-13.38 41.52,-13.38 z m 640.35,2.504 c 24.05,0 41.82,7.551 53.35,22.703 11.53,15.151 17.27,36.266 17.27,63.275 0,18.115 -2.39,33.408 -7.17,45.924 -4.77,12.517 -10.98,22.646 -18.56,30.386 -7.57,7.74 -16.27,13.375 -26.15,16.833 -9.88,3.459 -19.92,5.18 -30.13,5.18 -8.89,0 -17.69,-1.336 -26.42,-3.971 -8.72,-2.636 -16.94,-6.745 -24.51,-12.344 V 839.483 c 2.63,-3.623 6.07,-7.348 10.18,-11.136 4.12,-3.788 8.81,-7.23 14.08,-10.359 5.27,-3.129 11.1,-5.706 17.52,-7.682 6.42,-1.976 13.3,-2.935 20.54,-2.935 z M 596.179,902.758 v 54.298 c -8.563,12.516 -18.787,21.498 -30.645,26.933 -11.858,5.435 -23.605,8.114 -35.133,8.114 -13.175,0.001 -24.46,-3.064 -34.012,-9.323 -9.552,-6.259 -14.33,-17.149 -14.33,-32.63 0,-12.846 5.737,-23.737 17.265,-32.63 11.528,-8.894 30.93,-13.671 58.269,-14.33 z m 624.471,111.612 h 70.69 c 8.24,0 15.79,0.48 22.71,1.47 6.91,0.99 12.93,2.9 18.04,5.7 5.11,2.8 9.03,6.62 11.83,11.39 2.8,4.78 4.23,10.8 4.23,18.05 0,5.93 -1.53,11.85 -4.49,17.78 -2.97,5.93 -7.75,11.28 -14.33,16.06 -6.59,4.77 -15.09,8.5 -25.47,11.3 -10.37,2.8 -22.8,4.23 -37.29,4.23 -23.72,0 -42.06,-4.01 -55.07,-12.08 -13.01,-8.07 -19.51,-20.2 -19.51,-36.34 0,-8.57 2.57,-16.03 7.68,-22.45 5.1,-6.42 12.08,-11.48 20.98,-15.11 z"
   fill="#ffffff"
   fill-rule="nonzero"
   opacity="1"
   stroke="none"
   vectornator:layerName="Curve 3"
   id="path146" />
<path
   d="m 712.112,1131 v 98.32 c -6.11,-5.4 -12.994,-9.41 -20.631,-12 -7.637,-2.58 -15.735,-3.88 -24.43,-3.88 -11.749,0 -22.312,2.05 -31.594,6.04 -9.283,3.99 -17.104,9.69 -23.567,17.09 -6.462,7.4 -11.44,16.36 -14.847,26.94 -3.407,10.57 -5.093,22.38 -5.093,35.3 0,14.57 2.016,27.12 6.129,37.81 4.112,10.69 9.586,19.63 16.401,26.68 6.815,7.05 14.502,12.35 22.962,15.88 8.46,3.52 17.14,5.26 26.07,5.26 11.515,0 20.967,-1.68 28.487,-5.09 7.52,-3.41 14.349,-8.44 20.459,-15.02 h 0.69 l 3.194,16.92 h 20.459 V 1131 Z m -359.884,8.46 c -4.699,0 -8.654,1.57 -11.826,4.75 -3.173,3.17 -4.748,7.23 -4.748,12.17 0,4.93 1.576,8.94 4.748,12 3.173,3.05 7.127,4.57 11.826,4.57 4.465,0 8.364,-1.46 11.654,-4.4 3.29,-2.94 4.921,-7 4.921,-12.17 0,-5.17 -1.686,-9.29 -5.093,-12.35 -3.408,-3.05 -7.252,-4.57 -11.482,-4.57 z m 1030.702,0 c -4.7,0 -8.65,1.57 -11.82,4.75 -3.17,3.17 -4.75,7.23 -4.75,12.17 0,4.93 1.58,8.94 4.75,12 3.17,3.05 7.12,4.57 11.82,4.57 4.47,0 8.37,-1.46 11.66,-4.4 3.29,-2.94 4.92,-7 4.92,-12.17 0,-5.17 -1.77,-9.29 -5.18,-12.35 -3.41,-3.05 -7.17,-4.57 -11.4,-4.57 z m -260.18,23.22 v 52.92 h -27.1 v 18.64 h 27.1 v 105.75 c 0,27.49 15.07,41.26 45.15,41.26 8.23,0 15.83,-0.66 22.88,-2.07 7.05,-1.41 12.99,-3.13 17.69,-5.01 l -3.88,-18.64 c -4.23,1.41 -9.21,2.71 -14.85,3.88 -5.64,1.18 -11.39,1.73 -17.26,1.73 -7.52,0 -13.55,-1.63 -18.13,-4.92 -4.58,-3.29 -6.91,-9.7 -6.91,-19.34 v -102.64 h 52.14 v -18.64 h -52.14 v -52.92 z m -624.548,50.76 c -11.75,0 -22.202,2.27 -31.249,6.73 -9.047,4.47 -17.673,10.55 -25.897,18.3 l -3.885,-22.87 h -18.646 v 165.65 h 24.689 V 1257.2 c 6.814,-7.52 14.416,-13.32 22.876,-17.43 8.459,-4.12 16.809,-6.22 25.033,-6.22 13.16,0 22.588,3.62 28.228,10.79 5.64,7.17 8.46,16.24 8.46,27.28 v 109.63 h 24.602 v -114.21 c 0,-16.92 -4.781,-30.05 -14.416,-39.45 -9.635,-9.39 -22.876,-14.15 -39.795,-14.15 z m 521.308,0 c -8.46,0 -16.2,1.13 -23.134,3.36 -6.932,2.24 -12.958,5.33 -18.128,9.33 -5.169,3.99 -9.179,8.86 -11.999,14.5 -2.819,5.64 -4.229,11.83 -4.229,18.65 -10e-4,11.04 3.568,20.19 10.617,27.36 7.05,7.17 17.802,13.08 32.373,17.78 l 11.31,3.54 c 11.75,3.76 20.26,7.83 25.55,12.17 5.29,4.35 7.94,10.27 7.94,17.79 0,8.93 -3.32,15.7 -10.01,20.28 -6.7,4.59 -16.07,6.82 -28.06,6.82 -8.69,0 -16.711,-0.83 -23.996,-2.59 -7.285,-1.76 -14.028,-4.3 -20.372,-7.59 l -6.388,19.33 c 6.579,3.29 14.377,5.84 23.307,7.6 8.93,1.76 18.599,2.67 29.179,2.67 19.74,0.01 34.92,-4.56 45.49,-13.72 10.58,-9.16 15.88,-20.86 15.88,-34.96 0,-11.99 -3.84,-21.75 -11.48,-29.27 -7.63,-7.51 -18.75,-13.49 -33.32,-17.95 l -10.53,-3.19 c -12.69,-3.76 -21.314,-7.52 -25.896,-11.4 -4.582,-3.88 -6.906,-9.24 -6.906,-16.06 0,-7.51 2.93,-13.6 8.805,-18.3 5.877,-4.7 14.867,-7.07 26.847,-7.07 6.81,0 13.28,0.66 19.51,2.07 6.23,1.41 12.78,3.79 19.59,7.08 l 5.96,-19 c -7.28,-3.29 -15.11,-5.66 -23.57,-7.07 -8.46,-1.41 -16.58,-2.16 -24.34,-2.16 z m 295.4,0 c -11.98,0 -22.71,3.29 -32.11,9.75 -9.4,6.46 -16.12,14.98 -20.11,25.55 l -4.58,-33.14 h -17.61 v 165.65 h 24.34 v -88.83 c 0,-9.4 1.3,-17.75 3.89,-25.03 2.58,-7.28 6.06,-13.26 10.53,-17.96 4.46,-4.7 9.66,-8.32 15.54,-10.79 5.87,-2.46 12.17,-3.71 18.99,-3.71 4.7,0 8.82,0.53 12.34,1.47 3.53,0.94 6.77,2.13 9.59,3.54 l 4.57,-21.93 c -2.58,-1.17 -6.04,-2.17 -10.27,-3.1 -4.23,-0.94 -9.23,-1.47 -15.11,-1.47 z m 200.53,0 c -11.75,0 -22.34,2.05 -31.85,6.04 -9.52,3.99 -17.65,9.69 -24.35,17.09 -6.69,7.4 -11.95,16.36 -15.71,26.94 -3.76,10.57 -5.61,22.38 -5.61,35.3 0,15.04 2.18,27.95 6.65,38.76 4.46,10.81 10.58,19.66 18.21,26.59 7.64,6.93 16.49,12.07 26.59,15.36 10.11,3.29 20.94,4.92 32.46,4.92 9.87,0 19.16,-0.91 27.97,-2.67 8.81,-1.76 16.55,-4 23.13,-6.82 l -5.35,-18.39 c -7.52,3.06 -14.79,5.27 -21.84,6.56 -7.05,1.3 -14.65,1.9 -22.87,1.9 -18.33,0 -32.76,-5.42 -43.34,-16.23 -10.57,-10.81 -15.88,-25.9 -15.88,-45.4 v -3.2 h 118.43 v -14.5 c 0,-10.81 -1.57,-20.68 -4.74,-29.61 -3.18,-8.93 -7.68,-16.53 -13.56,-22.87 -5.87,-6.35 -12.87,-11.19 -20.97,-14.59 -8.11,-3.41 -17.26,-5.18 -27.37,-5.18 z m 152.62,0 c -8.46,0 -16.11,1.13 -23.05,3.36 -6.93,2.24 -13.04,5.33 -18.21,9.33 -5.17,3.99 -9.09,8.86 -11.91,14.5 -2.82,5.64 -4.23,11.83 -4.23,18.65 0,11.04 3.48,20.19 10.53,27.36 7.05,7.17 17.89,13.08 32.46,17.78 l 11.22,3.54 c 11.75,3.76 20.26,7.83 25.55,12.17 5.29,4.35 7.94,10.27 7.94,17.79 0,8.93 -3.32,15.7 -10.01,20.28 -6.7,4.59 -16.07,6.82 -28.06,6.82 -8.69,0 -16.62,-0.83 -23.91,-2.59 -7.28,-1.76 -14.11,-4.3 -20.46,-7.59 l -6.39,19.33 c 6.58,3.29 14.38,5.84 23.31,7.6 8.93,1.76 18.69,2.67 29.27,2.67 19.73,0.01 34.83,-4.56 45.4,-13.72 10.58,-9.16 15.89,-20.86 15.89,-34.96 0,-11.99 -3.76,-21.75 -11.4,-29.27 -7.64,-7.51 -18.75,-13.49 -33.32,-17.95 l -10.62,-3.19 c -12.69,-3.76 -21.31,-7.52 -25.9,-11.4 -4.58,-3.88 -6.9,-9.24 -6.9,-16.06 0,-7.51 3.02,-13.6 8.89,-18.3 5.87,-4.7 14.78,-7.07 26.76,-7.07 6.81,0 13.28,0.66 19.51,2.07 6.23,1.41 12.78,3.79 19.59,7.08 l 5.96,-19 c -7.28,-3.29 -15.11,-5.66 -23.57,-7.07 -8.45,-1.41 -16.58,-2.16 -24.34,-2.16 z m -1328.176,2.16 v 165.65 h 24.689 V 1215.6 Z m 446.294,0 v 110.66 c 0,19.74 5.223,34.34 15.797,43.86 10.575,9.51 24.454,14.32 41.608,14.32 12.22,0.01 22.948,-2.37 32.113,-7.07 9.164,-4.7 16.766,-10.34 22.876,-16.92 h 1.122 l 3.453,20.8 h 18.732 V 1215.6 H 897.19 v 125.08 c -5.639,7.05 -12.634,12.88 -20.976,17.35 -8.343,4.46 -17.606,6.65 -27.71,6.65 -5.405,0 -10.352,-0.61 -14.934,-1.9 -4.583,-1.29 -8.592,-3.62 -11.999,-6.91 -3.407,-3.29 -6.062,-7.63 -7.942,-13.03 -1.88,-5.41 -2.762,-12.24 -2.762,-20.46 V 1215.6 Z m 584.412,0 v 165.65 h 24.69 V 1215.6 Z m 143.47,16.57 c 7.52,0 13.93,1.35 19.34,4.06 5.4,2.7 9.8,6.29 13.2,10.87 3.41,4.59 5.96,9.9 7.6,15.89 1.65,5.99 2.5,12.32 2.5,18.9 l -92.36,0.35 c 1.88,-15.51 7.24,-27.76 16.05,-36.69 8.82,-8.93 20.04,-13.38 33.67,-13.38 z m -842.088,0.35 c 7.519,0 14.79,1.68 21.84,5.09 7.05,3.41 13.13,8.13 18.3,14.24 v 91.68 c -4.699,6.81 -10.56,12.12 -17.61,15.88 -7.05,3.76 -15.399,5.61 -25.034,5.61 -6.58,0 -12.936,-1.24 -19.164,-3.71 -6.227,-2.47 -11.812,-6.34 -16.746,-11.74 -4.935,-5.41 -8.889,-12.34 -11.827,-20.8 -2.937,-8.46 -4.402,-18.86 -4.402,-31.08 0,-11.75 1.52,-21.79 4.575,-30.13 3.055,-8.34 7.119,-15.11 12.172,-20.28 5.052,-5.17 10.857,-8.88 17.437,-11.23 6.579,-2.35 13.409,-3.53 20.459,-3.53 z"
   fill="#ffffff"
   fill-rule="nonzero"
   opacity="1"
   stroke="none"
   vectornator:layerName="Curve 4"
   id="path148" />
<path
   d="m 1487.56,774.115 c -2.48,-0.078 -5.04,0.619 -7.43,2.244 l -99.53,67.764 c -7.33,4.991 -7.4,15.787 -0.08,20.804 0.74,0.513 13.47,9.253 23.91,16.402 l -162.84,223.361 20.46,14.67 163.18,-223.788 c 11.9,8.151 25.43,17.394 26.25,17.956 7.26,4.98 17.23,1.214 19.33,-7.338 l 28.66,-116.364 c 2.07,-8.416 -4.49,-15.477 -11.91,-15.711 z"
   fill="#ffffff"
   fill-rule="nonzero"
   opacity="1"
   stroke="none"
   vectornator:layerName="Curve 5"
   id="path150" />
</g>
</g>
</svg>
