# Apple ModelIO OBJ File: case
mtllib case.mtl
g Cube.003
v -2.90989 0 0.493472
v -2.90989 1.13491 0.493472
v -2.90989 1.13491 -0.493472
v -2.90989 0 -0.493472
v -1.16031 0 -0.493472
v -1.16031 1.13491 -0.493472
v -1.09011 1.13491 -0.493472
v -1.09011 0 -0.493472
v -1.09011 1.13491 0.493472
v -1.09011 0 0.493472
v -2.81921 0 0.493472
v -2.81921 1.13491 0.493472
v -1.16031 0 0.493472
v -2.90989 2.13491 0.493472
v -2.90989 2.13491 -0.493472
v -2.81921 1.13491 -0.493472
v -1.16031 1.13491 0.493472
v -2.81921 0 -0.493472
v -2.81921 2.13491 -0.493472
v -2.81921 2.13491 0.493472
v -2.81921 2.2025 -0.493472
v -2.81921 2.2025 0.493472
v -1.16031 2.13491 -0.493472
v -1.16031 2.13491 0.493472
v -1.16031 2.2025 0.493472
v -1.16031 2.2025 -0.493472
v -1.09011 2.13491 -0.493472
v -1.09011 2.13491 0.493472
v -2.90989 2.2025 -0.493472
v -2.90989 2.2025 0.493472
v -1.09011 2.2025 -0.493472
v -1.09011 2.2025 0.493472
vn -1 -0 -0
vn -0 -0 -1
vn 1 -0 -0
vn -0 -0 1
vn -0 -1 -0
vn -0 1 -0
vt 0 0.527369
vt 0 0.255625
vt 0.236315 0.255625
vt 0.236315 0.527369
vt 0.67451 0.527369
vt 0.67451 0.255625
vt 0.682611 0.255625
vt 0.682611 0.527369
vt 0.472631 0.255625
vt 0.472631 0.527369
vt 0.882127 0.527369
vt 0.882127 0.255625
vt 0.892591 0.255625
vt 0.892591 0.527369
vt 0.480732 0.763684
vt 0.472631 0.763684
vt 0.480732 0.527369
vt 0 0.016183
vt 0.236315 0.016183
vt 0.664047 1
vt 0.472631 1
vt 0.664047 0.763684
vt 0.682611 0.763684
vt 0.672147 0.763684
vt 0.672147 0.527369
vt 0.690712 0.527369
vt 0.690712 0.255625
vt 0.483095 0.255625
vt 0.483095 0.527369
vt 0.472631 0.016183
vt 0.483095 0.016183
vt 0.236315 0.543552
vt 0 0.543552
vt 0.472631 0.543552
vt 0.882127 0.016183
vt 0.892591 0.016183
vt 0.236315 0.782994
vt 0 0.782994
vt 0.67451 0.016183
vt 0.682611 0.016183
vt 0.472631 0.782994
vt 0.690712 0.016183
vt 0.693075 0.763684
vt 0.693075 0.527369
vt 0.892591 0.763684
vt 0.88449 0.763684
vt 0.88449 0.527369
vt 0.882127 0
vt 0.892591 0
vt 0.67451 0
vt 0.682611 0
vt 0.690712 0
vt 0.472631 0
vt 0.483095 0
vt 0.236315 0
vt 0 0
vt 0.855462 1
vt 0.855462 0.763684
usemtl 
f 1/1/1 2/2/1 3/3/1
f 1/1/1 3/3/1 4/4/1
f 5/5/2 6/6/2 7/7/2
f 5/5/2 7/7/2 8/8/2
f 8/4/3 7/3/3 9/9/3
f 8/4/3 9/9/3 10/10/3
f 11/11/4 12/12/4 2/13/4
f 11/11/4 2/13/4 1/14/4
f 5/15/5 8/16/5 10/10/5
f 5/15/5 10/10/5 13/17/5
f 3/3/1 2/2/1 14/18/1
f 3/3/1 14/18/1 15/19/1
f 6/20/6 16/21/6 12/16/6
f 6/20/6 12/16/6 17/22/6
f 4/23/5 18/24/5 11/25/5
f 4/23/5 11/25/5 1/8/5
f 13/26/4 17/27/4 12/12/4
f 13/26/4 12/12/4 11/11/4
f 4/10/2 3/9/2 16/28/2
f 4/10/2 16/28/2 18/29/2
f 10/8/4 9/7/4 17/27/4
f 10/8/4 17/27/4 13/26/4
f 16/28/2 3/9/2 15/30/2
f 16/28/2 15/30/2 19/31/2
f 18/24/5 5/15/5 13/17/5
f 18/24/5 13/17/5 11/25/5
f 18/29/2 16/28/2 6/6/2
f 18/29/2 6/6/2 5/5/2
f 20/32/3 19/33/3 21/1/3
f 20/32/3 21/1/3 22/4/3
f 23/34/1 24/32/1 25/4/1
f 23/34/1 25/4/1 26/10/1
f 2/13/4 12/12/4 20/35/4
f 2/13/4 20/35/4 14/36/4
f 12/37/3 16/38/3 19/33/3
f 12/37/3 19/33/3 20/32/3
f 7/7/2 6/6/2 23/39/2
f 7/7/2 23/39/2 27/40/2
f 6/41/1 17/37/1 24/32/1
f 6/41/1 24/32/1 23/34/1
f 17/27/4 9/7/4 28/40/4
f 17/27/4 28/40/4 24/42/4
f 9/9/3 7/3/3 27/19/3
f 9/9/3 27/19/3 28/30/3
f 21/43/6 29/23/6 30/8/6
f 21/43/6 30/8/6 22/44/6
f 31/45/6 26/46/6 25/47/6
f 31/45/6 25/47/6 32/14/6
f 14/36/4 20/35/4 22/48/4
f 14/36/4 22/48/4 30/49/4
f 27/40/2 23/39/2 26/50/2
f 27/40/2 26/50/2 31/51/2
f 24/42/4 28/40/4 32/51/4
f 24/42/4 32/51/4 25/52/4
f 19/31/2 15/30/2 29/53/2
f 19/31/2 29/53/2 21/54/2
f 28/30/3 27/19/3 31/55/3
f 28/30/3 31/55/3 32/53/3
f 15/19/1 14/18/1 30/56/1
f 15/19/1 30/56/1 29/55/1
f 20/35/4 24/42/4 25/52/4
f 20/35/4 25/52/4 22/48/4
f 23/39/2 19/31/2 21/54/2
f 23/39/2 21/54/2 26/50/2
f 23/57/6 19/20/6 20/22/6
f 23/57/6 20/22/6 24/58/6
f 26/46/6 21/43/6 22/44/6
f 26/46/6 22/44/6 25/47/6
s off
