# Blender 3.6.5
# www.blender.org
mtllib case.mtl
o case
v -0.909893 0.000000 0.493472
v -0.909893 1.134909 0.493472
v -0.909893 0.000000 -0.493472
v -0.909893 1.134909 -0.493472
v 0.909893 0.000000 0.493472
v 0.909893 1.134909 0.493472
v 0.909893 0.000000 -0.493472
v 0.909893 1.134909 -0.493472
v -0.819208 0.000000 -0.493472
v -0.819208 1.134909 -0.493472
v -0.819208 0.000000 0.493472
v -0.819208 1.134909 0.493472
v 0.839689 1.134909 -0.493472
v 0.839689 0.000000 0.493472
v 0.839689 0.000000 -0.493472
v 0.839689 1.134909 0.493472
v -0.909893 2.134908 0.493472
v -0.909893 2.134908 -0.493472
v 0.839689 2.134908 -0.493472
v 0.909893 2.134908 -0.493472
v 0.909893 2.134908 0.493472
v -0.819208 2.134908 0.493472
v -0.819208 2.134908 -0.493472
v 0.839689 2.134908 0.493472
v -0.909893 2.202496 0.493472
v -0.909893 2.202496 -0.493472
v 0.839689 2.202496 -0.493472
v 0.909893 2.202496 -0.493472
v 0.909893 2.202496 0.493472
v -0.819208 2.202496 0.493472
v -0.819208 2.202496 -0.493472
v 0.839689 2.202496 0.493472
vn -1.0000 -0.0000 -0.0000
vn -0.0000 -0.0000 -1.0000
vn 1.0000 -0.0000 -0.0000
vn -0.0000 -0.0000 1.0000
vn -0.0000 -1.0000 -0.0000
vn -0.0000 1.0000 -0.0000
vt 0.000000 0.527369
vt 0.000000 0.255625
vt 0.236315 0.255625
vt 0.236315 0.527369
vt 0.674510 0.527369
vt 0.674510 0.255625
vt 0.682611 0.255625
vt 0.682611 0.527369
vt 0.472631 0.255625
vt 0.472631 0.527369
vt 0.882127 0.527369
vt 0.882127 0.255625
vt 0.892591 0.255625
vt 0.892591 0.527369
vt 0.480732 0.763684
vt 0.472631 0.763684
vt 0.480732 0.527369
vt 0.000000 0.016183
vt 0.236315 0.016183
vt 0.664047 1.000000
vt 0.472631 1.000000
vt 0.472631 0.763684
vt 0.664047 0.763684
vt 0.682611 0.763684
vt 0.672147 0.763684
vt 0.672147 0.527369
vt 0.690712 0.527369
vt 0.690712 0.255625
vt 0.483095 0.255625
vt 0.483095 0.527369
vt 0.472631 0.016183
vt 0.483095 0.016183
vt 0.236315 0.543552
vt 0.000000 0.543552
vt 0.472631 0.543552
vt 0.882127 0.016183
vt 0.892591 0.016183
vt 0.236315 0.782994
vt 0.000000 0.782994
vt 0.674510 0.016183
vt 0.682611 0.016183
vt 0.472631 0.782994
vt 0.690712 0.016183
vt 0.693075 0.763684
vt 0.693075 0.527369
vt 0.892591 0.763684
vt 0.884490 0.763684
vt 0.884490 0.527369
vt 0.882127 0.000000
vt 0.892591 0.000000
vt 0.674510 0.000000
vt 0.682611 0.000000
vt 0.690712 0.000000
vt 0.472631 0.000000
vt 0.483095 0.000000
vt 0.236315 0.000000
vt 0.000000 0.000000
vt 0.855462 1.000000
vt 0.855462 0.763684
s 0
usemtl case
f 1/1/1 2/2/1 4/3/1 3/4/1
f 15/5/2 13/6/2 8/7/2 7/8/2
f 7/4/3 8/3/3 6/9/3 5/10/3
f 11/11/4 12/12/4 2/13/4 1/14/4
f 15/15/5 7/16/5 5/10/5 14/17/5
f 4/3/1 2/2/1 17/18/1 18/19/1
f 13/20/6 10/21/6 12/22/6 16/23/6
f 3/24/5 9/25/5 11/26/5 1/8/5
f 14/27/4 16/28/4 12/12/4 11/11/4
f 3/10/2 4/9/2 10/29/2 9/30/2
f 5/8/4 6/7/4 16/28/4 14/27/4
f 10/29/2 4/9/2 18/31/2 23/32/2
f 9/25/5 15/15/5 14/17/5 11/26/5
f 9/30/2 10/29/2 13/6/2 15/5/2
f 22/33/3 23/34/3 31/1/3 30/4/3
f 19/35/1 24/33/1 32/4/1 27/10/1
f 2/13/4 12/12/4 22/36/4 17/37/4
f 12/38/3 10/39/3 23/34/3 22/33/3
f 8/7/2 13/6/2 19/40/2 20/41/2
f 13/42/1 16/38/1 24/33/1 19/35/1
f 16/28/4 6/7/4 21/41/4 24/43/4
f 6/9/3 8/3/3 20/19/3 21/31/3
f 31/44/6 26/24/6 25/8/6 30/45/6
f 28/46/6 27/47/6 32/48/6 29/14/6
f 17/37/4 22/36/4 30/49/4 25/50/4
f 20/41/2 19/40/2 27/51/2 28/52/2
f 24/43/4 21/41/4 29/52/4 32/53/4
f 23/32/2 18/31/2 26/54/2 31/55/2
f 21/31/3 20/19/3 28/56/3 29/54/3
f 18/19/1 17/18/1 25/57/1 26/56/1
f 22/36/4 24/43/4 32/53/4 30/49/4
f 19/40/2 23/32/2 31/55/2 27/51/2
f 19/58/6 23/20/6 22/23/6 24/59/6
f 27/47/6 31/44/6 30/45/6 32/48/6
