# Apple ModelIO OBJ File: door1
mtllib door1.mtl
g door1
v -0.040868 -1 1
v -0.040868 1 1
v -0.040868 1 -1
v -0.040868 -1 -1
v 0.040868 1 -1
v 0.040868 -1 -1
v 0.040868 1 1
v 0.040868 -1 1
vn -1 -0 -0
vn -0 -0 -1
vn 1 -0 -0
vn -0 -0 1
vn -0 -1 -0
vn -0 1 -0
vt 0.019632 0.5
vt 0.019632 0.019632
vt 0.5 0.019632
vt 0.5 0.5
vt 0.519632 0.019632
vt 0.519632 0.5
vt 0.5 0.519632
vt 0.5 1
vt 0.019632 1
vt 0.019632 0.519632
vt 0 0.5
vt 0 0.019632
vt 0.5 0
vt 0.019632 0
usemtl 
f 1/1/1 2/2/1 3/3/1
f 1/1/1 3/3/1 4/4/1
f 4/4/2 3/3/2 5/5/2
f 4/4/2 5/5/2 6/6/2
f 6/7/3 5/8/3 7/9/3
f 6/7/3 7/9/3 8/10/3
f 8/11/4 7/12/4 2/2/4
f 8/11/4 2/2/4 1/1/4
f 4/4/5 6/7/5 8/10/5
f 4/4/5 8/10/5 1/1/5
f 5/13/6 3/3/6 2/2/6
f 5/13/6 2/2/6 7/14/6
s off
