# Apple ModelIO OBJ File: firstaid
mtllib firstaid.mtl
g firstaid
v -0.046943 -0.163627 0.15839
v -0.046943 0.163627 0.15839
v -0.046943 0.163627 -0.15839
v -0.046943 -0.163627 -0.15839
v 0.046943 0.163627 -0.15839
v 0.046943 -0.163627 -0.15839
v 0.046943 0.163627 0.15839
v 0.046943 -0.163627 0.15839
vn -1 -0 -0
vn -0 -0 -1
vn 1 -0 -0
vn -0 -0 1
vn -0 -1 -0
vn -0 1 -0
vt 0.111466 0.5
vt 0.111466 0.111466
vt 0.487564 0.111466
vt 0.487564 0.5
vt 0.59903 0.111466
vt 0.59903 0.5
vt 0.487564 0.611466
vt 0.487564 1
vt 0.111466 1
vt 0.111466 0.611466
vt 0 0.5
vt 0 0.111466
vt 0.487564 0
vt 0.111466 0
usemtl 
f 1/1/1 2/2/1 3/3/1
f 1/1/1 3/3/1 4/4/1
f 4/4/2 3/3/2 5/5/2
f 4/4/2 5/5/2 6/6/2
f 6/7/3 5/8/3 7/9/3
f 6/7/3 7/9/3 8/10/3
f 8/11/4 7/12/4 2/2/4
f 8/11/4 2/2/4 1/1/4
f 4/4/5 6/7/5 8/10/5
f 4/4/5 8/10/5 1/1/5
f 5/13/6 3/3/6 2/2/6
f 5/13/6 2/2/6 7/14/6
s off
