# Blender 3.6.5
# www.blender.org
mtllib stool.mtl
o stool
v -0.236705 -0.000000 0.236705
v -0.236705 0.040294 0.236705
v -0.236705 -0.000000 -0.236705
v -0.236705 0.040294 -0.236705
v 0.236705 -0.000000 0.236705
v 0.236705 0.040294 0.236705
v 0.236705 -0.000000 -0.236705
v 0.236705 0.040294 -0.236705
v -0.331387 -0.000000 0.000000
v -0.331387 0.040294 0.000000
v 0.331387 -0.000000 0.000000
v 0.331387 0.040294 0.000000
v 0.000000 -0.000000 -0.331387
v 0.000000 0.040294 -0.331387
v 0.000000 -0.000000 0.331387
v 0.000000 0.040294 0.331387
v 0.000000 -0.000000 0.000000
v -0.065187 0.093242 -0.000000
v -0.000000 0.093242 -0.065187
v 0.065187 0.093242 -0.000000
v -0.000000 0.093242 0.065187
v 0.046603 0.093242 -0.046603
v -0.046603 0.093242 -0.046603
v -0.046603 0.093242 0.046603
v 0.046603 0.093242 0.046603
v 0.000000 0.967903 -0.000000
v -0.065187 0.865013 -0.000000
v -0.000000 0.865013 -0.065187
v 0.065187 0.865013 -0.000000
v -0.000000 0.865013 0.065187
v 0.046603 0.865013 -0.046603
v -0.046603 0.865013 -0.046603
v -0.046603 0.865013 0.046603
v 0.046603 0.865013 0.046603
v -0.370954 0.860585 -0.000000
v 0.000000 0.860585 -0.370954
v 0.370954 0.860585 -0.000000
v 0.000000 0.860585 0.370954
v 0.265197 0.860585 -0.265197
v -0.265197 0.860585 -0.265197
v -0.265198 0.860585 0.265197
v 0.265197 0.860585 0.265197
v -0.370954 0.967903 -0.000000
v 0.000000 0.967903 -0.370954
v 0.370954 0.967903 -0.000000
v 0.000000 0.967903 0.370954
v 0.265197 0.967903 -0.265197
v -0.265197 0.967903 -0.265197
v -0.265198 0.967903 0.265197
v 0.265197 0.967903 0.265197
vn -0.9285 -0.0000 -0.3714
vn 0.3714 -0.0000 -0.9285
vn 0.9285 -0.0000 0.3714
vn -0.3714 -0.0000 0.9285
vn -0.0000 -1.0000 -0.0000
vn 0.9289 -0.0000 -0.3704
vn -0.0778 0.9778 -0.1945
vn 0.9285 -0.0000 -0.3714
vn -0.9285 -0.0000 0.3714
vn 0.1945 0.9778 -0.0778
vn 0.1945 0.9778 0.0778
vn 0.3714 -0.0000 0.9285
vn -0.3714 -0.0000 -0.9285
vn 0.3704 -0.0000 0.9289
vn -0.0778 0.9778 0.1945
vn 0.3704 -0.0000 -0.9289
vn -0.9289 -0.0000 -0.3704
vn 0.0778 0.9778 -0.1945
vn -0.1945 0.9778 -0.0778
vn -0.1945 0.9778 0.0778
vn 0.0778 0.9778 0.1945
vn 0.0145 -0.9999 -0.0058
vn 0.0058 -0.9999 0.0145
vn 0.0145 -0.9999 0.0058
vn -0.0145 -0.9999 -0.0058
vn -0.3704 -0.0000 -0.9289
vn -0.9289 -0.0000 0.3704
vn 0.9289 -0.0000 0.3704
vn -0.3704 -0.0000 0.9289
vn 0.0058 -0.9999 -0.0145
vn -0.0058 -0.9999 0.0145
vn -0.0058 -0.9999 -0.0145
vn -0.0145 -0.9999 0.0058
vn -0.0000 1.0000 -0.0000
vt 0.101818 0.669632
vt 0.139820 0.669632
vt 0.139820 0.781203
vt 0.101818 0.781203
vt 0.101818 0.000201
vt 0.139820 0.000201
vt 0.139820 0.111773
vt 0.101818 0.111773
vt 0.101818 0.223345
vt 0.139820 0.223345
vt 0.139820 0.334917
vt 0.101818 0.334917
vt 0.101818 0.446488
vt 0.139820 0.446488
vt 0.139820 0.558060
vt 0.101818 0.558060
vt 0.733447 0.738934
vt 0.787310 0.873590
vt 0.675738 0.873590
vt 0.598792 0.792796
vt 0.271967 0.000201
vt 0.293924 0.000201
vt 0.293924 0.728071
vt 0.271967 0.728071
vt 0.513215 0.886641
vt 0.396558 0.886426
vt 0.446239 0.771271
vt 0.467528 0.771217
vt 0.868103 0.685072
vt 0.868103 0.796644
vt 0.791157 0.604279
vt 0.679585 0.604279
vt 0.598389 0.806310
vt 0.483246 0.756666
vt 0.482893 0.735302
vt 0.598389 0.689191
vt 0.468434 0.719649
vt 0.518115 0.604493
vt 0.598792 0.681225
vt 0.139820 0.892775
vt 0.101818 0.892775
vt 0.228052 0.000201
vt 0.250009 0.000201
vt 0.250009 0.728071
vt 0.228052 0.728071
vt 0.447145 0.719703
vt 0.431427 0.734254
vt 0.316284 0.684610
vt 0.401458 0.604279
vt 0.315881 0.000201
vt 0.315881 0.728071
vt 0.162180 0.000201
vt 0.184138 0.000201
vt 0.184138 0.728071
vt 0.162180 0.728071
vt 0.316284 0.801728
vt 0.431780 0.755618
vt 0.440627 0.161605
vt 0.455732 0.177536
vt 0.402285 0.301876
vt 0.316284 0.211189
vt 0.456555 0.124545
vt 0.440626 0.139652
vt 0.316284 0.086208
vt 0.406969 0.000203
vt 0.493617 0.162430
vt 0.493615 0.140475
vt 0.617961 0.090890
vt 0.617959 0.215877
vt 0.140223 0.000201
vt 0.140223 0.728071
vt 0.206095 0.000201
vt 0.206095 0.728071
vt 0.101415 0.125151
vt 0.101415 0.250101
vt 0.000202 0.250101
vt 0.000202 0.125151
vt 0.101415 0.624950
vt 0.101415 0.749899
vt 0.000202 0.749899
vt 0.000202 0.624950
vt 0.101415 0.874849
vt 0.000201 0.874849
vt 0.101415 0.500000
vt 0.000202 0.500000
vt 0.477686 0.177536
vt 0.527267 0.301880
vt 0.478509 0.124544
vt 0.531954 0.000202
vt 0.467081 0.453079
vt 0.406945 0.302283
vt 0.531895 0.302283
vt 0.617877 0.392944
vt 0.527216 0.603876
vt 0.402266 0.603876
vt 0.316284 0.513215
vt 0.617877 0.517893
vt 0.316284 0.388265
vt 0.101415 0.000201
vt 0.000202 0.000201
vt 0.101415 0.375050
vt 0.000202 0.375050
vt 0.101415 0.999799
vt 0.000201 0.999798
s 0
usemtl stool
f 9/1/1 10/2/1 4/3/1 3/4/1
f 13/5/2 14/6/2 8/7/2 7/8/2
f 11/9/3 12/10/3 6/11/3 5/12/3
f 15/13/4 16/14/4 2/15/4 1/16/4
f 17/17/5 11/18/5 5/19/5 15/20/5
f 20/21/6 22/22/6 31/23/6 29/24/6
f 14/25/7 4/26/7 23/27/7 19/28/7
f 13/29/5 7/30/5 11/18/5 17/17/5
f 7/8/8 8/7/8 12/10/8 11/9/8
f 1/16/9 2/15/9 10/2/9 9/1/9
f 3/31/5 13/29/5 17/17/5 9/32/5
f 8/33/10 22/34/10 20/35/10 12/36/10
f 12/36/11 20/35/11 25/37/11 6/38/11
f 9/32/5 17/17/5 15/20/5 1/39/5
f 5/12/12 6/11/12 16/14/12 15/13/12
f 3/4/13 4/3/13 14/40/13 13/41/13
f 21/42/14 25/43/14 34/44/14 30/45/14
f 21/46/15 24/47/15 2/48/15 16/49/15
f 22/22/16 19/50/16 28/51/16 31/23/16
f 23/52/17 18/53/17 27/54/17 32/55/17
f 22/34/18 8/33/18 14/25/18 19/28/18
f 23/27/19 4/26/19 10/56/19 18/57/19
f 2/48/20 24/47/20 18/57/20 10/56/20
f 6/38/21 25/37/21 21/46/21 16/49/21
f 27/58/22 33/59/22 41/60/22 35/61/22
f 28/62/23 32/63/23 40/64/23 36/65/23
f 32/63/24 27/58/24 35/61/24 40/64/24
f 34/66/25 29/67/25 37/68/25 42/69/25
f 19/70/26 23/52/26 32/55/26 28/71/26
f 18/53/27 24/72/27 33/73/27 27/54/27
f 25/43/28 20/21/28 29/24/28 34/44/28
f 24/72/29 21/42/29 30/45/29 33/73/29
f 40/74/17 35/75/17 43/76/17 48/77/17
f 42/78/28 37/79/28 45/80/28 50/81/28
f 37/79/6 39/82/6 47/83/6 45/80/6
f 38/84/14 42/78/14 50/81/14 46/85/14
f 33/59/30 30/86/30 38/87/30 41/60/30
f 31/88/31 28/62/31 36/65/31 39/89/31
f 30/86/32 34/66/32 42/69/32 38/87/32
f 29/67/33 31/88/33 39/89/33 37/68/33
f 26/90/34 43/91/34 49/92/34 46/93/34
f 45/94/34 47/95/34 44/96/34 26/90/34
f 46/93/34 50/97/34 45/94/34 26/90/34
f 44/96/34 48/98/34 43/91/34 26/90/34
f 36/99/26 40/74/26 48/77/26 44/100/26
f 35/75/27 41/101/27 49/102/27 43/76/27
f 41/101/29 38/84/29 46/85/29 49/102/29
f 39/82/16 36/103/16 44/104/16 47/83/16
