{
	"asset":{
		"generator":"Khronos glTF Blender I/O v4.0.43",
		"version":"2.0"
	},
	"scene":0,
	"scenes":[
		{
			"name":"Scene",
			"nodes":[
				0,
				1,
				2,
				3,
				4,
				5,
				6,
				7,
				8,
				9,
				10,
				11,
				12
			]
		}
	],
	"nodes":[
		{
			"mesh":0,
			"name":"floor"
		},
		{
			"mesh":1,
			"name":"thickWallIsle"
		},
		{
			"mesh":2,
			"name":"ceiling"
		},
		{
			"mesh":3,
			"name":"thickWallCap"
		},
		{
			"mesh":4,
			"name":"smallWindow"
		},
		{
			"mesh":5,
			"name":"thinWall"
		},
		{
			"mesh":6,
			"name":"smallDoorway"
		},
		{
			"mesh":7,
			"name":"largeDoorway"
		},
		{
			"mesh":8,
			"name":"floorVent"
		},
		{
			"mesh":9,
			"name":"ceilingVent"
		},
		{
			"mesh":10,
			"name":"thickWall"
		},
		{
			"mesh":11,
			"name":"largeWindow"
		},
		{
			"mesh":12,
			"name":"ceilingLight"
		}
	],
	"materials":[
		{
			"name":"floor",
			"pbrMetallicRoughness":{
				"baseColorTexture":{
					"index":0
				},
				"metallicFactor":0
			}
		},
		{
			"name":"walls",
			"pbrMetallicRoughness":{
				"baseColorTexture":{
					"index":1
				},
				"metallicFactor":0
			}
		},
		{
			"name":"ceiling",
			"pbrMetallicRoughness":{
				"baseColorTexture":{
					"index":2
				},
				"metallicFactor":0
			}
		},
		{
			"emissiveFactor":[
				0.75,
				0.75,
				0.75
			],
			"emissiveTexture":{
				"index":3
			},
			"name":"ceilingLight",
			"pbrMetallicRoughness":{
				"baseColorTexture":{
					"index":4
				},
				"metallicFactor":0
			}
		}
	],
	"meshes":[
		{
			"name":"Plane",
			"primitives":[
				{
					"attributes":{
						"POSITION":0,
						"NORMAL":1,
						"TEXCOORD_0":2
					},
					"indices":3,
					"material":0
				}
			]
		},
		{
			"name":"Cube.001",
			"primitives":[
				{
					"attributes":{
						"POSITION":4,
						"NORMAL":5,
						"TEXCOORD_0":6
					},
					"indices":7,
					"material":1
				}
			]
		},
		{
			"name":"Plane.001",
			"primitives":[
				{
					"attributes":{
						"POSITION":8,
						"NORMAL":9,
						"TEXCOORD_0":10
					},
					"indices":11,
					"material":2
				}
			]
		},
		{
			"name":"Cube.002",
			"primitives":[
				{
					"attributes":{
						"POSITION":12,
						"NORMAL":13,
						"TEXCOORD_0":14
					},
					"indices":15,
					"material":1
				}
			]
		},
		{
			"name":"Cube.003",
			"primitives":[
				{
					"attributes":{
						"POSITION":16,
						"NORMAL":17,
						"TEXCOORD_0":18
					},
					"indices":19,
					"material":1
				}
			]
		},
		{
			"name":"Cube.004",
			"primitives":[
				{
					"attributes":{
						"POSITION":20,
						"NORMAL":21,
						"TEXCOORD_0":22
					},
					"indices":3,
					"material":1
				}
			]
		},
		{
			"name":"Cube.005",
			"primitives":[
				{
					"attributes":{
						"POSITION":23,
						"NORMAL":24,
						"TEXCOORD_0":25
					},
					"indices":26,
					"material":1
				}
			]
		},
		{
			"name":"Cube.006",
			"primitives":[
				{
					"attributes":{
						"POSITION":27,
						"NORMAL":28,
						"TEXCOORD_0":29
					},
					"indices":26,
					"material":1
				}
			]
		},
		{
			"name":"Cube.007",
			"primitives":[
				{
					"attributes":{
						"POSITION":30,
						"NORMAL":31,
						"TEXCOORD_0":32
					},
					"indices":26,
					"material":1
				}
			]
		},
		{
			"name":"Cube.009",
			"primitives":[
				{
					"attributes":{
						"POSITION":33,
						"NORMAL":34,
						"TEXCOORD_0":35
					},
					"indices":36,
					"material":1
				}
			]
		},
		{
			"name":"Cube.010",
			"primitives":[
				{
					"attributes":{
						"POSITION":37,
						"NORMAL":38,
						"TEXCOORD_0":39
					},
					"indices":40,
					"material":1
				}
			]
		},
		{
			"name":"Cube.011",
			"primitives":[
				{
					"attributes":{
						"POSITION":41,
						"NORMAL":42,
						"TEXCOORD_0":43
					},
					"indices":19,
					"material":1
				}
			]
		},
		{
			"name":"Plane.002",
			"primitives":[
				{
					"attributes":{
						"POSITION":44,
						"NORMAL":45,
						"TEXCOORD_0":46
					},
					"indices":11,
					"material":3
				}
			]
		}
	],
	"textures":[
		{
			"sampler":0,
			"source":0
		},
		{
			"sampler":0,
			"source":1
		},
		{
			"sampler":0,
			"source":2
		},
		{
			"sampler":0,
			"source":3
		},
		{
			"sampler":0,
			"source":3
		}
	],
	"images":[
		{
			"mimeType":"image/png",
			"name":"Carpet1",
			"uri":"Carpet1.png"
		},
		{
			"mimeType":"image/png",
			"name":"Drywall",
			"uri":"Drywall.png"
		},
		{
			"mimeType":"image/png",
			"name":"Ceiling",
			"uri":"Ceiling.png"
		},
		{
			"mimeType":"image/png",
			"name":"Ceiling light",
			"uri":"Ceiling%20light.png"
		}
	],
	"accessors":[
		{
			"bufferView":0,
			"componentType":5126,
			"count":4,
			"max":[
				40,
				0,
				40
			],
			"min":[
				-40,
				0,
				-40
			],
			"type":"VEC3"
		},
		{
			"bufferView":1,
			"componentType":5126,
			"count":4,
			"type":"VEC3"
		},
		{
			"bufferView":2,
			"componentType":5126,
			"count":4,
			"type":"VEC2"
		},
		{
			"bufferView":3,
			"componentType":5123,
			"count":6,
			"type":"SCALAR"
		},
		{
			"bufferView":4,
			"componentType":5126,
			"count":16,
			"max":[
				1,
				6,
				0
			],
			"min":[
				0,
				0,
				-6
			],
			"type":"VEC3"
		},
		{
			"bufferView":5,
			"componentType":5126,
			"count":16,
			"type":"VEC3"
		},
		{
			"bufferView":6,
			"componentType":5126,
			"count":16,
			"type":"VEC2"
		},
		{
			"bufferView":7,
			"componentType":5123,
			"count":24,
			"type":"SCALAR"
		},
		{
			"bufferView":8,
			"componentType":5126,
			"count":4,
			"max":[
				40,
				6,
				40
			],
			"min":[
				-40,
				6,
				-40
			],
			"type":"VEC3"
		},
		{
			"bufferView":9,
			"componentType":5126,
			"count":4,
			"type":"VEC3"
		},
		{
			"bufferView":10,
			"componentType":5126,
			"count":4,
			"type":"VEC2"
		},
		{
			"bufferView":11,
			"componentType":5123,
			"count":6,
			"type":"SCALAR"
		},
		{
			"bufferView":12,
			"componentType":5126,
			"count":12,
			"max":[
				1,
				6,
				0
			],
			"min":[
				0,
				0,
				-6
			],
			"type":"VEC3"
		},
		{
			"bufferView":13,
			"componentType":5126,
			"count":12,
			"type":"VEC3"
		},
		{
			"bufferView":14,
			"componentType":5126,
			"count":12,
			"type":"VEC2"
		},
		{
			"bufferView":15,
			"componentType":5123,
			"count":18,
			"type":"SCALAR"
		},
		{
			"bufferView":16,
			"componentType":5126,
			"count":32,
			"max":[
				1,
				6,
				0
			],
			"min":[
				0,
				0,
				-6
			],
			"type":"VEC3"
		},
		{
			"bufferView":17,
			"componentType":5126,
			"count":32,
			"type":"VEC3"
		},
		{
			"bufferView":18,
			"componentType":5126,
			"count":32,
			"type":"VEC2"
		},
		{
			"bufferView":19,
			"componentType":5123,
			"count":72,
			"type":"SCALAR"
		},
		{
			"bufferView":20,
			"componentType":5126,
			"count":4,
			"max":[
				0,
				6,
				0
			],
			"min":[
				0,
				0,
				-6
			],
			"type":"VEC3"
		},
		{
			"bufferView":21,
			"componentType":5126,
			"count":4,
			"type":"VEC3"
		},
		{
			"bufferView":22,
			"componentType":5126,
			"count":4,
			"type":"VEC2"
		},
		{
			"bufferView":23,
			"componentType":5126,
			"count":28,
			"max":[
				1,
				6,
				0
			],
			"min":[
				0,
				0,
				-6
			],
			"type":"VEC3"
		},
		{
			"bufferView":24,
			"componentType":5126,
			"count":28,
			"type":"VEC3"
		},
		{
			"bufferView":25,
			"componentType":5126,
			"count":28,
			"type":"VEC2"
		},
		{
			"bufferView":26,
			"componentType":5123,
			"count":54,
			"type":"SCALAR"
		},
		{
			"bufferView":27,
			"componentType":5126,
			"count":28,
			"max":[
				1,
				6,
				0
			],
			"min":[
				0,
				0,
				-6
			],
			"type":"VEC3"
		},
		{
			"bufferView":28,
			"componentType":5126,
			"count":28,
			"type":"VEC3"
		},
		{
			"bufferView":29,
			"componentType":5126,
			"count":28,
			"type":"VEC2"
		},
		{
			"bufferView":30,
			"componentType":5126,
			"count":28,
			"max":[
				1,
				6,
				0
			],
			"min":[
				0,
				0,
				-6
			],
			"type":"VEC3"
		},
		{
			"bufferView":31,
			"componentType":5126,
			"count":28,
			"type":"VEC3"
		},
		{
			"bufferView":32,
			"componentType":5126,
			"count":28,
			"type":"VEC2"
		},
		{
			"bufferView":33,
			"componentType":5126,
			"count":28,
			"max":[
				1,
				6,
				0
			],
			"min":[
				0,
				0,
				-6
			],
			"type":"VEC3"
		},
		{
			"bufferView":34,
			"componentType":5126,
			"count":28,
			"type":"VEC3"
		},
		{
			"bufferView":35,
			"componentType":5126,
			"count":28,
			"type":"VEC2"
		},
		{
			"bufferView":36,
			"componentType":5123,
			"count":54,
			"type":"SCALAR"
		},
		{
			"bufferView":37,
			"componentType":5126,
			"count":8,
			"max":[
				1,
				6,
				0
			],
			"min":[
				0,
				0,
				-6
			],
			"type":"VEC3"
		},
		{
			"bufferView":38,
			"componentType":5126,
			"count":8,
			"type":"VEC3"
		},
		{
			"bufferView":39,
			"componentType":5126,
			"count":8,
			"type":"VEC2"
		},
		{
			"bufferView":40,
			"componentType":5123,
			"count":12,
			"type":"SCALAR"
		},
		{
			"bufferView":41,
			"componentType":5126,
			"count":32,
			"max":[
				1,
				6,
				0
			],
			"min":[
				0,
				0,
				-6
			],
			"type":"VEC3"
		},
		{
			"bufferView":42,
			"componentType":5126,
			"count":32,
			"type":"VEC3"
		},
		{
			"bufferView":43,
			"componentType":5126,
			"count":32,
			"type":"VEC2"
		},
		{
			"bufferView":44,
			"componentType":5126,
			"count":4,
			"max":[
				0.9328845739364624,
				5.990793704986572,
				0.9328845739364624
			],
			"min":[
				-0.9328845739364624,
				5.990793704986572,
				-0.9328845739364624
			],
			"type":"VEC3"
		},
		{
			"bufferView":45,
			"componentType":5126,
			"count":4,
			"type":"VEC3"
		},
		{
			"bufferView":46,
			"componentType":5126,
			"count":4,
			"type":"VEC2"
		}
	],
	"bufferViews":[
		{
			"buffer":0,
			"byteLength":48,
			"byteOffset":0,
			"target":34962
		},
		{
			"buffer":0,
			"byteLength":48,
			"byteOffset":48,
			"target":34962
		},
		{
			"buffer":0,
			"byteLength":32,
			"byteOffset":96,
			"target":34962
		},
		{
			"buffer":0,
			"byteLength":12,
			"byteOffset":128,
			"target":34963
		},
		{
			"buffer":0,
			"byteLength":192,
			"byteOffset":140,
			"target":34962
		},
		{
			"buffer":0,
			"byteLength":192,
			"byteOffset":332,
			"target":34962
		},
		{
			"buffer":0,
			"byteLength":128,
			"byteOffset":524,
			"target":34962
		},
		{
			"buffer":0,
			"byteLength":48,
			"byteOffset":652,
			"target":34963
		},
		{
			"buffer":0,
			"byteLength":48,
			"byteOffset":700,
			"target":34962
		},
		{
			"buffer":0,
			"byteLength":48,
			"byteOffset":748,
			"target":34962
		},
		{
			"buffer":0,
			"byteLength":32,
			"byteOffset":796,
			"target":34962
		},
		{
			"buffer":0,
			"byteLength":12,
			"byteOffset":828,
			"target":34963
		},
		{
			"buffer":0,
			"byteLength":144,
			"byteOffset":840,
			"target":34962
		},
		{
			"buffer":0,
			"byteLength":144,
			"byteOffset":984,
			"target":34962
		},
		{
			"buffer":0,
			"byteLength":96,
			"byteOffset":1128,
			"target":34962
		},
		{
			"buffer":0,
			"byteLength":36,
			"byteOffset":1224,
			"target":34963
		},
		{
			"buffer":0,
			"byteLength":384,
			"byteOffset":1260,
			"target":34962
		},
		{
			"buffer":0,
			"byteLength":384,
			"byteOffset":1644,
			"target":34962
		},
		{
			"buffer":0,
			"byteLength":256,
			"byteOffset":2028,
			"target":34962
		},
		{
			"buffer":0,
			"byteLength":144,
			"byteOffset":2284,
			"target":34963
		},
		{
			"buffer":0,
			"byteLength":48,
			"byteOffset":2428,
			"target":34962
		},
		{
			"buffer":0,
			"byteLength":48,
			"byteOffset":2476,
			"target":34962
		},
		{
			"buffer":0,
			"byteLength":32,
			"byteOffset":2524,
			"target":34962
		},
		{
			"buffer":0,
			"byteLength":336,
			"byteOffset":2556,
			"target":34962
		},
		{
			"buffer":0,
			"byteLength":336,
			"byteOffset":2892,
			"target":34962
		},
		{
			"buffer":0,
			"byteLength":224,
			"byteOffset":3228,
			"target":34962
		},
		{
			"buffer":0,
			"byteLength":108,
			"byteOffset":3452,
			"target":34963
		},
		{
			"buffer":0,
			"byteLength":336,
			"byteOffset":3560,
			"target":34962
		},
		{
			"buffer":0,
			"byteLength":336,
			"byteOffset":3896,
			"target":34962
		},
		{
			"buffer":0,
			"byteLength":224,
			"byteOffset":4232,
			"target":34962
		},
		{
			"buffer":0,
			"byteLength":336,
			"byteOffset":4456,
			"target":34962
		},
		{
			"buffer":0,
			"byteLength":336,
			"byteOffset":4792,
			"target":34962
		},
		{
			"buffer":0,
			"byteLength":224,
			"byteOffset":5128,
			"target":34962
		},
		{
			"buffer":0,
			"byteLength":336,
			"byteOffset":5352,
			"target":34962
		},
		{
			"buffer":0,
			"byteLength":336,
			"byteOffset":5688,
			"target":34962
		},
		{
			"buffer":0,
			"byteLength":224,
			"byteOffset":6024,
			"target":34962
		},
		{
			"buffer":0,
			"byteLength":108,
			"byteOffset":6248,
			"target":34963
		},
		{
			"buffer":0,
			"byteLength":96,
			"byteOffset":6356,
			"target":34962
		},
		{
			"buffer":0,
			"byteLength":96,
			"byteOffset":6452,
			"target":34962
		},
		{
			"buffer":0,
			"byteLength":64,
			"byteOffset":6548,
			"target":34962
		},
		{
			"buffer":0,
			"byteLength":24,
			"byteOffset":6612,
			"target":34963
		},
		{
			"buffer":0,
			"byteLength":384,
			"byteOffset":6636,
			"target":34962
		},
		{
			"buffer":0,
			"byteLength":384,
			"byteOffset":7020,
			"target":34962
		},
		{
			"buffer":0,
			"byteLength":256,
			"byteOffset":7404,
			"target":34962
		},
		{
			"buffer":0,
			"byteLength":48,
			"byteOffset":7660,
			"target":34962
		},
		{
			"buffer":0,
			"byteLength":48,
			"byteOffset":7708,
			"target":34962
		},
		{
			"buffer":0,
			"byteLength":32,
			"byteOffset":7756,
			"target":34962
		}
	],
	"samplers":[
		{
			"magFilter":9729,
			"minFilter":9987
		}
	],
	"buffers":[
		{
			"byteLength":7788,
			"uri":"newtiles.bin"
		}
	]
}
