# Blender 3.6.5
# www.blender.org
mtllib shelf.mtl
o shelf
v -0.951691 0.048309 0.484557
v -0.951691 1.951691 0.484557
v -1.000000 0.000000 -0.484557
v -1.000000 2.000000 -0.484557
v 0.951691 0.048309 0.484557
v 0.951691 1.951691 0.484557
v 1.000000 0.000000 -0.484557
v 1.000000 2.000000 -0.484557
v -0.951691 1.103556 0.484557
v -1.000000 1.055247 -0.484557
v 1.000000 1.055247 -0.484557
v 0.951691 1.103556 0.484557
v -1.000000 0.555247 -0.484557
v 1.000000 0.555247 -0.484557
v 0.951691 0.603556 0.484557
v -0.951691 0.603556 0.484557
v -0.951691 1.603556 0.484557
v -1.000000 1.555247 -0.484557
v 1.000000 1.555247 -0.484557
v 0.951691 1.603556 0.484557
v -1.000000 1.487065 -0.484557
v 1.000000 1.487065 -0.484557
v 0.951691 1.438756 0.484557
v -0.951691 1.438756 0.484557
v -0.951691 0.943807 0.484557
v -1.000000 0.992116 -0.484557
v 1.000000 0.992116 -0.484557
v 0.951691 0.943807 0.484557
v -1.000000 0.489627 -0.484557
v 1.000000 0.489627 -0.484557
v 0.951691 0.441318 0.484557
v -0.951691 0.441318 0.484557
v -1.000000 1.555247 0.484557
v -1.000000 2.000000 0.484557
v 1.000000 0.489627 0.484557
v 1.000000 0.000000 0.484557
v -1.000000 0.000000 0.484557
v 1.000000 2.000000 0.484557
v 1.000000 1.487065 0.484557
v 1.000000 1.055247 0.484557
v -1.000000 1.055247 0.484557
v 1.000000 0.992116 0.484557
v 1.000000 0.555247 0.484557
v -1.000000 0.555247 0.484557
v 1.000000 1.555247 0.484557
v -1.000000 1.487065 0.484557
v -1.000000 0.992116 0.484557
v -1.000000 0.489627 0.484557
v -0.951691 1.603556 -0.411535
v -0.951691 1.951691 -0.411535
v 0.951691 0.441318 -0.411535
v 0.951691 0.048309 -0.411535
v -0.951691 0.048309 -0.411535
v 0.951691 1.951691 -0.411535
v 0.951691 1.438756 -0.411535
v 0.951691 1.103556 -0.411535
v -0.951691 1.103556 -0.411535
v 0.951691 0.943807 -0.411535
v 0.951691 0.603556 -0.411535
v -0.951691 0.603556 -0.411535
v 0.951691 1.603556 -0.411535
v -0.951691 1.438756 -0.411535
v -0.951691 0.943807 -0.411535
v -0.951691 0.441318 -0.411535
vn -1.0000 -0.0000 -0.0000
vn -0.0000 -0.0000 -1.0000
vn 1.0000 -0.0000 -0.0000
vn -0.0000 1.0000 -0.0000
vn -0.0000 -1.0000 -0.0000
vn -0.0000 -0.0000 1.0000
vt 0.329026 0.402194
vt 0.329026 0.329026
vt 0.488458 0.329026
vt 0.488458 0.402194
vt 0.000000 0.073168
vt 0.000000 0.000000
vt 0.329026 0.000000
vt 0.329026 0.073168
vt 0.647890 0.329026
vt 0.647890 0.402194
vt 0.647890 0.313131
vt 0.647890 0.000000
vt 0.795308 -0.000000
vt 0.795308 0.313131
vt 0.488458 -0.000000
vt 0.329026 0.000000
vt 0.647890 -0.000000
vt 0.000000 0.494836
vt 0.000000 0.484450
vt 0.329026 0.484450
vt 0.329026 0.494836
vt 0.488458 0.494836
vt 0.488458 0.484450
vt 0.647890 0.484450
vt 0.647890 0.494836
vt 0.000000 0.165810
vt 0.000000 0.155424
vt 0.329026 0.155424
vt 0.329026 0.165810
vt 0.329026 0.577502
vt 0.329026 0.566707
vt 0.488458 0.566707
vt 0.488458 0.577502
vt 0.000000 0.248476
vt 0.000000 0.237681
vt 0.329026 0.237681
vt 0.329026 0.248476
vt 0.647890 0.566707
vt 0.647890 0.577502
vt 0.000000 0.577502
vt 0.000000 0.566707
vt 0.000000 0.413410
vt 0.000000 0.402194
vt 0.329026 0.413410
vt 0.488458 0.413410
vt 0.647890 0.413410
vt 0.000000 0.084384
vt 0.329026 0.084384
vt 0.942727 0.294838
vt 0.998703 0.294838
vt 0.998703 0.442256
vt 0.942727 0.442256
vt 0.647686 0.805471
vt 0.592541 0.805471
vt 0.592541 0.658052
vt 0.647686 0.658052
vt 0.647890 0.626262
vt 0.795308 0.313131
vt 0.795308 0.626262
vt 0.488458 0.658052
vt 0.647890 0.658052
vt 0.000000 0.329026
vt 0.329026 0.658052
vt 0.321079 0.394246
vt 0.321079 0.336973
vt 0.007947 0.585449
vt 0.007947 0.650104
vt 0.000000 0.658052
vt 0.321079 0.650104
vt 0.007947 0.336973
vt 0.007947 0.421358
vt 0.007947 0.476503
vt 0.321079 0.476503
vt 0.007947 0.502783
vt 0.007947 0.558759
vt 0.321079 0.558759
vt 0.007947 0.394246
vt 0.321079 0.421358
vt 0.321079 0.502783
vt 0.321079 0.585449
vt 0.416766 0.971183
vt 0.359493 0.971183
vt 0.359493 0.658052
vt 0.416766 0.658052
vt 0.527886 0.971183
vt 0.472741 0.971183
vt 0.472741 0.658052
vt 0.527886 0.658052
vt 0.472741 0.971183
vt 0.416766 0.971183
vt 0.416766 0.658052
vt 0.472741 0.658052
vt 0.359493 0.971183
vt 0.294838 0.971183
vt 0.294838 0.658052
vt 0.359493 0.658052
vt 0.647890 0.939393
vt 0.795308 0.626262
vt 0.795308 0.939393
vt 0.998703 0.589675
vt 0.942727 0.589675
vt 0.942727 0.442256
vt 0.998703 0.442256
vt 0.527886 0.805471
vt 0.592541 0.805471
vt 0.592541 0.952890
vt 0.527886 0.952890
vt 0.795308 0.000000
vt 0.942727 -0.000000
vt 0.942727 0.313131
vt 0.942727 0.000000
vt 1.000000 0.000000
vt 1.000000 0.147419
vt 0.942727 0.147419
vt 0.795308 0.626262
vt 0.942727 0.313131
vt 0.942727 0.626262
vt 1.000000 0.294838
vt 0.942727 0.294838
vt 0.942727 0.147419
vt 1.000000 0.147419
vt 0.592541 0.805471
vt 0.527886 0.805471
vt 0.592541 0.658052
vt 0.795308 0.939393
vt 0.795308 0.626262
vt 0.942727 0.626262
vt 0.942727 0.939393
vt 0.000000 0.971183
vt -0.000000 0.658052
vt 0.147419 0.658052
vt 0.147419 0.971183
vt 0.592541 0.805471
vt 0.647686 0.805471
vt 0.647686 0.952890
vt 0.592541 0.952890
s 0
usemtl shelf
f 33/1/1 34/2/1 4/3/1 18/4/1
f 18/5/2 4/6/2 8/7/2 19/8/2
f 19/4/3 8/3/3 38/9/3 45/10/3
f 9/11/4 12/12/4 56/13/4 57/14/4
f 3/15/5 7/3/5 36/2/5 37/16/5
f 8/17/4 4/9/4 34/3/4 38/15/4
f 42/18/6 40/19/6 41/20/6 47/21/6
f 27/22/3 11/23/3 40/24/3 42/25/3
f 26/26/2 10/27/2 11/28/2 27/29/2
f 47/21/1 41/20/1 10/23/1 26/22/1
f 48/30/1 44/31/1 13/32/1 29/33/1
f 29/34/2 13/35/2 14/36/2 30/37/2
f 30/33/3 14/32/3 43/38/3 35/39/3
f 35/40/6 43/41/6 44/31/6 48/30/6
f 39/42/6 45/43/6 33/1/6 46/44/6
f 22/45/3 19/4/3 45/10/3 39/46/3
f 21/47/2 18/5/2 19/8/2 22/48/2
f 46/44/1 33/1/1 18/4/1 21/45/1
f 41/20/1 46/44/1 21/45/1 10/23/1
f 10/27/2 21/47/2 22/48/2 11/28/2
f 11/23/3 22/45/3 39/46/3 40/24/3
f 25/49/3 16/50/3 60/51/3 63/52/3
f 44/31/1 47/21/1 26/22/1 13/32/1
f 13/35/2 26/26/2 27/29/2 14/36/2
f 14/32/3 27/22/3 42/25/3 43/38/3
f 12/53/1 23/54/1 55/55/1 56/56/1
f 23/57/5 24/11/5 62/58/5 55/59/5
f 7/60/3 30/33/3 35/39/3 36/61/3
f 3/62/2 29/34/2 30/37/2 7/2/2
f 37/63/1 48/30/1 29/33/1 3/60/1
f 17/64/6 2/65/6 34/2/6 33/1/6
f 31/66/6 5/67/6 36/68/6 35/40/6
f 5/67/6 1/69/6 37/63/6 36/68/6
f 2/65/6 6/70/6 38/62/6 34/2/6
f 23/71/6 12/72/6 40/19/6 39/42/6
f 12/72/6 9/73/6 41/20/6 40/19/6
f 28/74/6 15/75/6 43/41/6 42/18/6
f 15/75/6 16/76/6 44/31/6 43/41/6
f 6/70/6 20/77/6 45/43/6 38/62/6
f 20/77/6 17/64/6 33/1/6 45/43/6
f 9/73/6 24/78/6 46/44/6 41/20/6
f 24/78/6 23/71/6 39/42/6 46/44/6
f 16/76/6 25/79/6 47/21/6 44/31/6
f 25/79/6 28/74/6 42/18/6 47/21/6
f 1/69/6 32/80/6 48/30/6 37/63/6
f 32/80/6 31/66/6 35/40/6 48/30/6
f 61/81/6 54/82/6 50/83/6 49/84/6
f 56/85/6 55/86/6 62/87/6 57/88/6
f 59/89/6 58/90/6 63/91/6 60/92/6
f 52/93/6 51/94/6 64/95/6 53/96/6
f 28/97/5 25/57/5 63/98/5 58/99/5
f 15/100/1 28/101/1 58/102/1 59/103/1
f 32/104/3 1/105/3 53/106/3 64/107/3
f 16/58/4 15/108/4 59/109/4 60/110/4
f 2/111/3 17/112/3 49/113/3 50/114/3
f 31/115/5 32/58/5 64/116/5 51/117/5
f 20/118/1 6/119/1 54/120/1 61/121/1
f 5/122/1 31/123/1 51/88/1 52/124/1
f 17/125/4 20/126/4 61/127/4 49/128/4
f 1/129/4 5/130/4 52/131/4 53/132/4
f 24/133/3 9/134/3 57/135/3 62/136/3
f 6/132/5 2/131/5 50/95/5 54/94/5
