# Apple ModelIO OBJ File: desklamp
mtllib desklamp.mtl
g desklamp
v -0.179313 0 0
v -0.179313 0.020812 0
v -0.128081 0.020812 -0.128081
v -0.128081 0 -0.128081
v 0 0 -0.179313
v 0 0.020812 -0.179313
v 0.128081 0.020812 -0.128081
v 0.128081 0 -0.128081
v 0.179313 0 0
v 0.179313 0.020812 0
v 0.128081 0.020812 0.128081
v 0.128081 0 0.128081
v 0 0 0.179313
v 0 0.020812 0.179313
v -0.128081 0.020812 0.128081
v -0.128081 0 0.128081
v 0 0 0
v 0.016067 0.046685 0.016067
v 0.022494 0.046685 0
v 0.022494 0.526088 0
v 0.016067 0.519639 0.016067
v -0.022494 0.046685 0
v -0.016067 0.046685 0.016067
v -0.016067 0.493655 0.016067
v -0.022494 0.487756 0
v 0 0.046685 -0.022494
v -0.016067 0.046685 -0.016067
v 0 0.507197 -0.022494
v -0.016067 0.492808 -0.016067
v 0.016067 0.046685 -0.016067
v 0.016067 0.521585 -0.016067
v 0 0.046685 0.022494
v -0.247099 0.571199 -0.022494
v -0.23262 0.591856 -0.016067
v -0.23262 0.591856 -0.165906
v -0.247099 0.571199 -0.184268
v -0.143528 0.591425 0.016067
v -0.143476 0.599688 0
v -0.143476 0.599688 0.12
v -0.143528 0.591425 0.165906
v -0.143791 0.542589 -0.016067
v -0.143843 0.54246 0
v -0.247231 0.542952 -0.016067
v -0.247283 0.54289 0
v -0.23262 0.591856 0.016067
v -0.247099 0.571199 0.022494
v -0.247099 0.571199 0.184268
v -0.23262 0.591856 0.165906
v 0 0.506647 0.022494
v -0.247099 0.571199 0
v -0.247231 0.542952 0.016067
v -0.14366 0.570768 0.022494
v -0.143791 0.542589 0.016067
v -0.14366 0.570768 -0.022494
v -0.143528 0.591425 -0.016067
v -0.227245 0.600119 0
v -0.227245 0.600119 -0.12
v -0.14366 0.570768 0.184268
v -0.227245 0.600119 0.12
v -0.247099 0.543019 -0.184268
v -0.14366 0.542588 -0.184268
v -0.143476 0.599688 -0.12
v -0.143528 0.591425 -0.165906
v -0.14366 0.570768 -0.184268
v -0.14366 0.542588 0.184268
v -0.247099 0.543019 0.184268
vn -0.9285 -0 -0.3714
vn 0.3714 -0 -0.9285
vn 0.9285 -0 0.3714
vn -0.3714 -0 0.9285
vn -0 -1 -0
vn -0.9285 -0 0.3714
vn 0.9285 -0 -0.3714
vn -0.3714 -0 -0.9285
vn 0.3714 -0 0.9285
vn -0.1624 0.9846 -0.065
vn 0.065 0.9846 -0.1624
vn 0.1624 0.9846 0.065
vn -0.065 0.9846 0.1624
vn -0.1624 0.9846 0.065
vn 0.1624 0.9846 -0.065
vn -0.065 0.9846 -0.1624
vn 0.065 0.9846 0.1624
vn -0.8189 0.574 -0
vn 1 -0.0064 -0
vn -0.0038 -1 -0.006
vn -1 0.0054 0.0014
vn -0.1073 -0.2576 0.9603
vn 0.3647 0.8166 0.4474
vn 0.1331 0.2971 0.9455
vn -0.3726 -0.8956 0.2432
vn -0.1047 -0.2507 -0.9624
vn -0.3773 -0.8993 -0.2211
vn 0.1272 0.2892 -0.9488
vn 0.3684 0.8361 -0.4065
vn -1 0.0054 -0.0014
vn -0.8216 0.57 -0.0076
vn -0.8216 0.57 0.0076
vn -0.8383 0.5453 -0
vn -0.0038 -1 0.006
vn 0.003 0.6638 0.7479
vn 0.0049 0.9841 0.1774
vn -0.0038 -1 -0.0002
vn 0.0051 1 -0
vn 0.0049 0.9841 -0.1774
vn 0.003 0.6638 -0.7479
vn -0.0038 -1 0.0002
vn -0 -0 -1
vn 1 -0.0023 0.0004
vn 1 -0.0023 -0.0004
vn -0 -0 1
vn -1 0.0023 -0.0004
vn -1 0.0023 0.0004
vt 0.441962 0.02572
vt 0.446033 -0
vt 0.587736 0.073237
vt 0.568245 0.089862
vt 0.623844 0.22177
vt 0.648751 0.219687
vt 0.62123 0.393662
vt 0.594982 0.38951
vt 0.218158 0.585004
vt 0.185709 0.585004
vt 0.185709 0.369924
vt 0.218158 0.369924
vt 0.216041 0.185154
vt 0.18845 0.176081
vt 0.287524 0.03723
vt 0.301923 0.059908
vt 0.421082 0.226473
vt 0.404517 0.466723
vt 0.152541 0.000388
vt 0.176345 -0
vt 0.185709 0.600605
vt 0.166029 0.598024
vt 0.092817 0.001075
vt 0.111197 0.001001
vt 0.118583 0.588976
vt 0.093159 0.586633
vt 0.593709 0.567638
vt 0.567461 0.563486
vt 0.054875 0.000752
vt 0.074436 0.001002
vt 0.042293 0.59508
vt 0.067963 0.587989
vt 0.033143 0.000384
vt 0.019295 0.601138
vt 0.381702 0.816798
vt 0.402871 0.816808
vt 0.480337 0.997429
vt 0.309536 0.997474
vt 0.417439 0.801444
vt 0.417499 0.780264
vt 0.598117 0.702804
vt 0.598117 0.87372
vt 0.402124 0.76568
vt 0.380956 0.76567
vt 0.303489 0.585048
vt 0.47429 0.585004
vt 0.366387 0.781033
vt 0.366328 0.802214
vt 0.185709 0.879674
vt 0.185709 0.708758
vt 0.86503 0.301154
vt 0.834022 0.293256
vt 0.834018 0.477432
vt 0.865026 0.500004
vt 0.708784 0.253757
vt 0.718941 0.273505
vt 0.718936 0.126011
vt 0.708778 0.069588
vt 0.648912 0.793257
vt 0.648975 0.773508
vt 0.776055 0.793257
vt 0.776119 0.773508
vt 0.834022 0.253754
vt 0.865029 0.245855
vt 0.865018 0.047006
vt 0.834011 0.069579
vt 0.13084 0.000754
vt 0.143518 0.59375
vt 0.009045 -0
vt 0 0.6021
vt 0.865028 0.273505
vt 0.899827 0.273504
vt 0.89975 0.253754
vt 0.12737 0.763528
vt 0.106277 0.752543
vt 0.146337 0.774133
vt 0.163441 0.779566
vt 0.09269 0.752199
vt 0.058209 0.763148
vt 0.079108 0.752428
vt 0.039364 0.77358
vt 0.020571 0.779502
vt 0.899751 0.293254
vt 0.821907 0.273505
vt 0.821903 0.421004
vt 0.648912 0.753758
vt 0.776055 0.753759
vt 0.718981 0.034711
vt 0.718946 0.068682
vt 0.84612 0.034635
vt 0.828449 0.068671
vt 0.821898 0.126007
vt 0.775894 1
vt 0.648751 1
vt 0.683393 0.245858
vt 0.683387 0.047019
vt 0.718937 0.421002
vt 0.718948 0.478333
vt 0.828456 0.478342
vt 0.718984 0.512306
vt 0.846127 0.512379
vt 0.708784 0.293253
vt 0.708779 0.477426
vt 0.683392 0.301152
vt 0.683388 0.499996
vt 0.648751 0.547015
vt 0.775894 0.547016
vt 0.71882 0.546942
vt 0.845963 0.547015
vt 0.648757 0.293252
vt 0.648751 0.499995
vt 0.648751 0.04702
vt 0.648758 0.253759
vt 0.845955 -0
vt 0.718816 7.6e-05
vt 0.899663 0.500004
vt 0.899656 0.047004
usemtl 
f 1/1/1 2/2/1 3/3/1
f 1/1/1 3/3/1 4/4/1
f 5/5/2 6/6/2 7/7/2
f 5/5/2 7/7/2 8/8/2
f 9/9/3 10/10/3 11/11/3
f 9/9/3 11/11/3 12/12/3
f 13/13/4 14/14/4 15/15/4
f 13/13/4 15/15/4 16/16/4
f 17/17/5 9/18/5 12/12/5
f 17/17/5 12/12/5 13/13/5
f 18/19/3 19/20/3 20/21/3
f 18/19/3 20/21/3 21/22/3
f 22/23/6 23/24/6 24/25/6
f 22/23/6 24/25/6 25/26/6
f 5/5/5 8/8/5 17/17/5
f 8/8/5 9/18/5 17/17/5
f 8/8/7 7/7/7 10/27/7
f 8/8/7 10/27/7 9/28/7
f 16/16/6 15/15/6 2/2/6
f 16/16/6 2/2/6 1/1/6
f 4/4/5 5/5/5 17/17/5
f 4/4/5 17/17/5 1/1/5
f 26/29/8 27/30/8 28/31/8
f 27/30/8 29/32/8 28/31/8
f 30/33/2 26/29/2 28/31/2
f 30/33/2 28/31/2 31/34/2
f 1/1/5 17/17/5 16/16/5
f 17/17/5 13/13/5 16/16/5
f 12/12/9 11/11/9 14/14/9
f 12/12/9 14/14/9 13/13/9
f 4/4/8 3/3/8 6/6/8
f 4/4/8 6/6/8 5/5/8
f 22/35/10 27/36/10 3/37/10
f 22/35/10 3/37/10 2/38/10
f 26/39/11 30/40/11 7/41/11
f 26/39/11 7/41/11 6/42/11
f 19/43/12 18/44/12 11/45/12
f 19/43/12 11/45/12 10/46/12
f 32/47/13 23/48/13 15/49/13
f 32/47/13 15/49/13 14/50/13
f 23/48/14 22/35/14 15/49/14
f 22/35/14 2/38/14 15/49/14
f 30/40/15 19/43/15 7/41/15
f 19/43/15 10/46/15 7/41/15
f 27/36/16 26/39/16 3/37/16
f 26/39/16 6/42/16 3/37/16
f 18/44/17 32/47/17 11/45/17
f 32/47/17 14/50/17 11/45/17
f 33/51/18 34/52/18 35/53/18
f 33/51/18 35/53/18 36/54/18
f 37/55/19 38/56/19 39/57/19
f 37/55/19 39/57/19 40/58/19
f 41/59/20 42/60/20 43/61/20
f 42/60/20 44/62/20 43/61/20
f 45/63/18 46/64/18 47/65/18
f 45/63/18 47/65/18 48/66/18
f 27/30/1 22/23/1 25/26/1
f 27/30/1 25/26/1 29/32/1
f 32/67/9 18/19/9 21/22/9
f 32/67/9 21/22/9 49/68/9
f 19/69/7 30/33/7 31/34/7
f 19/69/7 31/34/7 20/70/7
f 23/24/4 32/67/4 24/25/4
f 32/67/4 49/68/4 24/25/4
f 50/71/21 44/72/21 51/73/21
f 50/71/21 51/73/21 46/64/21
f 24/25/22 49/68/22 52/74/22
f 24/25/22 52/74/22 53/75/22
f 21/22/23 20/21/23 37/76/23
f 20/21/23 38/77/23 37/76/23
f 49/68/24 21/22/24 37/76/24
f 49/68/24 37/76/24 52/74/24
f 25/26/25 24/25/25 42/78/25
f 24/25/25 53/75/25 42/78/25
f 28/31/26 29/32/26 54/79/26
f 29/32/26 41/80/26 54/79/26
f 29/32/27 25/26/27 42/78/27
f 29/32/27 42/78/27 41/80/27
f 31/34/28 28/31/28 54/79/28
f 31/34/28 54/79/28 55/81/28
f 20/70/29 31/34/29 38/82/29
f 31/34/29 55/81/29 38/82/29
f 33/51/30 43/83/30 50/71/30
f 43/83/30 44/72/30 50/71/30
f 34/52/31 33/51/31 50/71/31
f 34/52/31 50/71/31 56/84/31
f 56/84/32 50/71/32 45/63/32
f 50/71/32 46/64/32 45/63/32
f 34/52/33 56/84/33 57/85/33
f 34/52/33 57/85/33 35/53/33
f 42/60/34 53/86/34 51/87/34
f 42/60/34 51/87/34 44/62/34
f 58/88/35 40/89/35 47/90/35
f 40/89/35 48/91/35 47/90/35
f 40/89/36 39/57/36 48/91/36
f 39/57/36 59/92/36 48/91/36
f 43/61/37 60/93/37 61/94/37
f 43/61/37 61/94/37 41/59/37
f 52/95/19 37/55/19 40/58/19
f 52/95/19 40/58/19 58/96/19
f 56/84/33 45/63/33 48/66/33
f 56/84/33 48/66/33 59/92/33
f 38/56/38 56/84/38 59/92/38
f 38/56/38 59/92/38 39/57/38
f 62/97/39 63/98/39 35/99/39
f 62/97/39 35/99/39 57/85/39
f 63/98/40 64/100/40 36/101/40
f 63/98/40 36/101/40 35/99/40
f 38/56/19 55/102/19 63/103/19
f 38/56/19 63/103/19 62/97/19
f 55/102/19 54/104/19 64/105/19
f 55/102/19 64/105/19 63/103/19
f 53/86/41 65/106/41 51/87/41
f 65/106/41 66/107/41 51/87/41
f 56/84/38 38/56/38 62/97/38
f 56/84/38 62/97/38 57/85/38
f 64/100/42 61/108/42 60/109/42
f 64/100/42 60/109/42 36/101/42
f 54/104/43 41/110/43 61/111/43
f 54/104/43 61/111/43 64/105/43
f 52/95/44 58/96/44 65/112/44
f 52/95/44 65/112/44 53/113/44
f 47/90/45 66/114/45 65/115/45
f 47/90/45 65/115/45 58/88/45
f 36/54/46 60/116/46 43/83/46
f 36/54/46 43/83/46 33/51/46
f 46/64/47 51/73/47 47/65/47
f 51/73/47 66/117/47 47/65/47
s off
