# Blender 3.6.5
# www.blender.org
mtllib filecabinet.mtl
o filecabinet
v -0.393117 0.000000 0.393117
v -0.393117 1.507513 0.393117
v -0.393117 0.000000 -0.393117
v -0.393117 1.507513 -0.393117
v 0.393117 0.000000 0.393117
v 0.393117 1.507513 0.393117
v 0.393117 0.000000 -0.393117
v 0.393117 1.507513 -0.393117
v -0.393117 0.751452 0.393117
v -0.393117 0.751452 -0.393117
v 0.393117 0.751452 -0.393117
v 0.393117 0.751452 0.393117
v -0.393117 0.804469 0.393117
v -0.393117 0.804469 -0.393117
v 0.393117 0.804469 -0.393117
v 0.393117 0.804469 0.393117
v -0.393117 0.000000 0.366517
v -0.393117 1.507513 0.366517
v 0.393117 0.000000 0.366517
v 0.393117 1.507513 0.366517
v 0.393117 0.751452 0.366517
v -0.393117 0.751452 0.366517
v 0.393117 0.804469 0.366517
v -0.393117 0.804469 0.366517
v -0.123164 1.380850 0.460897
v -0.123164 1.424361 0.460897
v -0.123164 1.380850 0.381103
v -0.123164 1.424361 0.381103
v 0.123164 1.380850 0.460897
v 0.123164 1.424361 0.460897
v 0.123164 1.380850 0.381103
v 0.123164 1.424361 0.381103
v -0.123164 0.622802 0.460897
v -0.123164 0.666313 0.460897
v -0.123164 0.622802 0.381103
v -0.123164 0.666313 0.381103
v 0.123164 0.622802 0.460897
v 0.123164 0.666313 0.460897
v 0.123164 0.622802 0.381103
v 0.123164 0.666313 0.381103
vn -1.0000 -0.0000 -0.0000
vn -0.0000 -0.0000 -1.0000
vn 1.0000 -0.0000 -0.0000
vn -0.0000 -0.0000 1.0000
vn -0.0000 -1.0000 -0.0000
vn -0.0000 1.0000 -0.0000
vt 0.008788 0.232261
vt 0.008788 0.000000
vt 0.259743 0.000000
vt 0.259743 0.232261
vt 0.519487 0.000000
vt 0.519487 0.232261
vt 0.770442 0.232261
vt 0.770442 0.000000
vt 0.779230 0.000000
vt 0.779230 0.232261
vt 1.000000 0.757771
vt 0.767740 0.757771
vt 0.767740 0.498028
vt 1.000000 0.498028
vt 0.259743 0.506816
vt 0.000000 0.506816
vt 0.000000 0.498028
vt 0.259743 0.498028
vt 0.519487 0.506816
vt 0.519487 0.498028
vt 0.519487 0.757772
vt 0.519487 0.498028
vt 0.770442 0.498028
vt 0.770442 0.249775
vt 0.779230 0.249775
vt 0.779230 0.498028
vt 0.259743 0.249775
vt 0.519487 0.249775
vt 0.008788 0.498028
vt 0.008788 0.249775
vt 0.805532 0.259743
vt 0.796745 0.259743
vt 0.796745 0.000000
vt 0.805532 0.000000
vt 0.814320 0.000000
vt 0.814320 0.259743
vt 0.805532 0.000000
vt 0.779230 0.259743
vt 0.779230 -0.000000
vt 0.796745 -0.000000
vt 0.000000 0.249775
vt 0.519487 0.757771
vt 0.259743 0.757771
vt 0.000000 0.757771
vt 0.000000 0.232261
vt 0.000000 0.000000
vt 0.057497 0.784132
vt 0.043123 0.784132
vt 0.043123 0.757771
vt 0.057497 0.757771
vt 0.828694 0.081378
vt 0.814320 0.081378
vt 0.814320 0.000000
vt 0.828694 0.000000
vt 0.028749 0.784132
vt 0.014374 0.784132
vt 0.014374 0.757771
vt 0.028749 0.757771
vt 0.828694 0.162755
vt 0.814320 0.162755
vt 0.805591 0.259743
vt 0.805591 0.341121
vt 0.779230 0.341121
vt 0.779230 0.259743
vt 0.805591 0.422499
vt 0.779230 0.422499
vt 0.028749 0.757771
vt 0.828694 0.244133
vt 0.814320 0.244133
vt 0.814320 0.162755
vt 0.828694 0.162755
vt 0.071871 0.784132
vt 0.057497 0.757771
vt 0.071871 0.757771
vt 0.014374 0.839149
vt 0.000000 0.839149
vt 0.000000 0.757771
vt 0.831952 0.259743
vt 0.831952 0.341121
vt 0.831952 0.422499
s 0
usemtl cabinet
f 24/1/1 18/2/1 4/3/1 14/4/1
f 14/4/2 4/3/2 8/5/2 15/6/2
f 23/7/3 20/8/3 6/9/3 16/10/3
f 16/11/4 6/12/4 2/13/4 13/14/4
f 17/15/5 19/16/5 5/17/5 1/18/5
f 20/19/6 18/15/6 2/18/6 6/20/6
f 5/12/4 12/21/4 9/22/4 1/13/4
f 19/23/3 21/24/3 12/25/3 5/26/3
f 3/18/2 10/27/2 11/28/2 7/20/2
f 17/29/1 22/30/1 10/27/1 3/18/1
f 22/31/6 9/32/6 12/33/6 21/34/6
f 24/35/5 23/36/5 16/31/5 13/37/5
f 10/27/2 14/4/2 15/6/2 11/28/2
f 22/30/1 24/1/1 14/4/1 10/27/1
f 21/32/4 23/38/4 24/39/4 22/40/4
f 11/28/3 15/6/3 23/7/3 21/24/3
f 1/17/1 9/41/1 22/30/1 17/29/1
f 7/20/3 11/28/3 21/24/3 19/23/3
f 8/42/6 4/43/6 18/15/6 20/19/6
f 3/43/5 7/44/5 19/16/5 17/15/5
f 15/6/3 8/5/3 20/8/3 23/7/3
f 13/45/1 2/46/1 18/2/1 24/1/1
f 25/47/1 26/48/1 28/49/1 27/50/1
f 27/51/2 28/52/2 32/53/2 31/54/2
f 31/55/3 32/56/3 30/57/3 29/58/3
f 29/59/4 30/60/4 26/52/4 25/51/4
f 27/61/5 31/62/5 29/63/5 25/64/5
f 32/62/6 28/65/6 26/66/6 30/63/6
f 33/48/1 34/55/1 36/67/1 35/49/1
f 35/68/2 36/69/2 40/70/2 39/71/2
f 39/72/3 40/47/3 38/73/3 37/74/3
f 37/75/4 38/76/4 34/77/4 33/57/4
f 35/78/5 39/79/5 37/62/5 33/61/5
f 40/79/6 36/80/6 34/65/6 38/62/6
