<?xml version="1.0" encoding="UTF-8" standalone="no"?>
<!DOCTYPE svg PUBLIC "-//W3C//DTD SVG 1.1//EN" "http://www.w3.org/Graphics/SVG/1.1/DTD/svg11.dtd">
<!-- Created with Vectornator (http://vectornator.io/) -->
<svg height="100%" stroke-miterlimit="10" style="fill-rule:nonzero;clip-rule:evenodd;stroke-linecap:round;stroke-linejoin:round;" version="1.1" viewBox="0 0 2048 2048" width="100%" xml:space="preserve" xmlns="http://www.w3.org/2000/svg" xmlns:vectornator="http://vectornator.io" xmlns:xlink="http://www.w3.org/1999/xlink">
<defs/>
<g id="Layer-1" vectornator:layerName="Layer 1">
<g opacity="1" vectornator:layerName="Group 4">
<path d="M1047.06 62.2812C950.405 62.2812 862.944 76.784 784.812 105.781C706.681 134.778 640.592 175.425 586.625 227.781C532.658 280.137 490.772 342.983 460.969 416.281C431.166 489.58 416.344 571.38 416.344 661.594C416.344 688.827 417.814 714.422 420.375 738.781L1000.91 738.781C976.839 725.386 956.658 710.233 940.75 693C921.418 672.058 911.719 645.438 911.719 613.219C911.719 566.501 930.993 528.591 969.656 499.594C1008.32 470.596 1058.22 456.125 1119.44 456.125C1166.42 456.125 1215.07 465.756 1265.09 484.781L1590.81 199.031C1507.14 156.195 1420.2 122.749 1329.69 99.75C1231.42 74.7801 1137.28 62.2813 1047.06 62.2812ZM1575.84 238.844L1285.56 493.438C1305.43 502.143 1325.24 512.085 1345.12 523.969L1575.84 238.844ZM1345.12 523.969L1171.28 738.781L1197.22 738.781L1362.22 534.906C1356.54 531.247 1350.81 527.364 1345.12 523.969ZM1362.22 534.906C1382.8 548.164 1403.35 562.681 1423.94 579.406L1590.31 253.062L1362.22 534.906ZM775.25 1228.25L600.188 1444.59C605.625 1448.79 610.978 1452.4 616.406 1456.41L801.062 1228.25L775.25 1228.25ZM616.406 1456.41L378.906 1749.97L671.188 1493.59C652.967 1482.14 634.72 1469.91 616.406 1456.41ZM600.188 1444.59C581.646 1430.29 563.059 1415.13 544.406 1398.59L366.344 1733.62L600.188 1444.59ZM1016.53 1228.25C1023.67 1231 1031.87 1233.97 1038.5 1236.62C1074.75 1251.12 1104.17 1266.83 1126.72 1283.75C1149.27 1300.67 1165.46 1319.14 1175.12 1339.28C1184.79 1359.42 1189.56 1383.27 1189.56 1410.66C1189.56 1455.76 1170.61 1496 1132.75 1531.44C1094.89 1566.88 1037.29 1584.59 959.969 1584.59C892.309 1584.59 823.896 1569.33 754.625 1538.72C732.865 1529.1 710.972 1517.62 689.031 1504.66L360.688 1792.69C551.937 1920.94 758.778 1985.72 981.719 1985.72C1092.88 1985.72 1192.36 1970.9 1280.16 1941.09C1367.95 1911.29 1442.06 1869.4 1502.47 1815.44C1562.88 1761.47 1608.77 1696.62 1640.19 1620.91C1671.6 1545.19 1687.31 1460.62 1687.31 1367.19C1687.31 1317.5 1682.65 1271.22 1673.44 1228.25L1016.53 1228.25Z" fill="#9f1515" fill-rule="nonzero" opacity="1" stroke="none" vectornator:layerName="Curve 1"/>
<g opacity="1" vectornator:layerName="Group 1">
<path d="M178.992 947.779L272.124 947.779L272.124 1010.77L178.992 1010.77L178.992 947.779ZM178.992 797.936L277.945 797.936L277.945 861.405L178.992 861.405L178.992 797.936ZM167.351 797.936L167.351 1175.88L91.2655 1175.88L91.2655 797.936L167.351 797.936Z" fill="#9f1515" fill-rule="nonzero" opacity="1" stroke="none"/>
<path d="M306.633 797.936L384.381 797.936L384.381 1175.88L306.633 1175.88L306.633 797.936Z" fill="#9f1515" fill-rule="nonzero" opacity="1" stroke="none"/>
<path d="M501.212 797.936L501.212 1175.88L425.958 1175.88L425.958 797.936L501.212 797.936ZM541.126 951.119C553.044 951.119 561.914 947.461 567.735 940.144C573.556 932.826 576.466 922.328 576.466 908.648C576.466 892.423 573.694 880.493 568.151 872.858C562.607 865.222 553.599 861.405 541.126 861.405L514.932 861.405L514.932 797.936L539.047 797.936C615.548 797.936 653.799 831.341 653.799 898.149C653.799 922.964 650.403 942.291 643.612 956.13C636.822 969.969 625.526 978.638 609.727 982.138C638.554 990.727 652.967 1016.5 652.967 1059.44L652.967 1142.48C652.967 1149.8 653.314 1156.32 654.007 1162.04C654.699 1167.77 656.016 1172.38 657.956 1175.88L581.039 1175.88C577.436 1169.84 575.634 1160.61 575.634 1148.2L575.634 1062.79C575.634 1030.34 564.132 1014.11 541.126 1014.11L514.932 1014.11L514.932 951.119L541.126 951.119Z" fill="#9f1515" fill-rule="nonzero" opacity="1" stroke="none"/>
<path d="M852.535 900.536C852.535 874.13 841.725 859.019 820.106 855.201L820.106 791.256C892.726 794.437 929.037 830.864 929.037 900.536L852.535 900.536ZM759.819 1063.74C760.651 1097.14 774.648 1115.28 801.812 1118.14L801.812 1183.52C725.311 1180.34 687.06 1140.41 687.06 1063.74L759.819 1063.74ZM931.531 1087.6C931.531 1149.64 894.389 1181.61 820.106 1183.52L820.106 1118.62C844.774 1116.07 857.109 1105.89 857.109 1088.08C855.446 1075.99 848.932 1064.85 837.568 1054.67C818.443 1038.45 800.565 1023.18 783.934 1008.86C767.303 994.545 750.95 981.183 734.873 968.776C712.422 948.415 698.702 921.851 693.712 889.083C693.712 826.092 729.607 793.483 801.396 791.256L801.396 855.201C788.923 856.792 780.469 860.371 776.034 865.938C771.599 871.506 769.382 879.857 769.382 890.991C769.382 901.49 773.124 909.761 780.608 915.806C785.597 919.306 791.695 923.839 798.901 929.406C806.108 934.974 813.661 940.859 821.561 947.063C829.46 953.267 837.291 959.55 845.052 965.913C852.813 972.275 859.811 978.002 866.048 983.092C872.284 988.182 877.343 992.318 881.223 995.499C885.104 998.681 887.183 1000.27 887.46 1000.27C916.841 1024.45 931.531 1053.56 931.531 1087.6Z" fill="#9f1515" fill-rule="nonzero" opacity="1" stroke="none"/>
<path d="M1189.31 797.936L1189.31 861.405L954.814 861.405L954.814 797.936L1189.31 797.936ZM1033.81 876.198L1109.48 876.198L1109.48 1175.88L1033.81 1175.88L1033.81 876.198Z" fill="#9f1515" fill-rule="nonzero" opacity="1" stroke="none"/>
<path d="M1519.01 797.936L1602.58 1175.88L1523.17 1175.88L1507.78 1096.67L1442.09 1096.67L1452.9 1033.68L1496.56 1033.68L1470.78 880.016L1412.57 1175.88L1337.74 1175.88L1421.31 797.936L1519.01 797.936Z" fill="#9f1515" fill-rule="nonzero" opacity="1" stroke="none"/>
<path d="M1625.03 797.936L1702.78 797.936L1702.78 1175.88L1625.03 1175.88L1625.03 797.936Z" fill="#9f1515" fill-rule="nonzero" opacity="1" stroke="none"/>
<path d="M1831.25 797.936L1870.33 797.936C1940.74 797.936 1975.94 833.409 1975.94 904.353L1975.94 1068.03C1975.94 1139.93 1940.46 1175.88 1869.5 1175.88L1831.25 1175.88L1831.25 1111.46L1858.28 1111.46C1872.41 1111.46 1882.6 1108.76 1888.84 1103.35C1895.07 1097.94 1898.19 1089.51 1898.19 1078.06L1898.19 901.013C1898.19 887.333 1894.93 877.471 1888.42 871.426C1881.91 865.381 1871.58 862.359 1857.44 862.359L1831.25 862.359L1831.25 797.936ZM1819.61 797.936L1819.61 1175.88L1744.36 1175.88L1744.36 797.936L1819.61 797.936Z" fill="#9f1515" fill-rule="nonzero" opacity="1" stroke="none"/>
</g>
</g>
</g>
</svg>
