# Apple ModelIO OBJ File: vase1
mtllib vase1.mtl
g vase1
v -0.264404 0 0
v -0.264404 0.369796 0
v -0.184898 0.369796 -0.184898
v -0.184898 0 -0.184898
v 0 0 -0.264404
v 0 0.369796 -0.264404
v 0.184898 0.369796 -0.184898
v 0.184898 0 -0.184898
v 0.264404 0 0
v 0.264404 0.369796 0
v 0.184898 0.369796 0.184898
v 0.184898 0 0.184898
v 0 0 0.264404
v 0 0.369796 0.264404
v -0.184898 0.369796 0.184898
v -0.184898 0 0.184898
v 0 0 0
v 0 0.369796 0
vn -0.9187 -0 -0.395
vn 0.395 -0 -0.9187
vn 0.9187 -0 0.395
vn -0.395 -0 0.9187
vn -0 -1 -0
vn -0 1 -0
vn 0.395 -0 0.9187
vn -0.395 -0 -0.9187
vn 0.9187 -0 -0.395
vn -0.9187 -0 0.395
vt 0.166172 0.314698
vt 0.452277 0.326498
vt 0.438382 0.490432
vt 0.1832 0.454549
vt 0.613238 0.026416
vt 0.909613 0
vt 0.917398 0.17078
vt 0.649637 0.168213
vt 0.624871 0.314698
vt 0.910976 0.326498
vt 0.897081 0.490432
vt 0.641899 0.454549
vt 0.154539 0.026416
vt 0.450913 0
vt 0.458699 0.17078
vt 0.190938 0.168213
vt 0.458699 0.438368
vt 0.599975 0.591236
vt 0.18089 0.81911
vt 0 0.896893
vt 0 0.747007
vt 0.103107 0.63822
vt 0.36178 0.741327
vt 0.252993 0.63822
vt -0 0.17624
vt 0.87151 0.63822
vt 0.412811 0.63822
vt 0.141276 0.591236
vt -0 0.438368
vt 0.36178 0.891213
vt 0.258673 1
vt 0.108787 1
vt 0.458699 0.17624
usemtl 
f 1/1/1 2/2/1 3/3/1
f 1/1/1 3/3/1 4/4/1
f 5/5/2 6/6/2 7/7/2
f 5/5/2 7/7/2 8/8/2
f 9/9/3 10/10/3 11/11/3
f 9/9/3 11/11/3 12/12/3
f 13/13/4 14/14/4 15/15/4
f 13/13/4 15/15/4 16/16/4
f 17/17/5 9/9/5 12/12/5
f 17/17/5 12/12/5 13/18/5
f 18/19/6 2/20/6 15/21/6
f 18/19/6 15/21/6 14/22/6
f 10/23/6 18/19/6 11/24/6
f 18/19/6 14/22/6 11/24/6
f 1/1/5 17/25/5 16/16/5
f 17/25/5 13/13/5 16/16/5
f 12/12/7 11/11/7 14/26/7
f 12/12/7 14/26/7 13/18/7
f 4/4/8 3/3/8 6/27/8
f 4/4/8 6/27/8 5/28/8
f 4/4/5 5/28/5 17/29/5
f 4/4/5 17/29/5 1/1/5
f 7/30/6 6/31/6 18/19/6
f 7/30/6 18/19/6 10/23/6
f 6/31/6 3/32/6 18/19/6
f 3/32/6 2/20/6 18/19/6
f 5/5/5 8/8/5 17/33/5
f 8/8/5 9/9/5 17/33/5
f 8/8/9 7/7/9 10/10/9
f 8/8/9 10/10/9 9/9/9
f 16/16/10 15/15/10 2/2/10
f 16/16/10 2/2/10 1/1/10
s off
