# Apple ModelIO OBJ File: conferencetable
mtllib conferencetable.mtl
g conferencetable
v -2.0345 0.97656 0.8138
v 2.0372 0.97656 0.8138
v 2.13593 0.97656 0.907158
v -2.13309 0.97656 0.907158
v -2.0345 1.05794 -0.8138
v 2.0372 1.05794 -0.8138
v 2.13593 1.05794 -0.90696
v -2.13309 1.05794 -0.90696
v -2.0345 1.05794 0.8138
v -2.11588 1.05794 0.8138
v -2.22104 1.05794 0.907158
v -2.13309 1.05794 0.907158
v -2.0345 0.97656 -0.8138
v -2.11588 0.97656 -0.8138
v -2.22104 0.97656 -0.90696
v -2.13309 0.97656 -0.90696
v 2.0372 0 0.728545
v 2.11588 0 0.728545
v 2.11588 0 0.8138
v 2.0372 0 0.8138
v -2.0345 1.05794 0.728545
v -2.11588 1.05794 0.728545
v 2.0372 1.05794 0.728545
v 2.0372 1.05794 0.8138
v -2.11588 0 0.728545
v -2.0345 0 0.728545
v -2.0345 0 0.8138
v -2.11588 0 0.8138
v 2.11588 1.05794 -0.73242
v 2.11588 1.05794 0.728545
v 2.22097 1.05794 0.808876
v 2.22097 1.05794 -0.813146
v 2.11588 0.97656 0.8138
v 2.22097 0.97656 0.907158
v -2.11588 1.05794 -0.73242
v -2.11588 1.05794 -0.8138
v -2.22104 1.05794 -0.90696
v -2.22104 1.05794 -0.813146
v 2.11588 1.05794 0.8138
v 2.0372 0.97656 -0.8138
v 2.13593 0.97656 -0.90696
v 2.11588 1.05794 -0.8138
v 2.0372 1.05794 -0.73242
v -2.11588 0 -0.8138
v -2.0345 0 -0.8138
v -2.0345 0 -0.73242
v -2.11588 0 -0.73242
v -2.0345 1.05794 -0.73242
v 2.0372 0 -0.8138
v 2.11588 0 -0.8138
v 2.11588 0 -0.73242
v 2.0372 0 -0.73242
v -2.11588 0.97656 -0.73242
v -2.22104 0.97656 -0.813146
v 2.22097 1.05794 0.907158
v 2.11588 0.97656 -0.73242
v 2.11588 0.97656 -0.8138
v 2.22097 0.97656 -0.90696
v 2.22097 0.97656 -0.813146
v -2.11588 0.97656 0.8138
v -2.11588 0.97656 0.728545
v 2.11588 0.97656 0.728545
v -2.0345 0.97656 -0.73242
v -2.0345 0.97656 0.728545
v 2.0364 0.97656 -0.73242
v 2.0364 0.97656 0.728545
v 2.22097 1.05794 -0.90696
v 2.22097 0.97656 0.808876
v -2.22104 0.97656 0.907158
v 2.13593 1.05794 0.907158
v -2.22104 0.97656 0.808876
v -2.22104 1.05794 0.808876
vn -0 -1 -0
vn -0 1 -0
vn -1 -0 -0
vn 1 -0 -0
vn -0 -0 1
vn -0 -0 -1
vn -1 -0.0004 0.0047
vn -1 -0.0004 -0.0049
vt 0.288092 0.029817
vt 0.288092 0.680651
vt 0.273169 0.696433
vt 0.273169 0.014058
vt 0.657998 0.029817
vt 0.657998 0.680651
vt 0.643107 0.696433
vt 0.643107 0.014058
vt 0.643107 0.680208
vt 0.643107 0.693216
vt 0.628184 0.710025
vt 0.628184 0.695967
vt 0.472087 0.680208
vt 0.472087 0.693216
vt 0.457196 0.710025
vt 0.457196 0.695967
vt 0.24507 0.012704
vt 0.244952 0.000128
vt 0.258579 -0
vt 0.258697 0.012576
vt 0.904531 0.013008
vt 0.904531 0
vt 0.918159 0
vt 0.918159 0.013008
vt 0.904531 0.663842
vt 0.918159 0.663842
vt 0.246533 0.988604
vt 0.246533 0.975596
vt 0.260161 0.975596
vt 0.260161 0.988604
vt 0.934956 0.317874
vt 0.934956 0.551399
vt 0.918159 0.56424
vt 0.918159 0.30497
vt 0.288092 0.693227
vt 0.273169 0.710025
vt 0.934968 0.262075
vt 0.934968 0.275083
vt 0.918159 0.289975
vt 0.918159 0.274979
vt 0.904531 0.676418
vt 0.918159 0.676418
vt 0.472088 0.029374
vt 0.457197 0.013592
vt 0.657998 0.676418
vt 0.657998 0.663841
vt 0.671006 0.663841
vt 0.671006 0.676418
vt 0 0.988604
vt 0 0.975596
vt 0.013008 0.975596
vt 0.013008 0.988604
vt 0.657998 0.013008
vt 0.671006 0.013008
vt 0.657998 0
vt 0.671006 0
vt 0.001533 0.012577
vt 0.001657 1e-06
vt 0.014664 0.000128
vt 0.014541 0.012705
vt 0.687815 0.691309
vt 0.687815 0.704318
vt 0.671006 0.691414
vt 0.934956 0.565027
vt 0.918159 0.579949
vt 0.598378 0.737925
vt 0.598378 0.724916
vt 0.615176 0.710025
vt 0.615176 0.725021
vt 0.472088 0.016798
vt 0.457197 -0
vt 0.843912 0.95147
vt 0.687815 0.95147
vt 0.687815 0.937843
vt 0.843912 0.937843
vt 0.442282 0.724916
vt 0.442282 0.737925
vt 0.444188 0.693227
vt 0.444188 0.680651
vt 0.628184 0.693216
vt 0.628184 0.680208
vt 0.444188 0.029817
vt 0.288092 0.016809
vt 0.444188 0.016809
vt 0.442282 0.97145
vt 0.598378 0.97145
vt 0.598378 0.985077
vt 0.442282 0.985077
vt 0.628184 0.029374
vt 0.628184 0.016798
vt 0.843912 0.704318
vt 0.843912 0.69131
vt 0.013008 0.819499
vt 0.246533 0.819499
vt 0.246533 0.832507
vt 0.013008 0.832507
vt 0.013008 0.168794
vt 0.246533 0.168794
vt 0.013008 0.156089
vt 0.246533 0.156089
vt 0.260161 0.819499
vt 0.260161 0.168666
vt 0 0.819499
vt -0 0.168666
vt 0.233525 0.819499
vt 0.233525 0.975596
vt 0.026016 0.975596
vt 0.026016 0.819499
vt 0.027117 0.012818
vt 0.025712 0.168908
vt 0.233829 0.168902
vt 0.232494 0.012812
vt 0.657998 0.691414
vt 0.444188 0.013592
vt 0.444188 -0
vt 0.615176 0.98429
vt 0.628184 0.98429
vt 0.628184 1
vt 0.615176 1
vt 0.260161 0.014058
vt 0.260161 -0
vt 0.273169 -0
vt 0.260161 0.696433
vt 0.444188 0.710025
vt 0.444188 0.695967
vt 0.260161 0.710025
vt 0.628184 0.725021
vt 0.671006 0.950683
vt 0.657998 0.950683
vt 0.671006 0.966393
vt 0.657998 0.966393
vt 0.657998 0.016809
vt 0.643107 -0
vt 0.934968 0.02855
vt 0.918159 0.01571
vt 0.657998 0.693228
vt 0.643107 0.710025
vt 0.934956 0.304866
vt 0.934968 0.014923
vt 0.643106 0.016798
vt 0.643107 0.029374
vt 0.628184 0.013592
vt 0.628184 0
usemtl 
f 1/1/1 2/2/1 3/3/1
f 1/1/1 3/3/1 4/4/1
f 5/5/2 6/6/2 7/7/2
f 5/5/2 7/7/2 8/8/2
f 9/9/2 10/10/2 11/11/2
f 9/9/2 11/11/2 12/12/2
f 13/13/1 14/14/1 15/15/1
f 13/13/1 15/15/1 16/16/1
f 17/17/1 18/18/1 19/19/1
f 17/17/1 19/19/1 20/20/1
f 21/21/2 22/22/2 10/23/2
f 21/21/2 10/23/2 9/24/2
f 23/25/2 21/21/2 9/24/2
f 23/25/2 9/24/2 24/26/2
f 25/27/1 26/28/1 27/29/1
f 25/27/1 27/29/1 28/30/1
f 29/31/2 30/32/2 31/33/2
f 29/31/2 31/33/2 32/34/2
f 2/2/1 33/35/1 34/36/1
f 2/2/1 34/36/1 3/3/1
f 35/37/2 36/38/2 37/39/2
f 35/37/2 37/39/2 38/40/2
f 30/41/2 23/25/2 24/26/2
f 30/41/2 24/26/2 39/42/2
f 40/43/1 13/13/1 16/16/1
f 40/43/1 16/16/1 41/44/1
f 42/45/2 6/46/2 43/47/2
f 42/45/2 43/47/2 29/48/2
f 44/49/1 45/50/1 46/51/1
f 44/49/1 46/51/1 47/52/1
f 6/46/2 5/53/2 48/54/2
f 6/46/2 48/54/2 43/47/2
f 5/53/2 36/55/2 35/56/2
f 5/53/2 35/56/2 48/54/2
f 49/57/1 50/58/1 51/59/1
f 49/57/1 51/59/1 52/60/1
f 14/61/1 53/62/1 54/63/1
f 14/61/1 54/63/1 15/48/1
f 30/32/2 39/64/2 55/65/2
f 30/32/2 55/65/2 31/33/2
f 56/66/1 57/67/1 58/68/1
f 56/66/1 58/68/1 59/69/1
f 29/48/2 43/47/2 23/25/2
f 29/48/2 23/25/2 30/41/2
f 43/47/2 48/54/2 21/21/2
f 43/47/2 21/21/2 23/25/2
f 48/54/2 35/56/2 22/22/2
f 48/54/2 22/22/2 21/21/2
f 57/70/1 40/43/1 41/44/1
f 57/70/1 41/44/1 58/71/1
f 28/72/3 60/73/3 61/74/3
f 28/72/3 61/74/3 25/75/3
f 50/76/4 57/67/4 56/66/4
f 50/76/4 56/66/4 51/77/4
f 19/78/5 33/35/5 2/2/5
f 19/78/5 2/2/5 20/79/5
f 44/80/6 14/14/6 13/13/6
f 44/80/6 13/13/6 45/81/6
f 27/82/5 1/1/5 60/83/5
f 27/82/5 60/83/5 28/84/5
f 18/85/4 62/86/4 33/87/4
f 18/85/4 33/87/4 19/88/4
f 49/89/6 40/43/6 57/70/6
f 49/89/6 57/70/6 50/90/6
f 47/91/3 53/62/3 14/61/3
f 47/91/3 14/61/3 44/92/3
f 63/93/1 64/94/1 61/95/1
f 63/93/1 61/95/1 53/96/1
f 65/97/1 66/98/1 64/94/1
f 65/97/1 64/94/1 63/93/1
f 56/99/1 62/100/1 66/98/1
f 56/99/1 66/98/1 65/97/1
f 1/101/1 64/94/1 66/98/1
f 1/101/1 66/98/1 2/102/1
f 13/103/1 40/104/1 65/97/1
f 13/103/1 65/97/1 63/93/1
f 61/105/6 64/94/6 26/28/6
f 61/105/6 26/28/6 25/106/6
f 47/107/5 46/51/5 63/93/5
f 47/107/5 63/93/5 53/108/5
f 52/60/5 51/109/5 56/110/5
f 52/60/5 56/110/5 65/97/5
f 17/17/6 66/98/6 62/111/6
f 17/17/6 62/111/6 18/112/6
f 2/102/7 66/98/7 20/20/7
f 66/98/7 17/17/7 20/20/7
f 40/104/8 49/57/8 65/97/8
f 49/57/8 52/60/8 65/97/8
f 26/28/4 64/94/4 1/101/4
f 26/28/4 1/101/4 27/29/4
f 13/103/4 63/93/4 46/51/4
f 13/103/4 46/51/4 45/50/4
f 54/63/3 38/113/3 37/45/3
f 54/63/3 37/45/3 15/48/3
f 41/44/6 7/114/6 67/115/6
f 41/44/6 67/115/6 58/71/6
f 68/116/4 31/117/4 55/118/4
f 68/116/4 55/118/4 34/119/4
f 4/4/5 12/120/5 11/121/5
f 4/4/5 11/121/5 69/122/5
f 3/3/5 70/123/5 12/120/5
f 3/3/5 12/120/5 4/4/5
f 15/15/6 37/124/6 8/125/6
f 15/15/6 8/125/6 16/16/6
f 34/36/5 55/126/5 70/123/5
f 34/36/5 70/123/5 3/3/5
f 16/16/6 8/125/6 7/114/6
f 16/16/6 7/114/6 41/44/6
f 58/68/4 67/11/4 32/127/4
f 58/68/4 32/127/4 59/69/4
f 71/128/3 72/129/3 38/113/3
f 71/128/3 38/113/3 54/63/3
f 69/130/3 11/131/3 72/129/3
f 69/130/3 72/129/3 71/128/3
f 59/69/4 32/127/4 31/117/4
f 59/69/4 31/117/4 68/116/4
f 36/132/2 5/5/2 8/8/2
f 36/132/2 8/8/2 37/133/2
f 22/134/2 35/37/2 38/40/2
f 22/134/2 38/40/2 72/135/2
f 62/86/1 56/66/1 59/69/1
f 62/86/1 59/69/1 68/116/1
f 6/6/2 42/136/2 67/137/2
f 6/6/2 67/137/2 7/7/2
f 60/83/1 1/1/1 4/4/1
f 60/83/1 4/4/1 69/122/1
f 61/74/1 60/73/1 69/130/1
f 61/74/1 69/130/1 71/128/1
f 42/138/2 29/31/2 32/34/2
f 42/138/2 32/34/2 67/39/2
f 10/139/2 22/134/2 72/135/2
f 10/139/2 72/135/2 11/23/2
f 39/140/2 24/141/2 70/142/2
f 39/140/2 70/142/2 55/143/2
f 33/87/1 62/86/1 68/116/1
f 33/87/1 68/116/1 34/119/1
f 24/141/2 9/9/2 12/12/2
f 24/141/2 12/12/2 70/142/2
f 53/62/1 61/74/1 71/128/1
f 53/62/1 71/128/1 54/63/1
s off
